<svg xmlns="http://www.w3.org/2000/svg" viewBox="0 0 290.77 96.94"><defs><style>.a{fill:#fff;}</style></defs><path class="a" d="M71.17,18.1H52.5V29.56H71.17V53.47H83.71V0H71.17Zm-.86,43.33a21.52,21.52,0,0,0-7.11-4.14,27.13,27.13,0,0,0-17.22,0,21.58,21.58,0,0,0-7.1,4.14,19.51,19.51,0,0,0-6.6,15A19.77,19.77,0,0,0,34.06,85a18.93,18.93,0,0,0,4.82,6.49A22,22,0,0,0,46,95.51a26.72,26.72,0,0,0,17.22,0,22.11,22.11,0,0,0,7.11-4.07A19.16,19.16,0,0,0,75.13,85a20.06,20.06,0,0,0,1.78-8.53,19.68,19.68,0,0,0-1.78-8.51,20.19,20.19,0,0,0-4.81-6.48ZM61.54,83.35a10.27,10.27,0,1,1,2.7-6.93,9.39,9.39,0,0,1-2.7,6.93Zm77.55-62.59c0,1.18,0,2.16-.11,2.91a13.4,13.4,0,0,1-.54,2.65c-.66,2.28-1.62,5.06-2.9,8.35l-.18.48,11.13,4.28.2-.48c.83-1.94,1.57-3.72,2.24-5.36s1.33-3.45,1.93-5.4a23.27,23.27,0,0,0,.73-3.79,38.21,38.21,0,0,0,.17-3.86V2.24H102V13.13H139.1ZM56.34,43.93l-.3-.45L36.36,14.58H54.13V3.14H2.23V14.59H20L0,44.27l10.27,6.48,18-26.47,17.94,26Zm197.88-.24-.31-.43L233.72,14.58h17.73V3.14h-51.9V14.59h17.6l-20.5,29.67,10,6.73,19.09-27.4,18.63,26.73ZM151.06,55.15a17.5,17.5,0,0,0,4.37-.71c1.56-.44,2.86-.85,3.88-1.23s2.14-.88,3.34-1.47l.41-.19-3-10-.51.18c-1.29.44-2.36.82-3.25,1.1s-2.14.67-3.76,1.13a13.16,13.16,0,0,1-2.79.42c-1.2.08-2.26.11-3.21.11h-21v-21H113.05v21h-18V55.27h51.26c1.5,0,3.06,0,4.73-.12ZM277.8,19.9V0H265.25V52.91H277.8V31.35h13V19.9ZM267.19,61.43a21.8,21.8,0,0,0-7.11-4.14,27.13,27.13,0,0,0-17.22,0,21.77,21.77,0,0,0-7.12,4.14A20.68,20.68,0,0,0,230.94,85a19.24,19.24,0,0,0,4.8,6.5,22.81,22.81,0,0,0,7.12,4.06,26.72,26.72,0,0,0,17.22,0,22.11,22.11,0,0,0,7.11-4.07A19.39,19.39,0,0,0,272,85a20.11,20.11,0,0,0-4.82-23.52Zm-8.78,21.92a10.27,10.27,0,1,1,2.7-6.93,9.39,9.39,0,0,1-2.7,6.93ZM123.62,61.91H110.93V94.26h70.46V82.81H123.62ZM178.92,0H166.36V68h12.56V33.68h13V22.25h-13Z"/></svg>