<svg xmlns="http://www.w3.org/2000/svg" width="103" height="92" viewBox="0 0 103 92">
    <defs>
        <style>
            .cls-1{fill:#fff}
        </style>
    </defs>
    <g id="logo_5" transform="translate(-6060 -2903)">
        <g id="그룹_6711">
            <path id="패스_14345" d="M147.767 969.288a6.063 6.063 0 0 1 1.424 3.886 6.22 6.22 0 0 1-1.731 4.368 8.155 8.155 0 0 1-4.655 2.4v1.769h14.082v3.079h-31.974v-3.079h14.043v-1.769a8.376 8.376 0 0 1-2.654-.866 7.637 7.637 0 0 1-2.02-1.52 6.515 6.515 0 0 1-1.289-2.02 6.2 6.2 0 0 1-.462-2.367 6.272 6.272 0 0 1 1.385-3.886h-4.808v-3.073h9.692v-2.886h4.117v2.886h9.734v3.078zm-15.583 24.241a6.433 6.433 0 0 1 .635-2.848 6.9 6.9 0 0 1 1.77-2.27 8.519 8.519 0 0 1 2.731-1.52 11.394 11.394 0 0 1 7.042 0 8.523 8.523 0 0 1 2.732 1.52 6.916 6.916 0 0 1 1.77 2.27 6.7 6.7 0 0 1 0 5.695 6.906 6.906 0 0 1-1.77 2.27 8.275 8.275 0 0 1-2.732 1.5 11.786 11.786 0 0 1-7.042 0 8.271 8.271 0 0 1-2.731-1.5 6.887 6.887 0 0 1-1.77-2.27 6.431 6.431 0 0 1-.634-2.847zm3.809 0a3.555 3.555 0 0 0 .347 1.539 3.966 3.966 0 0 0 .98 1.289 4.508 4.508 0 0 0 1.54.866 6.547 6.547 0 0 0 3.963 0 4.52 4.52 0 0 0 1.539-.866 3.983 3.983 0 0 0 .982-1.289 3.565 3.565 0 0 0 .346-1.539 3.745 3.745 0 0 0-1.327-2.848 4.991 4.991 0 0 0-1.539-.866 6.172 6.172 0 0 0-3.963 0 4.977 4.977 0 0 0-1.54.866 3.76 3.76 0 0 0-1.327 2.848zm.269-20.355a3.433 3.433 0 0 0 .346 1.521 3.731 3.731 0 0 0 .962 1.231 4.509 4.509 0 0 0 1.442.808 5.879 5.879 0 0 0 3.637 0 4.719 4.719 0 0 0 1.481-.808 3.636 3.636 0 0 0 .982-1.231 3.515 3.515 0 0 0 0-3.04 3.647 3.647 0 0 0-.982-1.232 4.721 4.721 0 0 0-1.481-.808 5.878 5.878 0 0 0-3.637 0 4.511 4.511 0 0 0-1.442.808 3.743 3.743 0 0 0-.962 1.232 3.428 3.428 0 0 0-.345 1.519z" class="cls-1" transform="translate(5935.087 1966.676)"/>
            <path id="패스_14346" d="M178.679 971.367c0 .231-.007.455-.02.673s-.032.456-.057.712a14.852 14.852 0 0 1 3.136 2.444 15.784 15.784 0 0 1 3.732 6.118 13.33 13.33 0 0 1 .635 3.059h-3.117a10.935 10.935 0 0 0-5.31-7.773 15.752 15.752 0 0 1-1.635 2.925 14 14 0 0 1-2.271 2.5 13.326 13.326 0 0 1-2.846 1.885 12.2 12.2 0 0 1-3.329 1.078v-3.078a8.922 8.922 0 0 0 5.31-3.828 12.65 12.65 0 0 0 1.693-6.753v-4.117h4.08zm.038 29.819a6.887 6.887 0 0 1-1.885-.251 4.546 4.546 0 0 1-1.539-.749 3.563 3.563 0 0 1-1.039-1.289 4.139 4.139 0 0 1-.384-1.828v-9.2h21.085v13.313zm-.962-4.578q0 1.422 2.04 1.423h11.273v-6.965h-13.314zm17.2-19.931v8.657h-3.886V966.1h3.886v7.387h5.579v3.194z" class="cls-1" transform="translate(5927.356 1966.174)"/>
            <path id="패스_14347" d="M216.17 966.7h22.009v3.155h-18.122v2.77h17.776v3.155h-17.776v1.847a1.317 1.317 0 0 0 .288.9 1.432 1.432 0 0 0 1.1.328h16.93v3.194h-9.235v3.193h14.005v3.158h-31.976v-3.155h14.082v-3.195h-5.04a4.364 4.364 0 0 1-2.943-.943 3.627 3.627 0 0 1-1.1-2.905zm3.771 23.778v5.848a1.378 1.378 0 0 0 1.578 1.54h17.892v3.154H220.4a4.577 4.577 0 0 1-3.1-1.077 3.986 3.986 0 0 1-1.25-3.194v-6.272z" class="cls-1" transform="translate(5919.465 1966.065)"/>
        </g>
    </g>
</svg>
