<svg xmlns="http://www.w3.org/2000/svg" width="104" height="92" viewBox="0 0 104 92">
    <defs>
        <style>
            .cls-1{fill:#fff}
        </style>
    </defs>
    <g id="logo_3" transform="translate(-1842.947 -1364.038)">
        <g id="그룹_6709">
            <path id="패스_137" d="M1891.7 1373.038h-4.248v3.588h-13v7.47h4.205v-3.811h22.081v3.811h4.219v-7.47H1891.7z" class="cls-1" transform="translate(5.127)"/>
            <path id="패스_138" d="M1861.42 1392.425h7.815v-3.839h-7.822v-8.711l9.293.007v-3.839H1844.7v3.839h12.508v21.363h-4.873v-15.22h-4.2v15.22h-5.188v3.832h29.472v-3.832h-11.008z" class="cls-1" transform="translate(0 .489)"/>
            <path id="패스_139" d="M1863.5 1432.165c0-.5-.093-.812-.279-.954a1.928 1.928 0 0 0-1.047-.2h-10.356v4.535h11.682zm.818-14.439c0-.5-.086-.818-.28-.953a1.9 1.9 0 0 0-1.048-.2h-12.29v3.9h13.613zm-1.514 11.281c2.045 0 3.071.883 3.071 2.634v5.906h-16.441v-8.54zm-14.481-6.538v-7.9h15.177a3.55 3.55 0 0 1 2.325.7 2.4 2.4 0 0 1 .875 2v5.195zm20.194 16.3a1.452 1.452 0 0 0 .9-.23c.194-.143.287-.473.287-.962v-9.472a1.165 1.165 0 0 0-.323-.975 1.827 1.827 0 0 0-1.091-.244h-22.5v13.585h-2.375v-15.623h25.461a3.521 3.521 0 0 1 2.325.717 2.51 2.51 0 0 1 .875 2.017v10.1a2.714 2.714 0 0 1-.889 2.3 3.309 3.309 0 0 1-2.009.667h-2.3v-1.886zm3.939-26.207h-29.508v-2.038h13.506v-3.05h2.49v3.05h13.513z" class="cls-1" transform="translate(0 5.604)"/>
            <path id="패스_140" d="M1926 1392.675h7.75v-3.667H1926v-7.3h-4.205v7.3l-7.133.007v3.66h7.133v9.343h-9.516v3.659h24.062v-3.659H1926zm-.366-16.161v-3.473h-4.24v3.473h-12.508v10.764c0 .99-.007 1.852-.036 2.583s-.086 1.529-.179 2.432a57.662 57.662 0 0 1-.941 6.388c-.444 2.016-1 4.147-1.65 6.379l-.065.23 4.04.975.065-.193c.315-1.047.616-2.139.911-3.273s.56-2.26.8-3.358.437-2.153.616-3.136c.187-1.02.309-2.656.388-3.452.05-.466.093-.911.107-1.328.036-.416.058-.832.072-1.256s.036-.89.036-1.364v-8.733h23.63v-3.66z" class="cls-1" transform="translate(10.261 .001)"/>
            <path id="패스_141" d="M1895.885 1400.632a1.221 1.221 0 0 1-.918.3 1.8 1.8 0 0 1-.251-.021h-11.655v-3.531h13.047v2.289c.007.079.007.143.007.208a1.084 1.084 0 0 1-.229.753m-12.831-15.7h11.525v1.1a2.67 2.67 0 0 1-.315 1.442 1.469 1.469 0 0 1-1.105.353c-.079 0-.15 0-.243-.007h-9.861zm17.13 15.7v-6.882h-.373l-16.757-.014v-2.355h11.4a4.284 4.284 0 0 0 3.172-1.1 4.421 4.421 0 0 0 1.034-3.115c0-.079 0-.179-.007-.258v-5.64h-19.7v23.286h17.194a4.182 4.182 0 0 0 3.158-1.063 3.651 3.651 0 0 0 .882-2.618v-.244" class="cls-1" transform="translate(5.857 1.34)"/>
            <path id="패스_142" d="M1914.812 1431.7a24.985 24.985 0 0 0 4.054-1.283 13.888 13.888 0 0 0 3.452-2.081l1.557 1.32a18.621 18.621 0 0 1-3.767 2.21 19.473 19.473 0 0 1-5.3 1.507zm-1.773 3.861a20.821 20.821 0 0 0 3.222-.5 28.775 28.775 0 0 0 3.488-1.083 34.072 34.072 0 0 0 3.423-1.529 17.073 17.073 0 0 0 2.977-1.88l1.558 1.321a19.118 19.118 0 0 1-2.649 1.751 30.158 30.158 0 0 1-7.7 2.97 24.3 24.3 0 0 1-4.321.625zm-1.6 3.724a52.554 52.554 0 0 0 5.654-.789 50.987 50.987 0 0 0 5.2-1.349 34.079 34.079 0 0 0 4.563-1.844 23.09 23.09 0 0 0 3.674-2.246l1.565 1.312a21.625 21.625 0 0 1-3.222 2.082 33.363 33.363 0 0 1-4.672 2.052 43.118 43.118 0 0 1-5.913 1.637 40.314 40.314 0 0 1-6.853.811zm5.138-25.511h-2.224v-1.952h-7.406v-1.909h7.406v-1.708h2.224v1.708h10.068v-1.708h2.233v1.708h7.728v1.909h-7.728v1.916h-2.233v-1.916h-10.068zm2.267 10.592c-.136-.194-.279-.381-.416-.581s-.294-.4-.466-.617l-11.273 1.371v-1.9l1.421-.143 3.258-4.6 1.773 1.02-2.613 3.373 6.329-.6c-.158-.193-.309-.38-.474-.566a7.153 7.153 0 0 0-.516-.581l1.493-1.056c.193.187.416.439.674.747s.516.64.8.99.538.7.81 1.07c.251.351.489.674.7.989zm2.7-1.414a4.544 4.544 0 0 0 .531.516q.28.227.6.516v-1.284l1.027-.1 2.662-3.408c-.122-.158-.244-.323-.359-.5s-.244-.33-.359-.5l-11.23.99v-1.909l1.242-.072 2.842-3.932 2.016.71-2.446 3.079 6.444-.352c-.186-.237-.387-.473-.6-.71s-.43-.473-.639-.71l1.421-1.127c.186.179.423.438.7.753s.567.674.868 1.048.588.762.869 1.134.516.725.71 1.027l-.459.4 1.378.774-2.584 3.043 5.993-.6c-.194-.237-.373-.446-.531-.631-.172-.2-.308-.373-.43-.538l1.485-1.1c.187.187.416.452.7.776s.552.7.833 1.084.574.783.853 1.177.525.717.74 1l-1.557 1c-.144-.194-.3-.394-.446-.609s-.323-.439-.516-.676l-10 1.307c.789.624 1.651 1.24 2.612 1.865a26.047 26.047 0 0 0 3.093 1.737 30.192 30.192 0 0 0 3.566 1.421 24.348 24.348 0 0 0 3.947.941v1.779a36.281 36.281 0 0 1-4.068-.925 32.7 32.7 0 0 1-4.062-1.478 26.8 26.8 0 0 1-3.724-1.988 22.556 22.556 0 0 1-3.129-2.382 25.6 25.6 0 0 1-3.28 2.353 32.042 32.042 0 0 1-3.738 1.923 39.484 39.484 0 0 1-3.968 1.421 34.206 34.206 0 0 1-4.04.961v-1.844a30.689 30.689 0 0 0 4.959-1.27 31.554 31.554 0 0 0 4.183-1.83 28.247 28.247 0 0 0 3.366-2.11 19.967 19.967 0 0 0 2.518-2.159" class="cls-1" transform="translate(10.342 5.722)"/>
            <path id="패스_143" d="M1898.573 1418.846a16.037 16.037 0 0 0-1.22-1.126 10.267 10.267 0 0 0-1.414-1l1.055-1.45a10.318 10.318 0 0 1 1.421.991c.466.4.868.776 1.206 1.106zm-2.814 7.744v2.525h5.017v-1.736c0-.38-.065-.611-.2-.683a1.325 1.325 0 0 0-.6-.107zm5.3-7.391v-3.5a.855.855 0 0 0-.216-.646 1.244 1.244 0 0 0-.876-.215h-5.4v4.357h-2.059v-6.129h7.534a3.748 3.748 0 0 1 2.233.6 2.146 2.146 0 0 1 .832 1.859v3.674zm-8.655-9.66h10.786v1.917h-10.786zm-5.152 19.576h6.458v-2.525h-6.458zm0-4.391h6.458v-2.024h-6.458zm-2.993-5.741a13.644 13.644 0 0 0-1.22-1.134 11.522 11.522 0 0 0-1.414-.962l1.048-1.507a7.962 7.962 0 0 1 1.407.991c.451.394.86.76 1.191 1.1zm-3.925 5.741h4.865v-2.024h-4.865zm0 2.124c0 .373-.022.76-.036 1.134-.029.366-.065.746-.108 1.134h5v-2.525h-4.858zm6.416-7.649v-3.5a.831.831 0 0 0-.223-.646 1.223 1.223 0 0 0-.869-.215h-5.439v4.357h-2.052v-6.129h7.57a3.76 3.76 0 0 1 2.232.6 2.145 2.145 0 0 1 .833 1.859v3.674zm-8.691-9.66h10.815v1.917h-10.815zm3.244 28.338v-6.9h-1.403a20.041 20.041 0 0 1-.853 2.878 15.932 15.932 0 0 1-1.256 2.591 10.54 10.54 0 0 1-1.715 2.167 9.808 9.808 0 0 1-2.16 1.6v-2.167a11.14 11.14 0 0 0 3.172-4.578 18.026 18.026 0 0 0 1.12-6.624v-6.028h11.352v-2.525h2.267v2.525h12.694v1.873h-8.762v2.031h4.622a3.042 3.042 0 0 1 1.945.459 1.921 1.921 0 0 1 .545 1.514v4.284h-8.877v3.466a27.834 27.834 0 0 0 3.316-.9 14.636 14.636 0 0 0 2.928-1.3l.939 1.658a8.044 8.044 0 0 1-1.371.776 16.919 16.919 0 0 1-1.794.688c-.631.2-1.3.373-1.994.525s-1.371.244-2.024.315a1.876 1.876 0 0 0 .452 1.228 1.984 1.984 0 0 0 1.342.358h4.477a1.489 1.489 0 0 0 1.156-.337 1.757 1.757 0 0 0 .287-1.134v-1.414h2.1v1.766a3.282 3.282 0 0 1-.724 2.274 3.17 3.17 0 0 1-2.418.8h-5.475a3.03 3.03 0 0 1-2.526-.976 4.588 4.588 0 0 1-.754-2.849v-4.945h-8.511v2.131h6.746v1.837h-6.746v2.6l7.176-1v1.837l-11.97 1.945v-2.045z" class="cls-1" transform="translate(5.039 5.938)"/>
        </g>
    </g>
</svg>
