<svg xmlns="http://www.w3.org/2000/svg" width="200" height="92" viewBox="0 0 200 92">
    <defs>
        <style>
            .cls-1{fill:#fff}
        </style>
    </defs>
    <g id="logo_8" transform="translate(-45.92 -104.973)">
        <g id="그룹_6713">
            <g id="그룹_475" transform="translate(103.578 134.973)">
                <g id="그룹_474">
                    <g id="그룹_473">
                        <path id="패스_194" d="M110.793 136.372a11 11 0 1 0 10.763 11 10.867 10.867 0 0 0-10.763-11m0 17.436c-3.284 0-5.736-2.842-5.736-6.436s2.452-6.434 5.736-6.434 5.736 2.844 5.736 6.434-2.452 6.436-5.736 6.436" class="cls-1" transform="translate(-100.074 -134.883)"/>
                        <path id="패스_195" d="M133.679 144.839h-5.26v-9.865H123.6v31.186h4.82v-16.5h5.26z" class="cls-1" transform="translate(-98.552 -134.973)"/>
                        <path id="패스_196" d="M164.336 144.839v-9.865h-4.821v31.186h4.821v-21.321z" class="cls-1" transform="translate(-96.228 -134.973)"/>
                        <path id="패스_197" d="M146.681 136.372a11 11 0 1 0 10.763 11 10.866 10.866 0 0 0-10.763-11m0 17.436c-3.284 0-5.734-2.842-5.734-6.436s2.451-6.434 5.734-6.434 5.734 2.844 5.734 6.434-2.45 6.436-5.734 6.436" class="cls-1" transform="translate(-97.752 -134.883)"/>
                        <path id="패스_198" d="M196.108 134.973v9.945h-3.227v-9.945h-4.4v31.187h4.4v-16.327h3.227v16.327h4.4v-31.187z" class="cls-1" transform="translate(-94.354 -134.973)"/>
                        <path id="패스_199" d="M169.142 141.669h2.335v11.321h-2.335v4.062h18.566v-4.062h-2.694v-11.321h2.31v-4.107h-18.182zm7.075 0h4.21v11.32h-4.21z" class="cls-1" transform="translate(-95.605 -134.806)"/>
                        <path id="패스_200" d="M225.842 161.676h9.865v-4.821h-31.941v4.821h22.076z" class="cls-1" transform="translate(-93.365 -133.557)"/>
                        <path id="패스_201" d="M225.4 145.238a11.985 11.985 0 0 1-3.314-8.615H217.2a12.137 12.137 0 0 1-2.761 8.064 15.9 15.9 0 0 1-9.231 5.659l2.511 3.814a21.736 21.736 0 0 0 7.281-3.68 14.055 14.055 0 0 0 4.74-5.568 14.452 14.452 0 0 0 4.832 5.66 21.728 21.728 0 0 0 7.042 3.589l2.463-3.814a15.278 15.278 0 0 1-8.675-5.108" class="cls-1" transform="translate(-93.272 -134.866)"/>
                    </g>
                </g>
            </g>
            <g id="그룹_478" transform="translate(45.92 135.197)">
                <g id="그룹_477" transform="translate(0 9.922)">
                    <g id="그룹_476" transform="translate(0 6.207)">
                        <path id="사각형_218" d="M0 0H4.676V1.627H0z" class="cls-1" transform="rotate(-80.64 8.538 -4.213)"/>
                        <path id="사각형_219" d="M0 0H4.676V1.63H0z" class="cls-1" transform="rotate(-3.488 138.548 4.219)"/>
                        <path id="사각형_220" d="M0 0H1.628V5.357H0z" class="cls-1" transform="rotate(-30.54 3.084 -5.325)"/>
                    </g>
                    <path id="패스_202" d="M71.493 145.1v-.6h4.755v.593a13.262 13.262 0 0 0 13.508 13.3h.594v4.756h-.594A17.966 17.966 0 0 1 71.493 145.1z" class="cls-1" transform="translate(-44.265 -144.502)"/>
                    <path id="패스_203" d="M75.006 156.843l-12.714 6.733-2.332-4.143 12.711-6.733z" class="cls-1" transform="translate(-45.011 -143.972)"/>
                    <path id="패스_204" d="M95.222 165.6l-.553.044c-.017 0-.111.01-.26.01a4.8 4.8 0 0 1-3.147-1.086 3.57 3.57 0 0 1-1.115-2.283l-2.1.017-.036-4.746 7.145-.056z" class="cls-1" transform="translate(-43.196 -143.661)"/>
                    <path id="패스_205" d="M54.09 158.689a4.955 4.955 0 0 1 3.508-.675 3.559 3.559 0 0 1 2.068 1.476l1.837-1.011 2.292 4.157-6.256 3.449-3.914-7.093z" class="cls-1" transform="translate(-45.421 -143.635)"/>
                </g>
                <path id="패스_206" d="M73.694 138.874a3.7 3.7 0 0 0-.407-.023 2.547 2.547 0 0 0-.44.045 2.513 2.513 0 0 0-2.01 2.52 2.551 2.551 0 0 0 2.244 2.395 10.521 10.521 0 0 0 2.193.052 12.82 12.82 0 0 0 9.33-5.1.206.206 0 0 0-.018-.267l-3.286-3.258a.2.2 0 0 0-.3.037c-.119.182-.244.361-.376.536a7.847 7.847 0 0 1-2.852 2.368 7.671 7.671 0 0 1-2.626.715 7.483 7.483 0 0 1-.927.027c-.181-.006-.353-.029-.525-.047z" class="cls-1" transform="translate(-44.308 -135.183)"/>
            </g>
        </g>
    </g>
</svg>
