<svg xmlns="http://www.w3.org/2000/svg" width="163" height="92" viewBox="0 0 163 92">
    <defs>
        <style>
            .cls-1{fill:#fff}
        </style>
    </defs>
    <g id="logo_2" transform="translate(0 27)">
        <g id="그룹_6708">
            <path id="패스_140" d="M143.686 48.455a10.141 10.141 0 0 1 .654-3.66 9.183 9.183 0 0 1 1.794-2.943 8.341 8.341 0 0 1 2.721-1.963 8.559 8.559 0 0 1 6.507-.143 8.36 8.36 0 0 1 2.544 1.6 8.806 8.806 0 0 1 1.872 2.432 9.237 9.237 0 0 1 .985 3.047h4.415v-11h2.522v36.26h-2.527V49.067h-4.336a10.529 10.529 0 0 1-.789 3.435 8.741 8.741 0 0 1-1.813 2.759 8.352 8.352 0 0 1-12.106-.2 9.164 9.164 0 0 1-1.794-2.943 10.125 10.125 0 0 1-.649-3.663zm2.526 0a8.6 8.6 0 0 0 .417 2.7 6.938 6.938 0 0 0 1.2 2.248 5.793 5.793 0 0 0 1.911 1.551 5.938 5.938 0 0 0 5.087 0 5.8 5.8 0 0 0 1.912-1.551 7.075 7.075 0 0 0 1.2-2.248 8.979 8.979 0 0 0 0-5.379 7.043 7.043 0 0 0-1.2-2.266 5.856 5.856 0 0 0-1.912-1.557 5.946 5.946 0 0 0-5.087 0 5.853 5.853 0 0 0-1.911 1.557 6.909 6.909 0 0 0-1.2 2.266 8.649 8.649 0 0 0-.417 2.679zm26.026-12.8h2.56v36.678h-2.56z" class="cls-1" transform="translate(-143.686 -35.656)"/>
            <path id="패스_141" d="M182.243 62.692h31.975v2.236h-31.975zm7.53-24.469v5.812h16.913v-5.812h2.561V56.31h-17.9a4.544 4.544 0 0 1-2.922-.975 3.926 3.926 0 0 1-1.218-3.25V38.223zm0 13.982a1.644 1.644 0 0 0 1.851 1.871h15.063V46.23h-16.914z" class="cls-1" transform="translate(-148.41 -35.986)"/>
            <path id="패스_142" d="M248.527 72.333h-2.562V59.125a13.357 13.357 0 0 1-3.688 1.454 19.491 19.491 0 0 1-4.87.592H226.6a4.508 4.508 0 0 1-2.916-.982 3.95 3.95 0 0 1-1.225-3.271v-8.995H235.2v-7.565h-12.736V38.11h15.3v10.019q0 1.959-1.693 1.961h-11.04v6.954a1.648 1.648 0 0 0 1.852 1.878h10.526a18.9 18.9 0 0 0 4.99-.573 16.839 16.839 0 0 0 3.568-1.388v-21.3h2.562z" class="cls-1" transform="translate(-153.359 -35.656)"/>
            <path id="패스_143" d="M263.438 61.171a4.53 4.53 0 0 1-2.923-.982 3.961 3.961 0 0 1-1.219-3.271V38.11h15.494v2.247h-12.931v7.4h12.5v2.169h-12.5v7.116a1.648 1.648 0 0 0 1.849 1.878h9.35a18.885 18.885 0 0 0 4.985-.573 16.829 16.829 0 0 0 3.569-1.388v-21.3h2.562V48h6.191v2.247h-6.191v22.08h-2.562V59.125a13.381 13.381 0 0 1-3.685 1.454 19.5 19.5 0 0 1-4.869.592z" class="cls-1" transform="translate(-157.856 -35.656)"/>
            <path id="패스_144" d="M297.8 44.57a8.78 8.78 0 0 1 .634-3.352 7.821 7.821 0 0 1 1.757-2.676 8.241 8.241 0 0 1 2.66-1.781 9.069 9.069 0 0 1 6.762 0 8.224 8.224 0 0 1 2.679 1.781 7.873 7.873 0 0 1 1.752 2.676 9.174 9.174 0 0 1 0 6.7 7.949 7.949 0 0 1-1.752 2.678 8.247 8.247 0 0 1-2.679 1.779 9.057 9.057 0 0 1-6.762 0 8.265 8.265 0 0 1-2.66-1.779 7.9 7.9 0 0 1-1.757-2.678 8.781 8.781 0 0 1-.634-3.348zm2.525 0a7.073 7.073 0 0 0 .393 2.329 6.073 6.073 0 0 0 1.163 2.026 5.83 5.83 0 0 0 1.876 1.41 6.049 6.049 0 0 0 4.965 0 5.846 5.846 0 0 0 1.875-1.41 5.967 5.967 0 0 0 1.161-2.026 7.054 7.054 0 0 0 0-4.659 5.975 5.975 0 0 0-1.161-2.024 5.846 5.846 0 0 0-1.875-1.41 6.049 6.049 0 0 0-4.965 0 5.83 5.83 0 0 0-1.876 1.41 6.083 6.083 0 0 0-1.163 2.024 7.063 7.063 0 0 0-.395 2.33zm8.833 28.086a3.682 3.682 0 0 1-4.139-4.207V58.8H325.6v13.856zm-1.58-4.086a1.843 1.843 0 0 0 .492 1.43 2.013 2.013 0 0 0 1.4.451h13.561v-9.445h-15.456zm15.455-12.67V35.656h2.567V55.9z" class="cls-1" transform="translate(-162.598 -35.656)"/>
        </g>
    </g>
</svg>
