<svg xmlns="http://www.w3.org/2000/svg" width="98" height="92" viewBox="0 0 98 92">
    <defs>
        <style>
            .cls-1{fill:#fff}
        </style>
    </defs>
    <g id="logo_1" transform="translate(0 27)">
        <g id="그룹_6707">
            <path id="패스_137" d="M1218.791 407.754a6.1 6.1 0 0 1 1.419 3.887 6.186 6.186 0 0 1-1.754 4.369 8.376 8.376 0 0 1-4.663 2.418v1.742h13.5v3.13h-30.877v-3.134h13.526v-1.742a8.206 8.206 0 0 1-2.634-.877 7.915 7.915 0 0 1-2.028-1.529 6.588 6.588 0 0 1-1.315-2.021 6.185 6.185 0 0 1-.121-4.4 7.183 7.183 0 0 1 1.021-1.845h-4.674v-3.082h9.637v-3.139h4.051v3.139h9.678v3.084zm-15.535 24.036a6.36 6.36 0 0 1 .644-2.812 6.792 6.792 0 0 1 1.813-2.26 8.421 8.421 0 0 1 2.715-1.49 10.3 10.3 0 0 1 3.4-.534 10.484 10.484 0 0 1 3.422.534 8.2 8.2 0 0 1 2.716 1.49 6.766 6.766 0 0 1 1.786 2.26 6.419 6.419 0 0 1 0 5.627 6.754 6.754 0 0 1-1.786 2.26 8.256 8.256 0 0 1-2.716 1.491 10.558 10.558 0 0 1-3.422.533 10.372 10.372 0 0 1-3.4-.533 8.477 8.477 0 0 1-2.715-1.491 6.78 6.78 0 0 1-1.813-2.26 6.354 6.354 0 0 1-.645-2.814zm3.778 0a3.2 3.2 0 0 0 .37 1.512 4.085 4.085 0 0 0 1.024 1.243 5.228 5.228 0 0 0 1.512.857 5.679 5.679 0 0 0 3.754 0 5.223 5.223 0 0 0 1.542-.857 4.106 4.106 0 0 0 1.018-1.243 3.219 3.219 0 0 0 .373-1.512 3.259 3.259 0 0 0-.373-1.545 4.046 4.046 0 0 0-1.018-1.244 4.678 4.678 0 0 0-1.542-.837 6 6 0 0 0-3.754 0 4.666 4.666 0 0 0-1.512.837 4.026 4.026 0 0 0-1.024 1.244 3.238 3.238 0 0 0-.37 1.546zm.192-20.149a3.44 3.44 0 0 0 1.321 2.758 4.975 4.975 0 0 0 3.283 1.093 5.064 5.064 0 0 0 3.307-1.093 3.416 3.416 0 0 0 1.337-2.758 3.455 3.455 0 0 0-.354-1.548 3.554 3.554 0 0 0-.984-1.207 5.092 5.092 0 0 0-1.478-.791 5.8 5.8 0 0 0-3.655 0 4.767 4.767 0 0 0-1.457.791 3.605 3.605 0 0 0-.962 1.207 3.422 3.422 0 0 0-.359 1.549z" class="cls-1" transform="translate(-1196.413 -401.531)"/>
            <path id="패스_138" d="M1235.78 420.723a10.9 10.9 0 0 0-1.647-4.922 11.655 11.655 0 0 0-3.227-3.291 13.822 13.822 0 0 1-1.475 2.954 13.313 13.313 0 0 1-2.2 2.558 12.756 12.756 0 0 1-2.9 1.949 13.476 13.476 0 0 1-3.535 1.152v-3.176a9.082 9.082 0 0 0 5.268-3.695 11.986 11.986 0 0 0 1.689-6.626v-4.091h4.058v4.129c0 .265-.013.523-.024.779s-.036.505-.056.768a15.617 15.617 0 0 1 5.444 5.019 14.884 14.884 0 0 1 1.594 3.2 11.492 11.492 0 0 1 .667 3.292zm-3.653 16.824a6.577 6.577 0 0 1-1.87-.257 4.783 4.783 0 0 1-1.533-.751 3.448 3.448 0 0 1-1.024-1.274 4.207 4.207 0 0 1-.374-1.845v-9.208h20.928v13.335zm-.947-4.6q0 1.428 2.046 1.425h11.168v-6.982h-13.214zm17.074-20.116v8.849h-3.859v-19.293h3.859v7.263h5.586v3.177z" class="cls-1" transform="translate(-1186.825 -401.209)"/>
            <path id="패스_139" d="M1260.871 419.573a19.226 19.226 0 0 0-1.7-3.851 12.8 12.8 0 0 0-2.672-3.336 13.222 13.222 0 0 1-1.591 2.641 12.883 12.883 0 0 1-2.222 2.241 14.405 14.405 0 0 1-2.777 1.7 13.1 13.1 0 0 1-3.244 1.035v-3.18a10.285 10.285 0 0 0 2.777-1.267 9.114 9.114 0 0 0 3.7-4.758 10.676 10.676 0 0 0 .528-3.417v-.752h-6.413v-3.175h16.833v3.175h-6.45v.752a10.268 10.268 0 0 1-.117 1.588 20.01 20.01 0 0 1 2.775 2.518 19.642 19.642 0 0 1 2.064 2.724 18.007 18.007 0 0 1 1.413 2.755 20.958 20.958 0 0 1 .868 2.6zm-4.565 10.194a7.894 7.894 0 0 1 .67-3.273 7.745 7.745 0 0 1 1.871-2.583 8.813 8.813 0 0 1 2.814-1.7 9.82 9.82 0 0 1 3.493-.616 10.045 10.045 0 0 1 3.531.616 8.92 8.92 0 0 1 2.826 1.7 7.741 7.741 0 0 1 1.87 2.583 8.309 8.309 0 0 1 0 6.526 7.677 7.677 0 0 1-1.87 2.6 8.829 8.829 0 0 1-2.826 1.708 9.86 9.86 0 0 1-3.531.612 9.64 9.64 0 0 1-3.493-.612 8.723 8.723 0 0 1-2.814-1.708 7.68 7.68 0 0 1-1.871-2.6 7.924 7.924 0 0 1-.67-3.253zm3.82 0a5.031 5.031 0 0 0 .371 1.943 5.085 5.085 0 0 0 1.024 1.592 4.47 4.47 0 0 0 1.573 1.045 5.766 5.766 0 0 0 4.111 0 4.668 4.668 0 0 0 1.614-1.045 4.936 4.936 0 0 0 1.04-1.592 5.315 5.315 0 0 0 0-3.911 4.98 4.98 0 0 0-1.04-1.567 4.757 4.757 0 0 0-1.614-1.049 5.766 5.766 0 0 0-4.111 0 4.554 4.554 0 0 0-1.573 1.049 5.133 5.133 0 0 0-1.024 1.567 5.028 5.028 0 0 0-.372 1.968zm10.736-8.884v-8.615h-6.962v-3.174h6.961v-6.708h3.855v18.5z" class="cls-1" transform="translate(-1176.717 -401.209)"/>
        </g>
    </g>
</svg>
