<svg xmlns="http://www.w3.org/2000/svg" width="115" height="92" viewBox="0 0 115 92">
    <g fill="#fff">
        <path d="M-357.631 690.1a6.338 6.338 0 0 1-2.606-.988c-.035-.048-.089-.081-.093-.161-.048 0-.12-.017-.127.031a2.289 2.289 0 0 0-.759-.614c-.01-.287-.2-.392-.411-.482-.063-.11-.056-.284-.25-.265.073-.215-.345-.334-.216-.6a.886.886 0 0 1-.28-.807c0-.077-.105-.059-.19-.059.168-.075.037-.171-.059-.227a1.163 1.163 0 0 0-.027-.7.342.342 0 0 1 .131-.13.757.757 0 0 1-.062-.188 5.688 5.688 0 0 1 .432-1.238 1.236 1.236 0 0 0 .325-.479 9.73 9.73 0 0 1 2.523-2.93 2.337 2.337 0 0 0 .81-.725c.034-.284.367-.531.226-.453-.52-.211-.739.31-1.187.371a.1.1 0 0 1-.124-.048.1.1 0 0 0-.1-.05c-.516.259-1.02.18-1.506.46a2.068 2.068 0 0 0-.286-.069 9.643 9.643 0 0 1-1.507.522 3.077 3.077 0 0 1-.9.375c-.6.557-1.692.662-2.344 1.084.013-.05-.023-.056-.064-.062-.193.038-.263.112-.476.058-.075-.018-.049.06-.1.06-.645.137-1.331.117-1.949.3-.087.027-.162.13-.258.156-.214.073-.454.053-.672.12-.327.107.035.107-.285.209a22.561 22.561 0 0 0-2.888 1.112 3.483 3.483 0 0 0-1.222.66 11.983 11.983 0 0 1-3.167.473 3.741 3.741 0 0 0-.608.034 3.259 3.259 0 0 1-.843.018 2.2 2.2 0 0 1-1.334-.56h-.158c-.343-.437-.968-.591-1.263-1.068a.224.224 0 0 0-.163-.033 7.453 7.453 0 0 0-.69-.769c.06-.13-.071-.216-.126-.324a3.732 3.732 0 0 1 .874-2.724 2.313 2.313 0 0 0 1.332-.54c0 .072.054.088.027.189a7.035 7.035 0 0 1 2.153-.2c-.011.07.006.12.062.131-.113.019-.121.146-.132.191.005.118.313.421.365.5-.052.526.414.6.916.682.027-.007-.028.008-.106.033a6.8 6.8 0 0 0 1.638-.55 1.8 1.8 0 0 1 .758-.034 1.319 1.319 0 0 0 .743-.061.746.746 0 0 1 .61-.253c.085 0 .031-.156.1-.184a1.74 1.74 0 0 0 .992-.278.208.208 0 0 1 .157.033 15.568 15.568 0 0 1 2.818-.881c.195-.053.6-.2.832-.242a.691.691 0 0 1 .236 0 .742.742 0 0 0 .213 0c.1-.018.148-.088.221-.09a.971.971 0 0 1 .209.012.426.426 0 0 0 .433-.1 1.225 1.225 0 0 0 .7-.216c1.842-.568 2.854-1.986 4.221-3.04a7.854 7.854 0 0 0 .877-1.263c.059-.514.374-.948.433-1.622.122-.334.411-.886.273-1.177a1.069 1.069 0 0 0 .008-.832 3.767 3.767 0 0 0-.729-.582c-.008-.555-.735-.415-.785-.932a.788.788 0 0 0-.319-.1 1.237 1.237 0 0 1-.154-.577c-.189-.2-.48-.471-.4-.828a.546.546 0 0 1-.19-.227c.074-.122.055-.16 0-.293-.084.1-.047.045-.04-.005s-.006-.071-.086-.056c-.09-.425-.122-1.041-.174-1.466-.022-.191-.131-.33 0-.481a2.409 2.409 0 0 1-.021-.859c0-.092.091-.079.129-.129a2.569 2.569 0 0 1 .3-1.335 29.809 29.809 0 0 1 1.555-4.448 14.116 14.116 0 0 1 .8-2.572c-.327.038-.426.456-.8.344-.236.232-.434.313-.614.594-.351.047-.4.215-.579.412-.08-.021-.112-.08-.159-.131-.1.216-.3.487-.642.341a.6.6 0 0 1-.545.215c-.038.013-.152.1-.067.129-.3.038-.393.287-.706.312-.3.308-.827.4-1.063.788-.229.053-.384.207-.607.116-.062.005-.023.11-.066.123a1.248 1.248 0 0 1-.918-.017 1.5 1.5 0 0 0-.581-.094c-.788-.176-1.062-.856-1.678-1.2-.088-.186-.169-.384-.408-.42a2.543 2.543 0 0 1-.591-1.411c-.036-.08-.143-.093-.256-.1-.112-.246-.368-.358-.5-.582a3.7 3.7 0 0 1 .007-.507.715.715 0 0 1 .191-.1c-.013-.117-.134-.372.1-.415.011-.083-.122-.026-.093-.131-.028-.1.1-.04.129-.094-.214-.545.633-.747 1.066-1a4.067 4.067 0 0 1 .546-.313v-.124c.638-.344 1.11-.868 1.768-1.192-.005-.036-.057-.029-.1-.033.312-.1.518-.314.838-.4-.01-.047-.011-.1-.042-.119.21.022.5-.079.525-.29a.5.5 0 0 0 .489-.15.525.525 0 0 1 .44-.162c0-.027-.037-.023-.063-.029.667-.315 1.222-.565 1.894-.838.063.028-.034.018-.032.063.183.031.029-.125.1-.156a8.316 8.316 0 0 1 1.313-.275c.148-.2.431-.169.608-.152.076-.009.022-.141-.03-.128.03-.088.118.028.126.066a14.374 14.374 0 0 1 4.792-.232c-.036.1.05.077.063.132a6.4 6.4 0 0 1 .925.165 7.112 7.112 0 0 1 3.786 1.1c-.042.124.118.079.029.161a1.3 1.3 0 0 1 .255.063c.013.084.1.1.1.194.462.088.62.364 1.017.552.026.28.112.5.341.579-.007.206.237.29.283.482.018.071-.026.149 0 .221.05.167.215.312.217.487 0 .378-.521.543-.429.946a2.043 2.043 0 0 0-.361.735 2.077 2.077 0 0 1-.673.275c-.437.328-.566.835-.941 1.261-.024 0-.029-.028-.062-.031a.791.791 0 0 1-.551.5c-.012.075.047.064.1.071a7.456 7.456 0 0 1-1 .91 1.4 1.4 0 0 1-.617.694c-.018.2-.131.576-.452.571-.014.254-.206.326-.386.406 0 .085.117.051.157.1-.168.014-.134.233-.324.218.122.17-.264.256-.388.383v.222a1.088 1.088 0 0 0 .8.231c.064.043.074.133.126.194h.253a.952.952 0 0 0 .666.553c.037.247.581.328.473.511.247.074.244.391.409.549.081 0 .035-.135.159-.091.006.13.167.209.032.22a1.8 1.8 0 0 1 .437.583c.037-.039.115-.036.191-.034a.739.739 0 0 0 .1 0c.029.078.107.107.091.223.319-.1.429.249.637.359.025-.059.206-.126.1-.219.168-.086.311.135.412.227.084.022.059-.065.093-.1.064.2.342.552.056.7.021.125.032.245.061.352-.166.193-.106.484-.232.667-.092.137-.087.065-.132.259-.023.09-.2.268-.259.378-.019.036.023.1.03.1-.027.054-.092.044-.129.1-.121.172-.131.429-.231.572-.087.121-.288.147-.354.315.013.025.026.057.066.058a9.863 9.863 0 0 1-4.859 2.943c.174.129.378.244.346.422a1.155 1.155 0 0 1 .665.517h.193c.075.274.421.334.6.544.049.061.033.176.092.224.01.011.038.007.065 0s.052-.008.063 0c.027.029.04.106.093.167a2.534 2.534 0 0 1 .409.573c.023.059-.05.1-.034.157a1.739 1.739 0 0 1 .151.675c-.031.264-.268.448-.265.792a4.34 4.34 0 0 1-.616.821.709.709 0 0 0-.488.506c-.157.143-.558.384-.292.665a3.664 3.664 0 0 0 1.119-.207c.054 0 .067-.04.08-.082s.026-.084.082-.082a.089.089 0 0 0 0 .129c.507-.09 3.732-.485 4.229-.593a.087.087 0 0 0 .062-.094c1.312.192 2.9-.026 3.9.6a3.02 3.02 0 0 1 1.462.559c.344.381 1.49 1.1.907 1.7.023.033.1.02.168.005.09-.018.18-.035.173.041.1.041-1.4.453-1.3.493-.12.308-3.071.122-3.149.471-.251.055-.93-.006-1.035.193-.389.045.057.422-.225.518.009.154-1.086.094-1.1.142-.274.2.193.308-.088.487a.98.98 0 0 1-.657.734c-.039.016.021.118-.128.09-.02.1.108.087.029.159-.582.622-1.285.84-1.925 1.408-.152-.124-.3.083-.479.12-.033.128.1.1.063.23a.267.267 0 0 1 .14.014.277.277 0 0 0 .145.017c-.026.09.046.081.032.157.107-.016.146.026.225.037 0 .092.059.153.187.188.1.246.154.523.376.648a1.035 1.035 0 0 0 .311.671c.106-.055.1-.2.036-.318.094.008.209.195.248.288a8.274 8.274 0 0 1 .4 1.793 1.563 1.563 0 0 0-.1.285c.008.034.035.021.035 0-.007.369-.364.992-.4 1.429a.343.343 0 0 0 .158.163c0 .227-.212.374-.135.633-.543.561-1.312.966-1.776 1.511a9.485 9.485 0 0 1-3.8 1.042zm-.8-5.21c-.206.367-.351 1.1.242 1.152-.087.094.007.2.028.289a5.89 5.89 0 0 0 1.624.242c.353-.128.961-.148 1.254-.5.191-.87.261-2.489-.506-3.1-.386-.07-.44.2-.705.252-.481.579-1.313.8-1.678 1.508h-.025c-.13.004-.131.133-.232.16zm-18.869-4.39l.059-.044c-.036.018-.059.034-.059.044zm14.029-4.791c.055-.022.221-.1.129-.155-.008.062-.192.119-.129.155zm3.992-10.7c-.029.183.169.263.284.29.621.142 1.352-.338 1.825-.36a2.537 2.537 0 0 1 1.027-.369 2.371 2.371 0 0 1 .868-.47c.122-.254.353-.4.329-.789.237-.261.109-1.042-.211-1.158.019-.262-.292-.63-.275-.991-.472-.154-.5-1.013-1.1-.843-.183.306-.307.662-.492.951.036.009.09 0 .1.035-.139.344-.549.565-.525.983-.166-.017-.154.031-.127.156h-.129c-.007.062.044.062.064.1-.507.159-.61.733-1.127.881-.011.266-.257.384-.135.576a1.032 1.032 0 0 0-.389.376c-.018.132.1.13.127.225-.069.063-.154.091-.261.187.012.073.063.133 0 .189a.186.186 0 0 0 .069 0h.042c.015-.006.039.001.036.032zm30.08 22.949c-.151.037-.221-.034-.305-.128-.444.213-.674-.145-1.116-.314a9.706 9.706 0 0 1-1.436-3.7.086.086 0 0 0 .1-.054c-.129-.035-.253-.476-.1-.453-.026-.053-.041-.109-.12-.113a9.322 9.322 0 0 1-.177-2.1 11.413 11.413 0 0 1-.1-2.418 18.066 18.066 0 0 1 .926-3.983c.043-.022.067-.074.132-.079a5.2 5.2 0 0 1 .99-2.012c.09.043-.043.08-.04.125.308-.084.306.406.207.657.2-.085.183-.269.278-.35-.033.145.036.2.006.35.007.04.091.048.1.009.1.063-.014.309.1.361-.13.2.085.536-.137.709.187.582-.2 1.153-.156 1.884a.169.169 0 0 0 .086.107c.2-.026.146-.333.337-.312.264-.469.822-.449 1.107-.676.216-.174.477-.258.571-.542.14-.011.63-.107.589-.31.062.006.126.017.191.021.258-.2.6-.3.854-.508.21.027.551 0 .646-.214a1.672 1.672 0 0 0 1.156-.218c-.167-.317-.057-1.016-.348-1.431a4.544 4.544 0 0 0-.19-1 10.327 10.327 0 0 0-.09-1.052c-.006-.536.032-1.063.082-1.673a2.912 2.912 0 0 1 .067-1c-.315-1.471.152-3.434.327-4.995.012-.138.006-.623.028-.918a3.7 3.7 0 0 1 .1-1.067c-.062-.154-.05-.477.067-.559-.153-.475.088-1-.024-1.555-.016-.1.09-.052.075-.152a9.321 9.321 0 0 1-.072-1.6 12.612 12.612 0 0 0-.394-3.36c.08-.408-.236-.879-.322-1.334-.054-.269-.01-.572-.04-.858-.045-.426-.36-.846-.135-1.313-.032-.068-.025-.178-.112-.2a2.284 2.284 0 0 0-.4-1.6c.139-.318-.038-.647-.032-.986.05-.043.179.016.163-.109a.752.752 0 0 0 .361-.021.965.965 0 0 1 .434-.018c.073.02.11.088.182.116.2.081.532.1.78.215a2.494 2.494 0 0 0 1.258.112 4.547 4.547 0 0 1 .793-.011c.351.04.667.394 1.024.272.352.213.917.01 1.014.458.124 0 .187.1.254 0 .079.07.215.289.338.131a2 2 0 0 1 .653.674 12.767 12.767 0 0 1-.1 2.52 4.849 4.849 0 0 0-.206 1.246c-.073.061.091.3.067.427-.008.062.022.1.09.1-.113.173-.028.376-.067.53.011.06.047.044.085.029a.1.1 0 0 1 .07-.01.662.662 0 0 0 .1.867c-.126 0-.111.166-.206.2.1.052-.124.033-.033.087-.116.361.159.677.241 1.075a.111.111 0 0 0-.089-.041.636.636 0 0 1 .028.448c.244.265.088.953.262 1.355-.265.458.128 1.183-.379 1.419.046.055.072.031.107.007a.118.118 0 0 1 .086-.024 2.926 2.926 0 0 1-.276 1.33c-.037.1.077.081.084.138a4.893 4.893 0 0 0-.2 1.117c-.128.1-.28.165-.253.451-.074-.147-.061.008-.16.015a1.868 1.868 0 0 1-.084 1.291.861.861 0 0 0-.1.083c-.093.309.027.761-.035 1.034-.034.15-.156.287-.184.425a2.922 2.922 0 0 1-.26 1.02c.106-.075.394-.214.471-.427.265.034.329-.172.434-.333a.683.683 0 0 0 .129.016 4.618 4.618 0 0 1 1.128-.827c.318-.425.99-.68 1.375-1.143.338-.025.686-.33 1.04-.456a1.556 1.556 0 0 0 .542-.114 1.493 1.493 0 0 1 1.084-.022.937.937 0 0 0 .206.183.867.867 0 0 1 .194-.043c.179.325.714.172.851.51a1.037 1.037 0 0 0 .319.022 1.575 1.575 0 0 1 .282.009.494.494 0 0 0 .167.372c.091-.129.179-.069.264-.164.061.016.056.089.088.133a1.87 1.87 0 0 1 .226-.07c.12.028.124.156.238.189s.155-.019.227-.041a1.567 1.567 0 0 1 1.049.843.155.155 0 0 1 .141.047.147.147 0 0 0 .14.047c0 .064-.03.093-.065.08a1.443 1.443 0 0 1 .584.675c-.022.061-.086.079-.163.079.179.016-.026.358.234.313.117.591-.166.792-.448 1.057a3.4 3.4 0 0 0-.279.38c-.017.021-.034-.064-.028-.065-.076.013-.149.243-.149.329-.124.049-.3.055-.3.252-.221.019-.435.288-.774.263-.061.054 0 .041-.011.126-.086.01-.058-.072-.12-.079a2.805 2.805 0 0 1-1 .306c-.094.008-.125.1-.2.133a2.19 2.19 0 0 0-.9.277 21.169 21.169 0 0 1-2.5.423c-.1.008-.119-.055-.182-.083a1.522 1.522 0 0 1-.738.078 1.642 1.642 0 0 0-1.02.171c-.112 0-.087-.11-.18-.116s-.09.053-.107.116a2.219 2.219 0 0 0-.818.1 2.28 2.28 0 0 1-.682.107c-.1.013.028.076-.007.125a.2.2 0 0 0-.126 0 .205.205 0 0 1-.128 0c-.073.083.014.135-.046.216a.272.272 0 0 0-.186-.049c-.026.109-.045.21-.263.157-.013.069 0 .121.055.132a.254.254 0 0 1-.285 0c-.054.025-.045.129-.076.182-.415.07-.577.443-.927.592-.063.15-.066.372-.243.388a.815.815 0 0 1-.161.517c.161.358.052.737.18 1.093-.108.062-.019.346-.18.334.054.1-.024.255.008.317 0 .064.139.018.123.107.056-.007.03-.12.127-.081.072.159.31.012.305.2.148-.122.363-.034.575.054.236.1.467.2.594 0 .093.131.336.139.323.356.126.032.125-.094.229-.094a.376.376 0 0 1 .08.224 1.17 1.17 0 0 0 .487.309c.11.008.146-.094.229-.1a1 1 0 0 1 .362.082c.205.071.411.142.5.007a4.231 4.231 0 0 1 .764.348c.135-.108.046-.026-.018.056s-.092.15.089.081c.585.191 1.492.1 2.064.354.9-.068 1.287.754 1.954 1.071a.659.659 0 0 0 .142.272c.033.393-.146.6-.153.9-.412.2-.454.844-.744 1.186-.127.024-.067-.1-.15-.114.15.238-.239.467-.076.69a1.393 1.393 0 0 0-.523.667c-.3-.081-.338.375-.561.417-.022.346-.28.414-.4.65a.915.915 0 0 0-.341-.067c-.015.017-.023.193-.13.076.005.214-.288.366-.409.433 0 .117.032.125-.015.218-.045.042-.123.031-.123-.044-.133.09-.294.331-.128.492a4.647 4.647 0 0 0 .6.068c.074.011.059.085.15.107a1.428 1.428 0 0 0 .246.01 1.291 1.291 0 0 1 .383.03c.116.064.1.189.209.215.1-.005.2-.017.225-.1.086-.008.117.027.09.11a1.522 1.522 0 0 1 .689.127 1.333 1.333 0 0 0 .722.12c.005.094.1.113.079.234.229-.006.244.167.293.318.092.073.235.1.206.272.074.01.145.016.219.026.164.258.205.626.587.7-.013.165.164.243.07.384.227.12.487.339.335.671-.257.032-.7-.01-.927.152-.127-.119-.283-.03-.4-.142-.1.029.036.127-.045.155a3.811 3.811 0 0 0-.792.043c-.226-.215-1.151.018-1.408-.287-1.584-.1-3.55-.421-5.113-.658a3.259 3.259 0 0 1-.6.063 1.539 1.539 0 0 1-.618.212c-.049.1-.216.2-.289.062-.15.185-.478.16-.594.381-.031-.024-.028-.076-.092-.076-.1.01-.045.083-.041.155-.12-.069-.306-.064-.293.123-.046-.048-.074-.027-.1-.005s-.051.044-.091-.013c-.094 0-.1.231-.2.136-.032.086.035.088.019.161-.056-.025-.051-.1-.149-.079.029.091-.261.029-.419.079-.127.035-.2.16-.328.187a3.207 3.207 0 0 1-.82-.028c-.088-.021-.2-.117-.309-.162-.4-.158-.891-.121-1.111-.41-.032-.41.08-1.083.428-1.249.005-.05.007-.1.015-.155.132.033.21-.088.29-.209s.174-.256.334-.2c.058-.057 0-.035.008-.125.321-.013.407-.337.756-.39.009-.163.1-.216.122-.368.577-.4.9-1.092 1.547-1.409a2.223 2.223 0 0 0 .11-.208.116.116 0 0 0 .12-.026c.04-.026.079-.053.131-.016a18.559 18.559 0 0 1 1.932-1.427c-.058-.365.259-.286.288-.54.182.111.213-.1.237-.2a.259.259 0 0 0-.251 0c-.088.033-.171.066-.254-.024-.244.214-.293 0-.353-.207-.054-.19-.117-.38-.341-.255-.073-.027-.143-.059-.149-.145-.123.01-.178.11-.232.2a1.03 1.03 0 0 0-.39-.031 1.191 1.191 0 0 1-.37-.02c-.043.026-.046.1-.1.117a2.918 2.918 0 0 1-.374.014 1.051 1.051 0 0 0-.487.074 9.482 9.482 0 0 0-1.107 0c-.492.017-.78.416-1.2.347-.343.13-.657.451-.936.308-.212.054-.439.23-.443.422-.039-.013-.043-.059-.089-.07a.181.181 0 0 1-.155.029c-.072-.01-.143-.02-.186.1a.554.554 0 0 0-.467.387c-.116-.052-.076-.237-.17-.3-.153.077-.168.361-.1.525a.915.915 0 0 0-.182.832c-.092.019-.124.1-.169.172.005.058.049.083.12.081-.065.156.049.346.032.478.009.047.055.01.065-.027.045.037.04.11.055.167 0 .07-.018.057-.04.042a.041.041 0 0 0-.061.006c.091.107.062.312.1.455-.069.013-.038-.061-.088-.07-.2.087.1.374-.062.434 0 .037.057.03.091.044-.005.124-.08.173-.113.272.007.03.021.021.041.013a.074.074 0 0 1 .055 0c-.114.23-.018.517-.05.758-.029.21-.185.417-.231.635-.254 1.174.028 2.18-.164 3.434a2.894 2.894 0 0 1-.605-.466zm9.845-26.175c0 .085-.041.194.086.17-.029-.059.01-.17-.085-.17zm24.706 24.19a2.314 2.314 0 0 1-.631-.005c-.113-.021-.27-.125-.411-.167-.013 0-.025.005-.038.015a.065.065 0 0 1-.056.015 3.7 3.7 0 0 1-.6-.368c-.046-.053-.065-.181-.124-.263-.171-.239-.344-.271-.244-.59.061-.051.04 0 .126 0-.012-.093-.112-.1-.092-.228.255-.178.217-.809.517-1.035.01-.421.306-.539.325-.947.086-.059.121-.023.19-.057.081-.468.666-.824.645-1.4a1.378 1.378 0 0 0 .449-.74 12.065 12.065 0 0 1 2.02-2.293c.082-.023.058.062.122.064a2.986 2.986 0 0 1 1.087-1.189v-.129c.538-.38.891-.949 1.433-1.318a27.591 27.591 0 0 1 3.381-3.06c.392-.162.829-.439.737-1.006.153-.457-.182-.986-.331-1.565-.175-.681-.27-1.473-.383-2.061a13.654 13.654 0 0 1-.32-2.678c-.093-.2-.684-.152-.635.061-.063-.015-.082.025-.124.028-.061.076-.054-.089-.094-.094 0 0-.519.189-.663.221.037-.01-.154-.075-.193.029 0 .059.106.019.124.063-.08.049-.166.088-.19.2-.109-.148-.245.008-.287.126-.136-.147-.2.067-.346.091v-.1a1.051 1.051 0 0 0-.317.3c-.071 0-.1-.031-.1-.1-.145.1-.29.276-.442.189-.059.027-.061.112-.094.159-.061-.073-.092-.06-.154-.047a.373.373 0 0 1-.1.011c.008.077.146.02.123.132.005.076-.195.071-.219 0-.094.022.071.048.029.129-.029.029-.118.009-.1.1-.053-.03-.089-.08-.153-.1-.143.212-.387.124-.573.123-.158.089-.227.532-.477.424-.055.02-.057.107-.1.156-.074-.136-.145-.092-.283-.037.02.068.148.025.158.1s-.2.071-.221 0c-.029.1.042.123-.068.227-.225-.057-.237-.139-.441-.232-.024 0-.029.029-.06.029-.021.142.1.139.091.265-.028 0-.031-.012-.032-.035-.066.114-.051.009-.1-.064-.107.046-.222.09-.251.223-.208-.061-.481.189-.729.222-.043-.089-.169-.155-.189 0-.094-.027.029-.071 0-.133-.071-.009-.092.036-.1.082-.014.062-.007.124-.088.046-.087.026.1.073 0 .135-.347-.048-.811.023-.89.476-.057-.028-.039-.133-.156-.1a1.724 1.724 0 0 1-.2.783c-.065 0-.039-.089-.128-.068a2.854 2.854 0 0 0-.611 1.3 2.379 2.379 0 0 0-.578.773c-.585.125-.241 1.055-.708 1.268 0 .073.05.1.028.192-.2.085-.154.434-.415.449-.005.061.039.073.031.132a1.8 1.8 0 0 0-.645 1.166c-.08-.005-.1.051-.127.1-.019.1.055.113.029.226a.224.224 0 0 1-.222.062c-.062.065.018.063 0 .167-.4-.032-.237.535-.387.775a12.173 12.173 0 0 1-.016 1.307c-.073 0-.092.052-.192.028-.049.542-.138.894-.172 1.4-.208.019-.163.308-.318.39.008.027.02.016.039.007a.073.073 0 0 1 .057-.007c-.08.215.017.278.089.423-.132.075-.073.128-.035.26-.289-.019-.291.365-.353.484a.09.09 0 0 1-.125 0c-.036.08-.055.185-.128.227a.178.178 0 0 1-.193-.164c-.038-.006-.046.022-.053.049s-.017.062-.069.048c0-.091-.078-.1-.155-.1-.019-.1-.046-.17-.061-.259-.1 0-.139.066-.133.188a2.306 2.306 0 0 0-.314-.265.8.8 0 0 0-.094.327c-.059-.049-.165-.051-.191-.132a.31.31 0 0 0-.125.125 2.414 2.414 0 0 1-.12-.488c-.044-.055-.141-.053-.189-.1-.13.1-.054.224-.128.4a3.288 3.288 0 0 0-.436-.6c-.064.012-.011.147-.064.165-.036-.007-.021-.064-.062-.066-.173.055.012.13-.067.232-.32-.1-.153-.428-.309-.695 0-.084-.012-.186.066-.188-.018-.071-.066-.105-.092-.169.031-1.033.366-2.1.476-3.087.056-.029.053-.122.127-.129a7.432 7.432 0 0 1 .529-2.083c.734-2.826 2.273-4.807 3.425-7.2-.013-.244.108-.346.165-.52-.006-.05-.094-.013-.094-.063a.873.873 0 0 0 .231-.781.405.405 0 0 1-.224.092c.166.2-.394.285-.381.418-.024.076-.207.044-.191-.034-.109.295-.458.336-.574.614-.056-.018-.131-.016-.158-.068a6.742 6.742 0 0 1-.953.6c.018.064.049.034.08 0s.06-.059.076 0c.035.088-.25.187-.221.031a1.537 1.537 0 0 0-.351.487c-.051.009-.057-.028-.062-.064-.072.184-.23.166-.35.355a.172.172 0 0 0-.222-.039c-.029.118.052.175 0 .229-.133-.064-.209.037-.282.139s-.153.222-.29.114c-.089.039.139.1.03.163a.323.323 0 0 0-.254.064c.157.264-.439.2-.382.453-.134.081-.344.077-.349.288-.11-.113-.193-.019-.276.076s-.143.161-.232.114c0 .062.085.044.062.133h-.132a.974.974 0 0 0-.276.026c-.033.028-.024.08-.036.195-.135-.029-.159.049-.19.129-.063-.016-.081-.07-.158-.07-.119.049-.064.089-.064.225-.312.128-.91.264-1.139-.106-.353.01-.288-.575-.394-.986.049-.009.054.03.1.032a.979.979 0 0 0-.243-1.109c.035-.288-.134-.708-.434-.654.156-.341.518-.46.641-.844.611-.44 1.016-1.165 1.688-1.441a2.213 2.213 0 0 1 .922-.743c.081 0-.043-.052 0-.133a.1.1 0 0 1 .117 0c.044.023.069.045.076-.089.886-.281 1.432-.9 2.319-1.242.085-.136.266-.267.412-.164.088-.079.1-.239.317-.189.054 0 .073-.051.064-.131a5.032 5.032 0 0 0 2.165-1.7c.12-.143.3-.047.4-.25a.207.207 0 0 1 .15-.038c.125-.322.355-.541.5-.847-.006-.028-.038-.035-.038-.073a.519.519 0 0 0-.372-.044c-.044.145.089.111.069.234-.186.422-.909.2-1.055.494-.115.009-.094-.109-.185-.125a.6.6 0 0 1-.6.077c-.208.076-.241.341-.453.414a.2.2 0 0 1-.149-.148c-.2.041-.166.245-.193.378a.714.714 0 0 1-.3-.076c-.1.048-.116.119-.075.231-.144-.037-.146.079-.191.149-.05-.041-.125-.026-.2-.012-.107.023-.208.045-.213-.106a.155.155 0 0 0-.158.046c-.054.048-.085.1-.14-.014-.321.419-.962.234-1.314-.093-.046.093-.087.065-.139.036a.127.127 0 0 0-.161 0c-.071-.183-.243-.269-.293-.47-.64-.4-.777-1.143-1.067-1.834-.005-.068.045-.081.039-.155-.006-.1-.067-.132-.112-.194a4.137 4.137 0 0 1 .164-1.276c.139.032.086-.148.191-.149a1.349 1.349 0 0 1 .648-.965c.931-1.7 2.395-2.845 3.608-4.26a1.052 1.052 0 0 0 .646-.495 9.209 9.209 0 0 0 2.31-1.949.347.347 0 0 1 .076-.308c-.195-.26-.559-.169-.823-.006.1-.3.632-.481.871-.766.893.089 2.067.082 2.429.877a3.447 3.447 0 0 1-.739 2.322c.59.364 1.287.2 1.832.635a.337.337 0 0 1 .444.24c.634.137.66.935.85 1.4.016.415-.167.9-.089 1.124-.073.018-.093.084-.187.076-.147.571-.418.778-.578 1.314-.181.061-.338.29-.529.223a5.441 5.441 0 0 0-.534.844c-.395.073-.518.57-.908.8.068.075 0 .1 0 .194a2.614 2.614 0 0 0-.61.809 19.613 19.613 0 0 0-2.019 1.279c0 .032.04.026.062.032-.018.089-.079.136-.093.229s.047.1.059.162c.644-.065.825-.623 1.461-.7.048.126-.084.067-.1.126.09.075.135.013.187-.046a.166.166 0 0 1 .16-.079c.088-.019.062.07.1.1a13.442 13.442 0 0 0 1.7.118c.272.124.9.024 1.1.245a4.516 4.516 0 0 0 .773 1.179c-.14.15-.119.471-.349.517a.81.81 0 0 1-.325.654c0 .386-.328.545-.265.9.089.118.194.075.3.03s.194-.084.273.011c.1-.129.3-.147.383-.29a.1.1 0 0 1 .061.1c.064-.034.068-.128.068-.229.069-.009.13-.065.184.006.168-.181.475-.213.6-.419a4.067 4.067 0 0 0 .669-.32c.031-.014.031-.053.031-.1a.084.084 0 0 1 .09.013.086.086 0 0 0 .068.021c.067.006.018-.119.036-.165.682-.211 1.005-.646 1.71-.666.039 0 .039-.091 0-.091a8.393 8.393 0 0 1 1.654-1.094 1.662 1.662 0 0 1 .012-1.173 5.824 5.824 0 0 1-.077-1.725c.044 0 .089 0 .094-.038 0-.089-.054-.138-.154-.131a33.635 33.635 0 0 1 .1-3.418 5.358 5.358 0 0 0 .087-1.956c-.048-.063-.069-.143-.189-.13.1-.217-.077-.243-.154-.362.367-.387.664-1.038 1.244-1.288.07-.005.1.024.093.1.084-.083.206-.115.29-.192a.1.1 0 0 1 .089.018.1.1 0 0 0 .1.015 1.14 1.14 0 0 1 .413-.093c.539-.358 1.435-.2 2.214-.363.08 0 .076.076.122.1.431-.085.945-.064 1.517-.145-.018.075.061.048.063.1a1.859 1.859 0 0 1 .475-.032 2.144 2.144 0 0 0 .759-.083c.507.116 1.232.054 1.1.761.02.045.065.06.124.063-.157.491.18.741.211 1.146-.146.42-.5.62-.613 1.067a.918.918 0 0 0-.36.879.321.321 0 0 0-.1.323c-.072.036-.109.111-.192.126a.662.662 0 0 0 .089.4 1.134 1.134 0 0 0-.164.651.082.082 0 0 0-.126 0 1.187 1.187 0 0 0 0 .385c-.11-.016-.141.054-.191.1-.008.125.126.107.188.164-.007.154-.091.268-.034.392-.1.034-.073 0-.193 0 0 .218-.059.31.061.424-.19.053-.031.377-.13.522a.138.138 0 0 0 .081-.009c.036-.013.056-.027.073.041-.127.082-.181.39-.317.359a14.486 14.486 0 0 0-.054 1.824.171.171 0 0 1-.127.027v.229a.609.609 0 0 1 .219.168c.005.072-.02.059-.051.045s-.057-.024-.078.017c-.011.178.035.157.156.231-.036.223-.257.463-.1.68-.247 1.385-.663 3.144-.777 4.559-.066-.018-.085.021-.125.032-.09.611.2.951.045 1.5.005.088.1.092.123.162-.015.1-.1.116-.191.133.135.364-.318.989.049 1.332-.247.107-.09.44.057.557a9.787 9.787 0 0 0 .117 1.011c.027.05.044.105.125.1-.035.517.512.876.362 1.345.032.173.239.334.119.551.242.259.281 1.011.559 1.247.018.088-.065.063-.07.132.208.024.177.294.252.458-.355.025-.1.335-.229.547-.18-.034-.249.044-.378.062.1.14.023.2-.036.326-.231-.045-.335.181-.541.258-.29-.3-.828.121-1.044.213a.48.48 0 0 0-.855.249.242.242 0 0 0-.191.022c-.058.027-.1.053-.155.01-.037 0-.028.056-.032.092-.637-.017-.851.577-1.3.639-.185.378-.695.574-.988.934-.318-.029-.542.2-.749.436-.224.251-.429.5-.711.426-.018.03-.031.057-.061.066a.27.27 0 0 0 .059.2c0 .041-.042.035-.088.03a.134.134 0 0 0-.07 0c-.036.316-.35.338-.39.644-.17 0-.229.111-.285.23-.208 0-.257.168-.38.255 0 .439-.476.4-.58.744.05.056.136.078.19.128.239-.289.977.011 1.173-.406.8-.162 1.367-.514 2-.56.043-.015.025-.087.028-.131.232-.042.369-.1.536 0 .033-.063.144-.051.226-.038a.337.337 0 0 0 .091.009c.081-.023.091-.12.164-.159.111-.063.3-.021.438-.061a6.935 6.935 0 0 1 .858-.283.4.4 0 0 1 .117 0 .3.3 0 0 0 .261-.061 21.983 21.983 0 0 0 2.307-.207c.054 0 .07-.048.062-.129a1.7 1.7 0 0 0 .646-.052 1.888 1.888 0 0 1 .559-.06c.246.02.52.226.663-.093.217-.022.5.024.538-.189.063.008.006.146.1.129a5.6 5.6 0 0 1 1.828-.171c.087.024.06-.067.1-.1a.174.174 0 0 1 .091.1c.013-.075.138-.03.128-.128a11.446 11.446 0 0 0 1.342-.009 11.59 11.59 0 0 1 1.719.013.712.712 0 0 1 .193-.1 9.094 9.094 0 0 0 2.651-.422c.07-.054.085-.157.133-.228.455-.093.518.511.372.816.075.155.212.236.276.4-.61.4-.7 1.21-.9 1.852.025.186.2.229.281.362.036-.007.026-.058.032-.1.113.008.12.117.217.134.032.131-.093.1-.06.225-.14.022-.133-.107-.222-.13a.751.751 0 0 0-.1.256c.043.057.154.036.187.1.007.072-.025.1-.092.1 0 .092.13.06.122.17a.291.291 0 0 1-.189-.005c0 .144.193.1.185.261a1.866 1.866 0 0 0-.479.518c.039.141.211.151.218.326.1-.12.2-.047.347-.092.023.074.07.206-.063.194a.388.388 0 0 1 .154.355c-.123-.017-.131-.025-.224.035a.75.75 0 0 1-.132.451c.167.224.45.643-.006.754.17.042.074.229-.063.226 0 .067.135.009.156.067 0 .086-.015.143-.1.131.029.042.1.042.123.1a1.115 1.115 0 0 1-.065.288.693.693 0 0 0-.484.007.572.572 0 0 1-.495-.018c-.027.058-.082.09-.1.166-.161-.025-.422-.087-.474.091-.141-.074-.423 0-.407-.232-.182.092-.265-.1-.441-.108-.08 0-.047.127-.125.127-.185.039-.195-.1-.255-.192-.149 0-.041.067-.062.19a1.071 1.071 0 0 1-.61.014c-.274-.044-.547-.087-.72.1a.385.385 0 0 0-.3-.069.455.455 0 0 1-.266-.038c-.088.05-.188.087-.221.194-.315-.162-.874-.211-1.042.151a.17.17 0 0 0-.215-.016c-.062.03-.119.06-.2-.021-.05.147-.158.119-.263.091s-.21-.057-.243.1c-.124.019-.081-.134-.156-.166a.531.531 0 0 1-.193.132c-.13-.169-.326-.126-.524-.084a1.157 1.157 0 0 1-.294.039c-.081 0-.044-.13-.127-.132a.341.341 0 0 1-.182.03c-.09 0-.16 0-.165.129-.181-.159-.645-.038-.789-.236-.1-.017-.086.085-.155.093a.947.947 0 0 0-.668.005c-.263.064-.52.128-.724-.055-.144.1-.448.033-.506.224-.141 0 .014-.091-.061-.133-.084 0-.185.02-.186-.065a.789.789 0 0 1-.32.225c.037-.038.013-.053 0-.1-.035.127-.2.123-.317.16a.132.132 0 0 0 0-.164 1.424 1.424 0 0 0-1.046.184c-.033-.006-.017-.032 0-.032.015-.1-.045-.125-.061-.2-.195.028-.454-.017-.476.19-.127-.166-.213-.02-.412 0 .111-.116.025-.211-.06-.3.028.134-.093.149-.19.357-.057-.121-.178-.165-.219-.362-.115.01-.158.1-.188.195a.529.529 0 0 0-.444.219 1.5 1.5 0 0 0-.855-.063 1.658 1.658 0 0 1-.851-.05 1.044 1.044 0 0 1-1.011.183c-.044.035-.049.123-.1.16a1.229 1.229 0 0 1-.537-.167c-.3.194-.724.006-.918.216-.128-.081-.213-.017-.279-.168a.308.308 0 0 0-.1.193.351.351 0 0 0-.28-.1c-.138.276-.368.172-.665.118 0 .054-.016.182-.162.163a.175.175 0 0 0 .034-.131c-.094.1-.247.126-.189.3a2.394 2.394 0 0 1-.557 0 1.615 1.615 0 0 0-.551.013c-.112.034-.1.148-.321.159a.277.277 0 0 1-.117-.034c-.064-.029-.13-.057-.194 0-.055.006-.073.055-.064.13-.528.069-.917.36-1.365.4a.931.931 0 0 1-.561.18.714.714 0 0 1-.291-.045zm-8.066-18.121c.009-.037.124-.121.033-.16-.048.039-.152.131-.033.16zm4.211-13.11c-.094.665-.909 1.063-1.066 1.655a18.538 18.538 0 0 0 2.449-.9c.487-.4 1.256-.5 1.585-1.067a4.014 4.014 0 0 0-.206-1.779 2.177 2.177 0 0 0-1.008-.209 17.785 17.785 0 0 0-1.184 1.574h-.146a.78.78 0 0 1-.421.726zm30.692 25.872c-.03-.117-.093-.109 0-.2.065-.016.1.041.1.1s-.025.1-.076.1a.085.085 0 0 1-.025.001zm-74.676-8.057c-.041.043-.033.125-.074.168-.11.008-.239.046-.263-.056-.058.014-.01.122-.111.105a.561.561 0 0 0-.4-.358c-.085.008-.055.1-.144.112-.143-.165-.208-.432-.391-.556a8.094 8.094 0 0 0-.352-1.222l.094-.014a3.909 3.909 0 0 1 .081-1.089c.021-.066.093-.11.1-.172.013-.088-.042-.165-.032-.25.018-.129.093-.236.113-.362.042-.293-.01-.585.245-.795-.007-.077-.066-.09-.055-.185a18.447 18.447 0 0 1 1.945-3.226c-.034-.119.036-.142 0-.258.053-.081.159-.128.124-.271.377-.178.266-.733.61-.937-.009-.079.04-.1.006-.192a.813.813 0 0 0 .343-.555c.034-.037.042-.028.062-.019a.116.116 0 0 0 .062.007.216.216 0 0 0 .01-.165c.391-.327.5-.87.825-1.248a2.009 2.009 0 0 0 .518-.168c-.013-.03-.064-.01-.07-.049a1.735 1.735 0 0 1 .676-1.142 13.684 13.684 0 0 1 1.17-1.551l.122-.016c.142-.213.146-.524.428-.626 0-.113.092-.157.059-.3.385-.332.536-.842.962-1.142a3.076 3.076 0 0 1 .469-.823c0-.005.013 0 .025.011s.03.02.038.007c.144-.186.171-.425.276-.574.03-.044.2-.109.233-.156s-.008-.116.038-.2.151-.107.167-.18a1.884 1.884 0 0 1 .162-.464c-.009-.035-.048-.031-.085-.028s-.066.006-.079-.015c.028-.19-.049-.22-.112-.37.082-.21.32-.2.5-.094.151-.223.512-.027.705.035.1-.163.328-.068.45-.185.144.174.353.135.531.152.048-.048-.1-.115-.028-.219a2.2 2.2 0 0 1 .479.252c.062-.055.169-.009.182-.054.379.3.948.508 1.059 1.038.23.092.292.4.406.647.014.105-.046.156-.068.231a.865.865 0 0 1-.093.747 4.1 4.1 0 0 1-1.126 2.339c.005.042.013.083.018.124-.241.112-.323.348-.473.539-.222-.017-.28.324-.487.413a.249.249 0 0 1 .055.179c-.5.439-.746.966-1.3 1.444.031.5-.622.479-.572.993-.175.04-.142.23-.351.24a.821.821 0 0 1-.152.527 1.576 1.576 0 0 0 .4.172c.244.08.041.057.285 0a.971.971 0 0 1 .66.2c.086-.1.22-.078.342-.052s.21.045.254-.026c.117-.005.135.119.215.16a.086.086 0 0 0 .088-.058.082.082 0 0 1 .085-.058c.038.057.08.112.12.175a.9.9 0 0 1 .872.362c.054-.034.072-.1.181-.088-.019.309.317.146.393.33.148-.191.315-.037.374.173.144-.129.434.031.533.19.089-.035.124-.115.272-.1.166.314.443.269.754.412.112.24.437.432.647.33.012.309.315.468.584.557.068.255.377.193.414.483a.574.574 0 0 0 .256 0c.041.175.18.232.21.42.139-.018.141-.07.226 0-.029.282.208.531.445.735a.61.61 0 0 0-.061.489c-.04.035-.113.045-.15.08-.01.1.067.085.056.186-.113.01-.155.064-.137.174-.114.027-.28.013-.341.076.024.191 0 .436.255.478-.067.174.077.412-.159.5.035.152.253.071.257.257-.259.4-.772.557-.992.923-.055 0-.078-.044-.081-.122a3.536 3.536 0 0 0-.757.294c-.034-.07-.123-.067-.213-.063s-.188.006-.218-.073c-.182.2-.507.014-.8-.023a3.983 3.983 0 0 0-.416-.012 2.633 2.633 0 0 1-.513-.026 7.445 7.445 0 0 1-1.024-.278 3 3 0 0 1-.944-.164c-.158-.037-.322-.15-.472-.189a.451.451 0 0 0-.167-.007.422.422 0 0 1-.183-.011c-.034-.016-.047-.1-.079-.118-.324-.161-.956-.21-1.356-.4-.086-.041-.135-.138-.212-.166-.118-.036-.3-.019-.374-.171a.172.172 0 0 1-.121.047c-.712-.3-1.242-.613-2.006-.9a.68.68 0 0 1-.4-.09.621.621 0 0 0-.413-.085c-.178.3-1.548 1.7-1.509 2.16a3.853 3.853 0 0 0-.776 1.375c-.106.043-.106.007-.18.088.134.44-.458.5-.17.885-.015.136-.1.213-.1.424-.164.009-.143.154-.228.221a.73.73 0 0 0-.645.181c-.144-.138-.232-.42-.512-.28zm39.73-3.815c-.021-.03-.037-.059-.046 0-.044-.005-.028-.083-.03-.128.041.058.152.04.124.166h-.006c-.016-.002-.031-.019-.043-.037zm1.7-1.72c.127.055.064.09.033.194-.076-.001-.018-.135-.037-.193zm-50.2-2.556zm-15.787-14.792a.071.071 0 0 1 .053.008.517.517 0 0 1-.053-.007zm9.615-5.438a.086.086 0 0 0-.074.019.092.092 0 0 1-.09.015c-.029-.07-.062-.129-.092-.195-.112.092-.212-.025-.255-.1-.271.026-.615-.043-.862-.043.037-.119-.065-.1-.093-.159-.069 0-.143 0-.216-.007-.253-.014-.514-.027-.649.188a.274.274 0 0 1 .227-.288c-.078-.224.111-.3.039-.506-.024-.1-.157-.1-.253-.131-.589-.54-1.436-.825-2.061-1.334a.765.765 0 0 1-.6-.518c-.176-.133-.392-.225-.441-.478a2.154 2.154 0 0 1-.507-.266c.006-.122.13-.125.162-.227-.005-.152-.217-.117-.219-.283.035.005.055-.006.063-.031a1.308 1.308 0 0 1 .106-.958c.287-.264.894-.2 1.091-.558a.642.642 0 0 0 .223-.033.576.576 0 0 1 .291-.023c.241-.23.7-.277.9-.532a4.848 4.848 0 0 1 2.046-.073c.068-.157.2-.135.331-.113s.24.042.276-.1c.369.224.807.184 1.082.494.1-.015.141-.094.256-.094.294.2.664.143.988.234s.542.363.858.459c.077.126.1.3.282.321.017.237.218.288.281.482.248.064.661.1.826.33-.186.18-.037.422.09.572.014.1-.088.084-.1.16.063.169.125.34.314.391a2.028 2.028 0 0 1-.135.695c.239.2 0 .513.277.672-.029.058 0 .175-.1.157.047.077.02.215.092.257-.033.163-.159.226-.32.256 0 .25.048.3.057.571-.231.008-.534.065-.644.283-.275.032-.729.124-.867.4a.819.819 0 0 0-.359.053.63.63 0 0 1-.439.031.667.667 0 0 0-.131.19 1.885 1.885 0 0 1-.922-.171c-.027.13-.192.206-.361.206a.376.376 0 0 1-.368-.214z" transform="translate(-10122 -800) translate(10504.504 182.5)"/>
    </g>
</svg>
