<svg xmlns="http://www.w3.org/2000/svg" width="112" height="92" viewBox="0 0 112 92">
    <defs>
        <style>
            .cls-1{fill:#fff}
        </style>
    </defs>
    <g id="logo_7" transform="translate(0 27)">
        <g id="그룹_6712">
            <path id="패스_145" d="M389.879 120.731h-2.429v23.975h-14.061v-5.348l.51-.094a6.771 6.771 0 0 0 5.868-6.892 6.5 6.5 0 0 0-1.975-4.774l-1.068-1.061h4.843v-1.866h-8.1V121.1h-2.515v3.571h-8.086v1.866h4.7L366.5 127.6a6.572 6.572 0 0 0-1.933 4.774c0 3.541 2.2 6.119 5.894 6.894l.495.1v5.335h-9.966v2.046h26.46v10.871h2.428v-22.212h6.572v-2h-6.572zM367 132.188a5.346 5.346 0 0 1 5.172-5.372 5.279 5.279 0 0 1 5.168 5.372 5.212 5.212 0 0 1-5.168 5.244 5.278 5.278 0 0 1-5.172-5.244z" class="cls-1" transform="translate(-360.992 -120.731)"/>
            <path id="패스_146" d="M604.715 120.731h-2.338v36.891h2.338v-22.714h6.719v22.714h2.427v-36.891h-2.427v12.033h-6.719z" class="cls-1" transform="translate(-542.447 -120.731)"/>
            <path id="패스_147" d="M524.311 135.113c-4.547 0-8.109 3.824-8.109 8.706 0 4.9 3.562 8.745 8.109 8.745a8.743 8.743 0 0 0 0-17.451zm0 15.525c-3.238 0-5.68-2.932-5.68-6.819 0-3.863 2.442-6.777 5.68-6.777s5.77 2.977 5.77 6.777c0 3.887-2.481 6.819-5.77 6.819z" class="cls-1" transform="translate(-477.677 -131.525)"/>
            <path id="패스_148" d="M703.3 120.731h-2.429v17.2h-20.216c-2.018 0-2.277-1.246-2.277-2.332v-3.329h12.588v-9.325h-15.013v1.879h12.583v5.566h-12.583v5.91c0 2.626 1.059 3.512 4.2 3.512h20.722v2.713h2.425v-9.206h6.563V131.3H703.3z" class="cls-1" transform="translate(-597.865 -120.731)"/>
            <path id="패스_149" d="M712.669 221.39h-17.326v1.955h17.326a2.1 2.1 0 0 1 2.321 2.326v7.54h2.424v-7.54c0-3.161-1.242-4.281-4.745-4.281z" class="cls-1" transform="translate(-612.417 -196.438)"/>
        </g>
    </g>
</svg>
