<svg xmlns="http://www.w3.org/2000/svg" width="130.001" height="92" viewBox="0 0 130.001 92">
    <defs>
        <style>
            .cls-1{fill:#fff}
        </style>
    </defs>
    <g id="logo_4" transform="translate(-204.81 -247.845)">
        <g id="그룹_6710">
            <g id="그룹_445" transform="translate(322.767 277.025)">
                <path id="패스_155" d="M608.244 295.412a1.189 1.189 0 0 1-.386.624c-.385.206-.876.135-2.043.08-1.5.054-2.069.148-2.324-.121a.262.262 0 0 0-.349 0c-.059.176-.255.237-.767.227-.9-.019-1.277-.15-1.5-.5a2.837 2.837 0 0 1-.2-1.629 1.019 1.019 0 0 1 .425-.842c.258-.085.357-.059.383.111-.058.325 0 .452.268.544a4 4 0 0 0 1.355.158.925.925 0 0 0 .732-.04 8.633 8.633 0 0 1 1.661-.08 5.213 5.213 0 0 1 1.579.148c.12.207.093.337-.108.505a12.856 12.856 0 0 1-2.789-.042 1.9 1.9 0 0 0-1.113 0c-.527.06-.9.1-1.5.158-.292.443-.245.633.188.771h1.344c.177.149.3.139.54-.04a10.606 10.606 0 0 1 1.664-.039c.574.013.972 0 1.581 0 .455 0 .69-.176.931-.732a.7.7 0 0 1 .038-.424c.11-.088.1-.136-.038-.226a1.509 1.509 0 0 1-.318-.622c-.324-.11-.52-.178-.808-.269-.119-.087-.238-.065-.494.08-1.395 0-2.324-.021-3.708 0-.762.011-1.037-.041-1.128-.275.117-.2.478-.319 1.436-.387.768-.049 1.057-.087 1.113-.266l.158-.267c0-.375.071-.554.309-.7.375-.058.543.022.691.307-.031.414.014.595.159.74a1.2 1.2 0 0 0 .849.229c.228.175.435.175.852 0a1.147 1.147 0 0 1 1.114.581 1.547 1.547 0 0 1 .2.852c-.09.09-.079.176.069.386.058.641.038.89-.069 1m.263 5.286h-5.748c-.557-.226-.831-.226-1.117 0-.989.266-1.4.3-1.62.119-.21-.345-.21-.526 0-.73a3.22 3.22 0 0 1 1.5-.038l.385.077c.168.178.284.178.466 0a7.015 7.015 0 0 0 .965-.158c.6-.131.78-.269.693-.653-.176-.228-.474-.307-1.156-.307-1.079.207-1.483.207-1.622 0-.089-.266-.008-.423.347-.662a5.438 5.438 0 0 1 .96.08c.089.06.176.06.352 0a4.812 4.812 0 0 1 .923-.08c.342-.226.386-.4.158-.73a2.618 2.618 0 0 1-1.236-.079.413.413 0 0 0-.545.041 2.1 2.1 0 0 1-1.342.227l-.238-.269c-.058-.228 0-.364.268-.54a2.807 2.807 0 0 1 1.274.037c.088.179.176.179.385 0a6.421 6.421 0 0 1 1.617-.109c1.22.019 2.021.019 3.175 0 .744-.012 1 .059 1 .347-.03.236-.223.335-.772.344-.866.022-1.443 0-2.271 0-.355.177-.385.347-.12.691a4.745 4.745 0 0 0 1.042.081h1.312c.236.208.256.366.081.651h-2.166a.561.561 0 0 0-.426.661 1.251 1.251 0 0 0 .93.269h2.818a.449.449 0 0 1 .5.383c-.059.27-.259.347-.775.347" class="cls-1" transform="translate(-598.552 -289.557)"/>
                <path id="패스_156" d="M608.489 336.2a1.53 1.53 0 0 1-1.234.224h-3.2a2.907 2.907 0 0 0-.354-.116c-.089-.141-.17-.129-.346.04a1.625 1.625 0 0 1-1.116-.04 5.01 5.01 0 0 1-.121-2.658c.208-.405.306-.475.425-.276.259.533.553.661 1.2.542h3.281c.375.091.468.216.357.5l-.426.043c-1.392-.031-2.319-.022-3.7 0-.327.009-.444.086-.5.344a2.984 2.984 0 0 0 1.383.12c1.157-.038 1.931.017 3.057.039.257.009.365.058.426.229-.093.175-.278.207-.735.194-1.332-.02-2.211-.02-3.517 0-.435.012-.583.088-.613.27.061.084.15.136.385.184l.228.078c.176.119.295.111.5-.041a7.83 7.83 0 0 1 1.435-.077c.346.01.891 0 2.2-.029.316.119.461.079.583-.158a4.38 4.38 0 0 0 .077-.891c.138-.225.128-.335-.038-.421a1.045 1.045 0 0 0-.814-.931c-.928.029-1.6.039-2.665.039a.576.576 0 0 1-.385-.146.278.278 0 0 0-.428.037.961.961 0 0 1-.423.109c-.5-.058-.646-.158-.616-.423a1.05 1.05 0 0 1 .893-.111.416.416 0 0 0 .65 0 10.9 10.9 0 0 1 3.243.04h.041a1.036 1.036 0 0 1 .965.771 1.023 1.023 0 0 1 0 .572c-.147.151-.136.277.041.5a1.747 1.747 0 0 1-.121 1.434m-.66-3.944c-1.8-.018-3.006 0-4.825 0a.778.778 0 0 1-.465-.118c-.088-.108-.137-.117-.226-.038a.844.844 0 0 1-.584.235c-.523-.029-.721-.08-.809-.2-.241-.108-.329-.427-.387-1.274.058-.741.129-1.037.307-1.155a.516.516 0 0 1 .5.2.707.707 0 0 0 .583.572c.138.149.289.168.612.039a1.977 1.977 0 0 1 .583-.143h4.744c.347 0 .5.1.585.3.029.24-.07.326-.383.389h-5.331l-.345-.161c-.149-.136-.278-.127-.5.041a1.335 1.335 0 0 0-.586.239c-.118.265-.029.366.347.423a.822.822 0 0 1 .5.106.782.782 0 0 0 .584-.027 17.032 17.032 0 0 1 1.891-.04c1.449.021 2.4 0 3.823 0 .283.062.374.159.346.426-.147.178-.387.2-.968.187m.81 5.327a8.135 8.135 0 0 1-.838-.041.8.8 0 0 1-.427-.143c-.058-.061-.119-.061-.236 0a.889.889 0 0 1-.308.1c-.267.087-.334.249-.306.624a3.245 3.245 0 0 1 .188 1.114c-.15.179-.279.2-.545.08a3.926 3.926 0 0 1-.383-1.394.776.776 0 0 0-.7-.345h-1.428c-.242.029-.387.206-.585.691a1.925 1.925 0 0 1-.545 1.127c-.236 0-.323-.07-.386-.305a1.149 1.149 0 0 1 .16-.664c.168-.6.089-.842-.308-.849-.791-.021-1.3.007-2.011.04-.273-.257-.28-.417-.073-.653.425-.178.612-.456.574-1.128l-.149-2.313c-.028-.485.059-.682.267-.77a.238.238 0 0 1 .266.189 3.63 3.63 0 0 1 .081 1.857c0 .524.009.872.038 1.394.03.436.276.61 1.007.73 1.79.031 2.946.011 4.626-.077l.385.077c.238.151.357.151.5 0a.9.9 0 0 1 .386-.077 4.573 4.573 0 0 1 1.13.117c.2.093.247.19.186.428-.089.143-.236.184-.582.184" class="cls-1" transform="translate(-598.489 -315.892)"/>
                <path id="패스_157" d="M604.089 370.566c-.176-.06-.26-.169-.345-.465v-.158a5.607 5.607 0 0 0-.08-1.236c.029-.375.128-.5.426-.535.435.031.562.18.5.616l.043 1.433c-.088.238-.227.315-.544.346m2.7-2.818a1.071 1.071 0 0 0-.961-.386l-1.856.07c-1.307.053-1.821.139-2.046.317a1.54 1.54 0 0 0-.426.849.757.757 0 0 0 0 .495 3.914 3.914 0 0 1 .2 1.089c.139.639.383.877 1 .955l1.281-.067 1.813-.039c.8-.09 1.1-.337 1.2-1.006.049-.347.1-.585.155-.969a2.47 2.47 0 0 0-.353-1.306m1.736 3.815c-.612.12-.871.416-.848 1.156l.08 3.013c.008.3-.092.4-.346.427-.21-.06-.259-.2-.269-.574l-.076-2.785c-.024-.8-.436-1.116-1.474-1.237l-2.581.16a1.259 1.259 0 0 0-1.237 1.113 13.387 13.387 0 0 1-.54 2.749l-.12.266a.6.6 0 0 1-.733.308c-.175-.228-.186-.434-.038-.849a4.713 4.713 0 0 0 .81-2.738c-.06-.436-.257-.614-.772-.731-.7.235-.95.2-1.007-.158 0-.458.2-.625.809-.585s.852-.179.893-.958a7.814 7.814 0 0 1 .076-.967c.057-.168.02-.308-.155-.575a1.881 1.881 0 0 1-.229-1.235c.149-.314.57-.462 1.7-.583l2.657-.038a4.784 4.784 0 0 1 .93.158.506.506 0 0 0 .465.039c.782-.118 1.066.049 1.157.652a4.518 4.518 0 0 1-.151 1.5 2.769 2.769 0 0 0 .108.891c.031.583.2.819.7.89.542.08.73.169.73.423-.029.267-.168.325-.544.267" class="cls-1" transform="translate(-598.2 -341.325)"/>
                <path id="패스_158" d="M606.705 293.693h-.029v.2a1.869 1.869 0 0 1-.007.191c0 .052 0 .109-.006.165-.005.188-.007.364-.009.554v.026a1.363 1.363 0 0 0 0 .2v.386a1.171 1.171 0 0 0 .007.2v.109a.152.152 0 0 0 .014.03.822.822 0 0 1-.018.187.85.85 0 0 1 0 .113v.252l.022.052a.166.166 0 0 0 .005.055c-.005.084-.005.169-.007.253a.177.177 0 0 0-.02.05v.419c0 .14 0 .284-.013.439v.111a.108.108 0 0 1-.015.023c0 .087.007.171.012.253 0 .1-.007.146-.009.223 0 .174 0 .347.011.524a.466.466 0 0 1-.008.109 2.873 2.873 0 0 0 .008.332c0 .137-.008.275-.01.421s0 .307-.009.461a.149.149 0 0 1-.007.054v.332c0 .109-.019.354-.011.5v.051a3.441 3.441 0 0 0 0 .389c0 .016.011.037.015.059a.316.316 0 0 0 .007.079c-.005.074-.007.147-.01.22 0 .014-.01.02-.011.029v.332a1.04 1.04 0 0 0 .01.171v.135a.058.058 0 0 0 .007.027.949.949 0 0 0 .008.165v.113c0 .056-.008.113-.015.165a.076.076 0 0 1-.013.026v.083a.108.108 0 0 1-.015.025 3.023 3.023 0 0 0 .013.332h.011a2.723 2.723 0 0 1-.019.471v.27h.009a.852.852 0 0 1 .013.117.153.153 0 0 1 0 .082c0 .086 0 7.454.011 7.537a.254.254 0 0 0 0 .053.5.5 0 0 0 0 .086.587.587 0 0 1-.008.11c-.006.148-.006.3-.011.442a.69.69 0 0 1-.01.14 6.827 6.827 0 0 0 .01.717.539.539 0 0 0 0 .166c-.011.194-.019.388-.019.581a.569.569 0 0 0 .007.11.1.1 0 0 0 .011.054c0 .032-.007.056-.007.085a.068.068 0 0 1 .012.027v.141a.082.082 0 0 1 .014.028.874.874 0 0 1-.019.192v.109c0 .15 0 .294-.011.445v.6a.084.084 0 0 1-.012.029 1.035 1.035 0 0 1-.017.164.288.288 0 0 0 .009.087v.245c0 .065 0 .13.006.194a.2.2 0 0 1-.006.057c0 .126-.006.256-.011.385h-.012c0 .1-.011.206-.019.305 0 .051 0 .1-.008.142v.053c.044 0 .008 2.046 0 2.188-.008.371-.036.74-.349.686a.51.51 0 0 0-.4.019c-.1.058-.074-.082-.205-.051-.085.019-.215.158-.3.2-.1.054-.059.113-.119.18-.018.019-.032.017-.05-.007v-.029c-.011-.017-.07-.2-.084-.176s0 .039 0 .059h-.015c0 .012-.006.03-.006.049h-.039l-.013.083c-.024.048-.058-.054-.088 0a.027.027 0 0 1-.01.026c-.006.019-.025-.224-.029-.21a1.856 1.856 0 0 0-.78.154v.058H604a.063.063 0 0 1-.006.027c0-.021 0-.037-.006-.057s-.034-.029-.059-.029c.007-.093.025.072.025-.02-.015 0 .037-.265.02-.265a.277.277 0 0 1-.115.224v.02c-.01-.011-.011-.016-.026-.02 0-.146.073-.08.071-.227h-.02v-.023c-.011-.017-.026.062-.048.022a.051.051 0 0 1 .005-.029h-.021a.057.057 0 0 1 0 .027c0 .038-.085.075-.07.115a.615.615 0 0 1-.01.136v.026a.045.045 0 0 0-.01-.026s-1.539-.07-1.548-.074v-.031c-.019-.007-.044-.019-.066-.029a.239.239 0 0 0 0 .024.805.805 0 0 1-.083 0 .107.107 0 0 1 0 .029c-.017.03-.052.036-.067 0 0-.023-.009-.038-.011-.052-.013-.044-.011.026-.022-.061 0-.009-.013-.019-.019-.03v.021a.294.294 0 0 1-.029.037.3.3 0 0 1-.007.051.134.134 0 0 1-.072.081v.054l-.034-.194c-.029-.012-.036-.025-.065 0v.052a.136.136 0 0 1-.05.021.48.48 0 0 1-.009.058h-.013v.024a.019.019 0 0 1-.011 0v.021a.055.055 0 0 1-.045 0 .027.027 0 0 1-.012.028v.028a.183.183 0 0 0-.046 0v-.03c-.01-.023-.019.019-.029 0a.427.427 0 0 0-.073-.04v-.031a7.532 7.532 0 0 0-1.644.149.142.142 0 0 0-.085-.033v-.082h-.077v-.087c-.022 0-.042.006-.053.053-.018 0-.051.014-.058-.032a.206.206 0 0 0-.005-.054c-.007-.034-.012-.073-.018-.108-.027.01-.1.152-.126.047-.019.021-.026.069-.031.162a.554.554 0 0 1-.086.05v-.052h-.03c-.029-.008-.072.021-.084-.034-.019-.02-.015-.01-.019-.082-.01.007-1.266.019-1.275.027v.053a.09.09 0 0 1-.026.025v-.031a.132.132 0 0 1-.05-.007c-.01.01 0 .036-.005.029v-.029h-.021v-.054c-.016 0-.022 0-.031.027a.214.214 0 0 1 0 .027c-.024-.01-.046-.025-.07-.033a.229.229 0 0 1 0 .031h-.023v.02h-.038v.017c-.011.011-.015.011-.023.011v.028c-.027 0-.051-.006-.076-.006a.078.078 0 0 1-.02.055v.054c-.017-.018-.046-.142-.063-.113a.169.169 0 0 0-.008.057.367.367 0 0 0-.035.022c0 .026.068-.192.068-.165-.011-.012-.092.23-.106.217a.051.051 0 0 0 0-.026c-.022.008-.043.014-.065.024v.028a.093.093 0 0 1-.014-.028v.028h-.09v-.056c-.059 0 0-.217-.039-.145 0-.017-.067.21-.067.194-.023-.009-.031-.023-.051-.056v-.03h-.036v-.028h-.035a.036.036 0 0 1-.01.026v.028l-.018.025a1.114 1.114 0 0 0 .057-.165c0 .052 0 .022-.005.052-.01-.049-.091.144-.1.109v-.053c0-.017-.048-.058-.052-.058s-.029.084-.051.052v-.027h-.021v-.019a.017.017 0 0 0-.018-.012c0-.024-.009-.053-.013-.08a.159.159 0 0 0-.024.027c-.016.2.028-.2-.016-.146v.03h-.033a.1.1 0 0 1-.021.051v.026c-.013.016-.013-.026-.014-.026-.039 0-.078-.005-.119-.005v.025h-.016v.025h-.03v-.021s-.007-.006-.01-.006v-.029c-.007-.033-.018-.024-.033-.033l-.044.169a.86.86 0 0 1-.008.1.153.153 0 0 1-.047.033 1.543 1.543 0 0 0 0-.166v-.136a.016.016 0 0 1-.009 0 .5.5 0 0 0-.007-.052.152.152 0 0 1-.031 0v.025c0-.011-.008-.015-.011-.025-.005-.084-.014-.168-.022-.255-.014-.005-.014 0-.024-.028v-.028s-.052-.023-.058-.028c0-.093-.012-.123-.038-.136h-.02a1 1 0 0 0-.016-.117c-.008-.008-.011-.021-.02-.027s0-.034 0-.056h-.018v-.033h-.021v-.028h-.014v-.016a.027.027 0 0 0-.013-.006c0-.05-.012-.094-.015-.144l-.071-.029c0-.011 0-.022-.009-.029a.3.3 0 0 0 0-.084 2.218 2.218 0 0 1 .008-.249v-.044h.018a.3.3 0 0 0 0-.05c.019-.024.019-.046.032-.109a.6.6 0 0 0 0-.061c0-.128 0-.256-.008-.384a.818.818 0 0 0-.014-.14c-.007-.075 0-.066-.024-.082a3.224 3.224 0 0 1-.005-.5c0-.115 0-.246-.007-.328-.015.011-.013.025-.026.056 0 .011 0 .034-.006.052s.012-.007 0 .029a.615.615 0 0 0-.018.138.2.2 0 0 0-.017.026v-.026a.021.021 0 0 1-.014 0c0-.034 0-.074-.006-.114h-.027a.069.069 0 0 0 0-.028v.028c-.009-.01-.012-.02-.025-.028a.867.867 0 0 1 .02-.22c.024-.136.009.012.038-.026v-.017a.1.1 0 0 1 .018-.005c0-.007.009-.043.016-.059v-.08a.016.016 0 0 1-.013 0v-.08c.013.058.026-.073.056-.081 0-.048.007-.41-.006-.5 0-.034 0-.076-.007-.109a1.2 1.2 0 0 0-.01-.167.626.626 0 0 0 0-.112c0-.095.012-.219.015-.279 0-.089 0-.185.007-.275a.133.133 0 0 1 .008-.057.711.711 0 0 0 .008-.11.215.215 0 0 0 .018-.022c0-.059 0-.026.009-.059 0-.062-.005-.066-.006-.115h-.045c0 .015 0 .022-.01.032a.062.062 0 0 0 0 .024l-.032-.028v-.081c.026-.012.032-.038.053-.055v-.138h.012c0-.052 0-.024.009-.052a1.957 1.957 0 0 0-.025-.225.243.243 0 0 1-.043-.087c0-.1.006-.2 0-.3v-.034a.465.465 0 0 0 0-.131.289.289 0 0 1 0-.031c.022 0 .027-.018.043-.024a1.549 1.549 0 0 0 0-.168v-.058c-.008-.093-.017-.038-.029-.192v-.058h-.019a1.818 1.818 0 0 0-.027-.39c0-.166.017-.15.044-.19v-.277c-.035-.046-.014-.09-.024-.191 0-.011-.008-.027-.013-.059h-.067c0-.055-.007-.111-.009-.167 0-.233.009-.189.046-.244h.014a.182.182 0 0 0 .013-.057h.014a.157.157 0 0 1 .014-.056c0-.213 0-7.7-.009-7.868 0-.133.005-.276 0-.416 0-.066 0-.128-.008-.189a.689.689 0 0 1-.037-.115c0-.018 0-.039-.007-.058a.311.311 0 0 1-.012.029.323.323 0 0 0-.007-.084.781.781 0 0 1 .007-.081v-.029h.016c.008-.177.014-.353.011-.524 0-.09 0-.18.009-.277v-.246c.019-.018.016-.033.026-.052a1.173 1.173 0 0 0-.016-.252.247.247 0 0 0-.015-.03.4.4 0 0 0 0-.108v-.023c.013-.054.013-.1.029-.144v-.027c.006.013.017.019.024.029a.074.074 0 0 0 .018-.028v-.439h-.021c-.007-.181-.027-.32-.029-.53a.073.073 0 0 1 .059-.024c0-.066 0-.052.012-.082s0-.075 0-.113c-.005-.009-.013-.019-.017-.024a.848.848 0 0 0-.021-.112.257.257 0 0 1-.038.021 1.308 1.308 0 0 1 .023-.222c.024.016.015.035.039.06v-.082-.05c0-.034-.005-.059-.005-.088h-.017v-.024c-.014-.038-.014-.048-.034-.057a.43.43 0 0 1 .026-.136v-.058a.066.066 0 0 0 .013-.028 1.615 1.615 0 0 0 0-.219v-.142h-.021a.268.268 0 0 0-.013-.047c0-.081 0-.148.006-.225a.4.4 0 0 0 .016-.112h.014v-.055c0-.019 0 .005.015-.023a2.357 2.357 0 0 0 .018-.276c-.018-.022-.014-.038-.031-.056a.409.409 0 0 1 .021-.142.83.83 0 0 0 0-.244.355.355 0 0 0-.007-.056.166.166 0 0 1-.016.027v-.03c-.019-.054-.019-.139-.047-.17a.287.287 0 0 1 0-.052c-.01-.012-.021-.019-.031-.031a.966.966 0 0 1 .012-.276.12.12 0 0 1 .008-.053v-.054a.35.35 0 0 1 .021-.033v-.016a.094.094 0 0 1 .014-.036.846.846 0 0 1 0-.107v-.359a.616.616 0 0 1-.02-.059v-.44l-.026-.032a.335.335 0 0 0-.005-.053c0-.232.014-.222.052-.274a1.99 1.99 0 0 0 0-.3 1.113 1.113 0 0 1-.015-.278c.01-.065.023-.127.037-.188h.012c.006-.085.012-.125.018-.219h-.014v-.116a.205.205 0 0 1-.018-.057v-.276c0-.006 0-.015.011-.027v-.053h.014c0-.116 0-.141-.022-.165a.614.614 0 0 1 .03-.2c0-.046-.006-.088-.006-.139a.311.311 0 0 1-.02.029.539.539 0 0 0-.012-.059v-.161c0-.015 0-.024-.011-.029v-.059a.323.323 0 0 0-.021-.055v-.111a1.4 1.4 0 0 0-.016-.443v-.037a.192.192 0 0 0 .041 0 .134.134 0 0 1 .018-.057 3.123 3.123 0 0 0 0-.332v-.05a.189.189 0 0 1-.015-.029.544.544 0 0 0 0-.086.131.131 0 0 0-.011-.056v-.223c0-.1 0-.2.006-.3a.509.509 0 0 0 .028-.08 1.266 1.266 0 0 0-.03-.334.154.154 0 0 0 0-.051.226.226 0 0 1 .005-.086v-.138-.169c0-.087-.007-.142-.009-.218a.1.1 0 0 1 .021-.028v.028h.009c.008-.052 0-.118.016-.167a.255.255 0 0 1 0-.054c0-.12 0-.241.012-.36a1.55 1.55 0 0 0-.006-.252c0-.027 0-.051-.006-.083h-.025v-.222c.012-.029.023-.07.035-.108a.39.39 0 0 1 .006-.083 2.587 2.587 0 0 0-.018-.388.112.112 0 0 1-.012-.027c0-.092.008-.182.01-.278.037-.033.032-.1.051-.189a.421.421 0 0 0 .027-.081v-.082a.18.18 0 0 0 .011-.03.309.309 0 0 1 .007-.079.893.893 0 0 0-.011-.194v-.25c.007-.011.017-.014.022-.027a.4.4 0 0 1 .016-.082c0-.018-.012-.267-.006-.286v-.137a.982.982 0 0 1 .059-.3c-.006-.1-.016-.13-.018-.223.013-.076.025-.147.041-.22a.065.065 0 0 1 .045.03v.016a.813.813 0 0 0 .172-.035c.034-.05.062-.159.1-.191v-.053a.083.083 0 0 1 .048.033v.053c.024 0 .035-.014.056-.026v-.053h.014a.379.379 0 0 1 0-.055c.013-.017.033.048.049.055 0-.1 0-.095.014-.19a.083.083 0 0 1 .071.059v.171a.3.3 0 0 1 .009.079c.037-.01.044-.055.085-.05a.848.848 0 0 0 .018.169c.01-.011.024-.352.031-.359v-.025c.011 0 .012.046.03.025v-.025c.024-.038.042-.053.077-.053v.082c.028 0 .026 0 .043-.05v-.018c.02-.015.038-.008.056-.008v.081c.023.149.027.021.053.054v.025a.1.1 0 0 0 .018.038v-.031h.054a.046.046 0 0 1 0 .021c.005.014.008.014.012.014v.027a.109.109 0 0 1 .021.026v.019a.71.71 0 0 0 .035-.072v.027l.024.03v.028h.019v.025a.428.428 0 0 0 .077.005v.027h.017v.024c.014.024.1-.024.111-.041 0 0 .017-.089.025-.081v.028a.174.174 0 0 0 .025.027v.029a.205.205 0 0 1 .063.006v-.031a.206.206 0 0 0 .021-.027v.027a2.148 2.148 0 0 0 .7.01v-.022c.006-.01.018-.021.025-.031v-.026a.377.377 0 0 0 .066 0v-.028h.026v-.027l.027-.026v-.025a.272.272 0 0 1 .037 0v-.031a.017.017 0 0 1 .013 0 .192.192 0 0 1 .016-.054.2.2 0 0 0 .012-.055l.053.033v-.033c.018-.031.027-.045.049-.052v.056a.13.13 0 0 0 .032.03v-.03a.333.333 0 0 0 .058-.021c0 .029-.021-.067-.021-.041h.013a.472.472 0 0 0 .008.137c0 .009 0 .021.009.027a.062.062 0 0 0 0-.021h.017c0-.031.011-.052.013-.09a.028.028 0 0 1 .02.006c0-.017 0-.035.005-.055h.026c.011-.022.066.02.088.047s.011-.027.033-.069a.025.025 0 0 1 .011-.023c.006-.02.027.088.028.069h.022c0-.017 0-.038.005-.049s.375.089.389.1c0-.037-.022.129-.022.1.03 0 .055-.006.066.057.017.006.06-.2.082-.2 0-.037-.016.132-.012.1s.012.015.021-.052h.072s1.2.127 1.215.113v-.033a.284.284 0 0 0 .027-.025v-.056c.017-.011.019-.027.028-.08a.524.524 0 0 1 .026.055v.088c.029-.012.021-.014.04-.056v-.032a.2.2 0 0 0 .069.008v-.029c.013 0 0 .019.008.029a.138.138 0 0 1 .025.006v.023a.031.031 0 0 1 .016 0v.027a.16.16 0 0 1 .048 0 .031.031 0 0 0 .012.025.906.906 0 0 0 .014-.111c.02-.006.015 0 .027-.049.041.012.139-.185.172-.143v.031a.25.25 0 0 1 .026-.031c0-.053 0-.027.007-.053v-.021c.01.021.012 0 .027.021a.027.027 0 0 0 .011.027.429.429 0 0 1 0 .058h.013v.027c.016.006.029.006.039.023a.414.414 0 0 0 .033.037.784.784 0 0 0 .006.084c.014.016.021.054.046.031.01-.014.041-.048.059-.025v.028h.039a.439.439 0 0 0 .011.082c.025 0 .739-.1.763-.1v.021a.349.349 0 0 0 .073.039v-.02c.005-.006.008-.006.017-.006 0-.017.006-.037.008-.058.02-.045.029.053.058.006 0-.018.006-.037.006-.054.028 0 1.214.047 1.243.047v.017a.2.2 0 0 0 .072.016.083.083 0 0 0 .018.055v.025a.076.076 0 0 1 .029 0v.027h.025a.031.031 0 0 0 .009.027c0-.009 0-.043.013-.027v.027a.03.03 0 0 0 .017 0c0 .012 0 .021.013.029v.02a.034.034 0 0 0 .026.011v.019a.026.026 0 0 0 .02.006v.023a.043.043 0 0 0 .018.008v.029c.038 0 .076.005.117.005v-.023a.83.83 0 0 1 .1-.026v.018a.146.146 0 0 0 .058.008v.031h.011v.031c.016.021.042-.044.054-.056s.932-.167.953-.171v-.031h.021a.117.117 0 0 1 .016-.053.087.087 0 0 0 0-.027h.026v-.026a.606.606 0 0 1 .077.061.41.41 0 0 1 .061-.027v.027a.326.326 0 0 1 .068 0v-.028a.3.3 0 0 0 .047 0 .08.08 0 0 1 0 .026.013.013 0 0 1 .011.005v.025h.022c.007.011 0 .023.007.028a.062.062 0 0 1 .006-.028v.028a.247.247 0 0 0 .024-.022v-.021a.1.1 0 0 1 .052-.009v.003a.805.805 0 0 1 .092.025.048.048 0 0 0 .007.027.055.055 0 0 1 0 .018.027.027 0 0 0 .027.015c0 .012 0 .034.007.051a.036.036 0 0 1 .021 0l.035.024c.016-.01.046-.124.073-.076a.033.033 0 0 0 .017.027v.028c.016.035.033.03.048.057v.021a.492.492 0 0 0 .1-.019v.029c.02.037.027.031.052.061a.059.059 0 0 0 .007.028v-.016a.088.088 0 0 1 .049-.007.085.085 0 0 1 0-.027l.081.059v.019c0 .008.014.34.02.34a.163.163 0 0 0 .006.054h.012a.593.593 0 0 0 .007.06c.026.052.049-.122.078-.027.015.027.015.056.03.09 0 .1-.017.616-.015.722.018.023.015.006.018.083.024.032.021.085.043.112v.056h.014a.205.205 0 0 0 .013.082v.138c0 .093.008.184.011.278a.134.134 0 0 0 .007.054c0 .187-.005.372-.007.552 0 .4 0 .8.011 1.188a.921.921 0 0 1-.009.167.92.92 0 0 0 .007.141c0 .222-.005.441 0 .663 0 .034 0 .076.007.108s.012.041.019.062-.007.053-.007.081c0 .006.01.006 0 .058a.132.132 0 0 1-.008.049.1.1 0 0 0 .008.054v.249a.07.07 0 0 1 .014.03c0 .148 0 .292-.008.442-.01.13.008.4.011.5.012.16-.021.248 0 .39v.078a.325.325 0 0 0 .008.084.859.859 0 0 1 .016.165c.019.021.018.03.027.06zm.547-3.688a.152.152 0 0 0-.007-.059 2.443 2.443 0 0 0-.031-.309c0-.079-.008-.164-.012-.218a.993.993 0 0 0 0-.168v-.219a.562.562 0 0 0-.01-.111 1.085 1.085 0 0 0 0-.142v-.385a.329.329 0 0 1-.01-.084h-.023a1 1 0 0 0-.024-.222c-.011-.09.014-.175 0-.278-.011-.03-.023-.057-.034-.081a.544.544 0 0 0 0-.085.106.106 0 0 1 0-.056.791.791 0 0 1 .008-.138.125.125 0 0 1 .008-.053v-.14c.006-.117 0-.157 0-.276h.012a2.573 2.573 0 0 0-.011-.445h.013a1.292 1.292 0 0 0-.037-.41c-.062-.105-.152-.049-.208-.131s-.046-.145-.073-.239c-.051-.167.007-.165-.1-.28-.037-.033-.164-.09-.213-.127-.114-.092-.222-.3-.319-.017-.008.021 0 0-.008.049-.026.016-.091.086-.123.048-.014-.018-.043-.085-.069-.058v.025h-.017c-.029.045-.016.049-.049.026-.006-.085-.016-.111-.026-.2a.234.234 0 0 1-.035 0 .394.394 0 0 1-.012.054v.059a.994.994 0 0 1-.044.107c-.03-.023-.062-.04-.1-.062l-.138.022v.017a.079.079 0 0 1-.035.033.118.118 0 0 0 .006-.025h-.045v-.024a.015.015 0 0 0-.014-.008v-.02a.14.14 0 0 0-.042 0 .281.281 0 0 0-.007-.061c-.035-.059-.06.134-.1.078v-.026h-.013v-.026h-.027v-.031h-.01v-.029h-.761v-.033c-.02-.025-.053.016-.063.028-.027.027-.064-.028-.082-.034a.222.222 0 0 1-.008.052.433.433 0 0 1-.043.029.051.051 0 0 0 0 .017.032.032 0 0 1-.029.008v.031h-.031v-.031h-.056v-.024c-.025-.047-.047-.03-.076-.01v.056a.333.333 0 0 0-.043-.029v-.031c-.017.011-.033.018-.051.031v-.031a.146.146 0 0 0-.026 0v.025h-.022v.029a.453.453 0 0 0-.076 0v.028l-.032.022v-.028a.063.063 0 0 1-.026-.025v-.03c-.021.009-1.334.017-1.358.025v-.025h-.012v-.028c-.017-.025-.046.011-.054.024v.031c-.014-.008-.027-.025-.041-.035v-.02c-.037-.053-1.3.121-1.342.046a.359.359 0 0 1-.006-.059c-.031-.013-.068-.02-.107-.033v.024a.284.284 0 0 0-.063.032v-.034a.172.172 0 0 1-.03-.028v-.026a.541.541 0 0 1-.11-.013v-.023c-.013-.022-.06-.085-.081-.056v.016c-.005.009-.009.009-.014.009a.27.27 0 0 1-.008.053c-.029-.01-.066-.023-.1-.031v.028a.411.411 0 0 0-.063.082v.022c-.033.037-.045-.091-.079-.061v.029c-.02.009-.8.017-.825.022v-.026h-.033c-.01-.007 0-.033-.009-.033v.029h-.032v.028a.233.233 0 0 0-.049 0v.028h-.015v.031c-.021-.008-.045-.025-.068-.035v.027l-.08.026v-.026c-.027 0-.054-.008-.081-.008-.011.008-.052.052-.068.025v-.017c-.01-.031-.039-.059-.055-.046v.02a.034.034 0 0 1-.03.01v.017a.052.052 0 0 1-.039.008v.031c-.036.029-.068-.071-.083-.031-.051 0-.069-.008-.082-.146a.229.229 0 0 0-.056.138c-.019-.019-.026-.031-.032-.089a.125.125 0 0 1-.034 0 .55.55 0 0 0-.008.06h-.015v.025c-.01.033-.01.036-.028.052 0-.076-.014-.077-.017-.137-.042 0-.039.044-.05.159-.013-.029-.035-.084-.049-.113h-.974v-.026c-.019.009-.033.014-.052.025a.364.364 0 0 0-.067 0v.028l-.034.024v.059c-.009-.02-.033-.107-.04-.117s-.01.027-.016.031a.113.113 0 0 0-.018 0c-.008.031-.008.056-.015.082h-.018v-.082a.747.747 0 0 1-.1-.033v.027c-.014.037-.016.062-.034.082v.055c-.023.015-.068.057-.1.023v-.031h-.035v.018c-.014.025-.028.044-.04.062a.746.746 0 0 1-.046-.088.13.13 0 0 0 0 .031h-.034v.025h-.041a.309.309 0 0 1-.005.052.268.268 0 0 1-.03.029.728.728 0 0 1-.008.194v-.194s-.015-.052-.022-.084a.455.455 0 0 1-.086-.006v.03h-.029v-.027s-.005-.006-.012-.006v-.024c-.02.007-.043.018-.064.024a.136.136 0 0 0 0-.017.043.043 0 0 0-.033-.01.044.044 0 0 0 0 .017c-.007.008-.016.008-.026.008v-.031h-.012v-.025a.362.362 0 0 0-.066.024v-.03h-.014c-.003 0 0-.02-.01-.025a.1.1 0 0 1 0-.018c-.02-.016-.044.088-.072.043a.153.153 0 0 0-.013-.059v.029h-.021v.028c-.021.024-.046-.023-.062-.032-.016.009-.036.013-.052.02v-.023a.04.04 0 0 1-.022-.006v-.025h-.026v-.017c0-.01-.01-.01-.017-.01s0-.021 0-.027c-.021-.028-.03.052-.054.052h-.02v-.02a.064.064 0 0 0-.042-.009.2.2 0 0 1 0 .029c-.019.025-.082-.02-.1-.034a3.959 3.959 0 0 1-.291.474 1.236 1.236 0 0 0-.247.485 2.783 2.783 0 0 0-.018.532c.008.09-.014.289 0 .446a1.435 1.435 0 0 1 .009.383.113.113 0 0 1-.009.055v.774a2.85 2.85 0 0 1 .01.364.28.28 0 0 1-.008.08.391.391 0 0 1-.01.083 2.082 2.082 0 0 1 0 .336c0 .045 0 .091-.007.133a1.172 1.172 0 0 1-.011.193.259.259 0 0 1 0 .085c0 .144 0 .3.005.44.007.093.008.187.008.28a.175.175 0 0 1-.013.08v.167a.6.6 0 0 1-.006.105c0 .226 0 .449-.005.667.006.174.022.288.021.527a.4.4 0 0 0-.036.081c.005.119.008.238.005.357a.622.622 0 0 1-.007.114.093.093 0 0 1-.01.053.935.935 0 0 1-.007.142.047.047 0 0 0 .007.024v.032c-.006.005-.007.013-.015.023a.1.1 0 0 0 .008.057v.633c0 .014.01.017.01.032a.129.129 0 0 0 .008.053c0 .081 0 .167.006.25a1.71 1.71 0 0 1-.008.19.609.609 0 0 0 .007.113c0 .035-.005.077-.005.114 0 .237-.008.478 0 .717v.083a1.137 1.137 0 0 0 .008.167 2.3 2.3 0 0 0 .022.417.621.621 0 0 1-.032.216 1.716 1.716 0 0 0 0 .277 1.806 1.806 0 0 1 .008.225h.017a2.749 2.749 0 0 1-.037.413v.328a.1.1 0 0 0 .02.027 1.8 1.8 0 0 1 0 .225.723.723 0 0 1-.005.107.1.1 0 0 1-.012.026v.115s-.043 1.083-.064 1.156a.662.662 0 0 0 .013.169c.024-.027.018-.059.041-.085a.23.23 0 0 1 .005-.053.077.077 0 0 1 .008-.027c0 .062.007.129.013.194a1.543 1.543 0 0 1-.017.219c0 .005-.007.02-.015.026s-.071 1.3-.071 1.3v.163c.006.025 0 .056.012.085a.6.6 0 0 1 .008.109.02.02 0 0 1 .012 0c0-.056 0-.029.008-.056v-.033a.027.027 0 0 1 .02.006 1.366 1.366 0 0 1-.015.161c0 .157-.013.812-.005.8 0 .031-.022.273-.022.273a1.953 1.953 0 0 0 .007.226 2.63 2.63 0 0 1 .015.3c.005 0 .023.029.023.029 0-.08.018-.217.014-.334l.02-.189a1.308 1.308 0 0 0 .021.195v-.195a.516.516 0 0 0 .027-.137c.007 0 .027-.038.027-.038a.261.261 0 0 0 .022.04v.083a1.283 1.283 0 0 0 0 .248c0 .012.03.016.035.006a.444.444 0 0 0 .025.114c0 .124-.031.253-.031.3a.778.778 0 0 0-.022.161h-.014c.006-.16.019-.14.024-.272a.183.183 0 0 1-.018-.033v-.165c-.01-.02-.03-.008-.044 0v.016a.236.236 0 0 1-.019.042c0 .1.008.2.013.3l-.078.136v-.085h-.028c0 .08 0 .161-.009.245.021-.01.064.147.072.2v.055c-.019-.025-.008-.015-.033 0-.007.154-.032.28-.039.466-.019.029-.04.025-.056.081v7.871a.329.329 0 0 1 .013.058c0 .061.082.388.067.443a.718.718 0 0 0 .025.249 2.422 2.422 0 0 1-.021.251.483.483 0 0 1 0 .082l-.02.055a.231.231 0 0 1-.008.079.31.31 0 0 1 0 .058v.057a.191.191 0 0 0-.019.025.785.785 0 0 1-.008.11 1.8 1.8 0 0 0 0 .221c0 .092 0 .434.005.5 0 .017 0 .785.012.8 0 .058-.019.419-.026.44.006.126.017.173.047.2a1.578 1.578 0 0 0 .006.221.089.089 0 0 0 .014.027.923.923 0 0 0 .009.113c0 .113 0 .221-.008.331a.042.042 0 0 0 .006.029v.106h.012a1.731 1.731 0 0 0 0 .224.113.113 0 0 1-.026-.03 2.127 2.127 0 0 1-.01.273c0 .16.055 1.334.063 1.308a.787.787 0 0 0 .029.086c0 .042-.009.09-.01.137a.271.271 0 0 1-.011.051v.146s-.016.171-.016.185a.071.071 0 0 1-.018.027c0 .082-.009.166-.012.252a.264.264 0 0 1-.015.025.11.11 0 0 1-.009.054.174.174 0 0 0 .016.113c0 .134 0 .275.009.413a2.2 2.2 0 0 1-.015.3c0 .1 0 .2.006.3 0 .149 0 .3.009.444a1.917 1.917 0 0 0 .017.306v.141a.32.32 0 0 1 .058.059v-.058h.026a1.455 1.455 0 0 1 .009.169c.01.023 0-.006 0 .023a.412.412 0 0 0 .086-.02v.026h.027a.056.056 0 0 0 .018-.026v.019a.093.093 0 0 0 .048.01v.031c.012.007.017.022.026.027v.019a.04.04 0 0 0 .024.009v.033h.014v.025h.018v.028a.154.154 0 0 1 .036.031.206.206 0 0 1 .009.053h.019v.027c.046.066.07-.073.094.088.042.01.055 0 .072-.1.011.007.02.02.031.026a.726.726 0 0 0 .055.169c.009.009.021.023.032.025v.059c.029-.011.06-.011.089-.022 0-.009.082-.072.082-.076a.56.56 0 0 1 .052-.027v-.028a.376.376 0 0 0 .053.028.42.42 0 0 0 .011.056l.042.033v.025c.011.025.054.088.076.056v-.025h.019v-.024h.017v-.054h.017v-.03h.017v-.025h.019v-.025a.489.489 0 0 1 .095.033v-.022c.007-.01.013-.01.013-.01v-.017c.011-.017.115.041.131.056v-.029a.261.261 0 0 1 .035-.027v-.082a.209.209 0 0 1 .106-.021v.107c.034 0 .064-.013.1-.019v-.027h.015v-.026c.037-.065.077-.025.094.085.035 0 .045-.02.058-.109.039.017.035.087.066.119v-.056h.111v.056c.024-.005.029-.013.031-.1h.051c0 .1.005.173.005.245a.516.516 0 0 0 .054.032c0-.018 0-.035.008-.055h.016v-.052c.033-.007.071-.016.107-.021a.037.037 0 0 1 .007-.027.564.564 0 0 1 .07.03v-.028h.036v-.023a.891.891 0 0 1 .128.062c.047-.009 1.341-.014 1.389-.023v.03a.792.792 0 0 1 .109.007v-.022a.358.358 0 0 1 .048-.032.759.759 0 0 1 .01-.084.447.447 0 0 1 .081-.02v.027h.111v-.027h.012v-.022c.01 0 .037.1.067.059a.493.493 0 0 0 .007-.057c.017-.008.034-.017.05-.023s0-.036.006-.057a.1.1 0 0 1 .028 0v-.03a.617.617 0 0 0 .062.06c.02-.006 1.573-.012 1.594-.021v.026a.3.3 0 0 0 .03.026.238.238 0 0 0 .027.087v.029c.032.046.08-.02.1.059.017-.007.024.007.03-.054a.163.163 0 0 1 .007-.056.548.548 0 0 1 .014-.081.753.753 0 0 0 .078.033v.031c.019.005.026-.079.031-.084.041.021.081.036.121.061a.211.211 0 0 0-.005.058h.045s0-.035.015-.026.005.039.02.008a.094.094 0 0 1 .034-.034v-.057c.027-.01.077-.126.11-.075v.059c.042.006.085.021.126.031a.119.119 0 0 1 0 .029c.009.019 1.181.057 2.209.057v-.027h.072c0 .027.01.058.013.083h.045a.294.294 0 0 1 .026-.079.081.081 0 0 0 0-.017.171.171 0 0 1 .064-.006v.026l.054-.057v.062c.02.01.047.1.068.057a.373.373 0 0 1 .033-.109v-.019c.049-.075.092.139.14.064a.32.32 0 0 1 .009-.059l.026-.025c.01-.01 0-.036 0-.054a.657.657 0 0 0 .071-.025v.019a.236.236 0 0 0 .088-.011v.056a.756.756 0 0 1 .108.031v-.029c.009 0 .017.008.025.008v-.035h.042c.008-.056.017-.108.027-.16h.018v-.029c.024.008.024 0 .028.083a.2.2 0 0 1 .075.115c.026-.015.026-.041.047-.081a.053.053 0 0 0 0-.025.294.294 0 0 1 .156-.079v.033a.508.508 0 0 1 .075-.025.155.155 0 0 0 0 .026.71.71 0 0 0 .069.141.516.516 0 0 0 .032-.134c.02-.008.041-.014.066-.026v.029a.462.462 0 0 1 .083.005.594.594 0 0 1 .005-.083h.021v.056h.081c0 .075.01.059.014.137l.122-.019c.005-.058.007-.11.01-.167.023-.008.035-.027.05-.052v.056c.019-.014.039-.036.06-.052 0-.018.006-.035.008-.054.026-.038.029.05.033.054.024.016.047.021.068.038v-.032a.115.115 0 0 1 .041 0c.023.028.027.076.061.083a1.16 1.16 0 0 1 .168-.211v.052c.028.01.036.021.049.087.026-.011.033-.054.047-.108v-.027a.293.293 0 0 0 .036-.024v-.032a.036.036 0 0 0 .015 0v-.026h.034c0-.024 0-.052.007-.083s.022-.052.035-.08v-.079c.006-.009.009-.024.012-.024a.181.181 0 0 1 .008-.064.435.435 0 0 0 .009-.078.06.06 0 0 0 .026 0 .331.331 0 0 1 .022-.112v-.017a.077.077 0 0 1 .022-.036.514.514 0 0 1 0-.082.479.479 0 0 1 .006-.056 1.5 1.5 0 0 0-.007-.28.036.036 0 0 1 .026.01c.009-.086.015-.169.021-.253.005-.02.016-.033.022-.053a.16.16 0 0 1 .006-.055c0-.18.014-.347.017-.526-.028-.027 0-.014-.017-.078a.1.1 0 0 1-.013-.037 1.033 1.033 0 0 1 0-.216h.012v-.111c.007 0 .051-.173.055-.186 0-.085.008-.168.012-.253 0 0-.008-.073-.008-.106 0-.005.01-.2.009-.253-.013-.015-.006 0-.013-.029-.02-.075 0-2.238.013-2.343.008-.13.013-.259.016-.388s0-.262 0-.384a.526.526 0 0 0-.02-.06v-.111s-.063-1.731-.063-1.773c.007-.009.012-.024.014-.025a.461.461 0 0 1 .008-.088.3.3 0 0 1 .008-.081c0-.146.006-.294.006-.44.006-.01.016-.016.02-.025v-.088h-.013v-.19c-.017-.057-.017-7.4-.042-7.431a.414.414 0 0 0-.011-.114c.006-.151.008-.31.022-.463a.2.2 0 0 1 .008-.058v-.223a.1.1 0 0 1-.013-.023v-.084a.133.133 0 0 1-.015-.028.4.4 0 0 0-.006-.087.159.159 0 0 0 0-.055.681.681 0 0 0-.014-.137v-.081h-.014a.719.719 0 0 0-.017-.251.343.343 0 0 1 .007-.085v-.025h.02a1.522 1.522 0 0 1-.006-.224c.01-.011.013-.035.023-.05a.855.855 0 0 1 0-.111 1.573 1.573 0 0 0-.01-.223h.01l.022-.386c0-.038.026-.272.022-.387a.612.612 0 0 1 .006-.107c.006-.129.006-.258.009-.389a2.875 2.875 0 0 0 .029-.41 1.075 1.075 0 0 0-.012-.115 2.766 2.766 0 0 1 .013-.41c0-.121 0-.241-.009-.361a1.6 1.6 0 0 1 .015-.247v-.248c-.008-.019-.012-.039-.02-.062a.127.127 0 0 0 0-.05 2.642 2.642 0 0 1 0-.36.032.032 0 0 0-.016 0c0-.144.01-.244.01-.385a.882.882 0 0 1-.011-.2.171.171 0 0 0 .014-.025.305.305 0 0 1 .008-.084.156.156 0 0 1 .007-.054.616.616 0 0 1 .007-.113.567.567 0 0 1 .007-.08 1.77 1.77 0 0 0-.035-.5.217.217 0 0 1 .013-.079v-.063c0-.006.009-.018.014-.028 0-.046-.007-.046-.007-.046v-.116c-.006-.007-.007-.02-.011-.028 0-.063 0-.133-.007-.194a1.511 1.511 0 0 1 .015-.165 1.144 1.144 0 0 0-.012-.14v-.136a.137.137 0 0 0-.016-.029c.008-.057.01-.112.017-.163a.345.345 0 0 0-.013-.034v-.134l-.009-.169v-.492c0-.042.008.008 0-.03a.524.524 0 0 0 0-.084.251.251 0 0 0 0-.056.171.171 0 0 0-.006-.054v-.085a.1.1 0 0 1-.016-.034v-.077a.308.308 0 0 0-.014-.03c0-.018.006-.036.009-.053a.161.161 0 0 1-.013-.028.5.5 0 0 0-.006-.109 1.787 1.787 0 0 1 .03-.333v-.085c-.019-.019-.019-.049-.036-.082v-.057h-.013v-.2l.022-.048v-.111a.156.156 0 0 1 .012-.027c0-.142 0-.275-.01-.416a2.5 2.5 0 0 0 0-.276v-.02a.021.021 0 0 1 .02-.01 4.352 4.352 0 0 0 .027-.5c-.008 0-.012-.016-.016-.025v-.136a.1.1 0 0 0-.016-.029.219.219 0 0 0 0-.053 1.33 1.33 0 0 0-.008-.224v-.108s-.007-.019 0-.032c0-.076 0-.147.007-.214a2.468 2.468 0 0 1 .013-.284.785.785 0 0 1 .013-.106v-.084c.006-.012.01-.014.014-.025 0-.16.011-.313.011-.47a.558.558 0 0 1 .007-.11.165.165 0 0 1 .007-.055.218.218 0 0 1 0-.056.945.945 0 0 0 0-.111.167.167 0 0 0 .007-.107" class="cls-1" transform="translate(-595.213 -285.114)"/>
            </g>
            <g id="그룹_446" transform="translate(204.81 273.845)">
                <path id="패스_159" d="M232.8 306.683a.3.3 0 0 0 .432 0 2.146 2.146 0 0 0 .39-.56c.112-.092.085-.158-.06-.2s-.309-.092-.475-.152a.437.437 0 0 0-.344-.041c-.135.023-.2.112-.232.259a.409.409 0 0 0-.015.414.4.4 0 0 0 .3.28m-4.961 2.234c.167-.382.755-.592 1.768-.64s1.531-.22 1.555-.543a1.3 1.3 0 0 0-.2-.764 2.109 2.109 0 0 1-.374-.542.881.881 0 0 1-.021-.33 1.679 1.679 0 0 0-.016-.458c0-.06-.058-.109-.166-.154s-.2-.076-.282-.1a.543.543 0 0 1-.211-.354 1.091 1.091 0 0 0-.158-.389.845.845 0 0 0-.311-.329 1.546 1.546 0 0 1-.31-.245 4.935 4.935 0 0 1-.222-.567 4.856 4.856 0 0 0-.187-.481c-.079-.171-.158-.263-.223-.282s-.1-.12-.1-.322a.6.6 0 0 0-.7-.638 2.184 2.184 0 0 1-1.1-.2.642.642 0 0 0-.189-.1.539.539 0 0 0-.344-.027c-.109.031-.147.119-.1.262s.033.246-.023.305c-.029.056-.119.112-.285.151a.37.37 0 0 0-.29.325 1.542 1.542 0 0 1-.263.551 2.758 2.758 0 0 1-.434.5c-.079.06-.176.04-.283-.048s-.208-.1-.287-.04a3.064 3.064 0 0 0-.512.372 1.7 1.7 0 0 1-.472.287c-.494.048-.741.245-.741.563s-.233.55-.692.7a5.68 5.68 0 0 0-.741.15c-.27.074-.391.224-.37.459a7.257 7.257 0 0 1-.139.809 1.819 1.819 0 0 0-.062.676c0 .371 0 .7.019.985a.925.925 0 0 0 .182.588.953.953 0 0 0 .783.329 5.609 5.609 0 0 1 .978.109c.22 0 1.158-.01 2.807-.024s2.563-.2 2.724-.543m12.093-24.545c.136.207.284.414.449.63a1.316 1.316 0 0 1 .249.809 4.992 4.992 0 0 1-.083.98 1.085 1.085 0 0 1-.451.684 1.783 1.783 0 0 1-.538.242c-.241.07-.43.14-.567.193a.865.865 0 0 0-.289.237.4.4 0 0 1-.329.155c-.295 0-.593.01-.876.02a3.1 3.1 0 0 1-.845-.063c-.024 0-.061-.059-.1-.178s-.088-.171-.144-.171a3.417 3.417 0 0 0-.655-.022c-.218.018-.445.022-.694.022-.139 0-.187-.035-.142-.109s-.04-.13-.224-.158a8.09 8.09 0 0 0-1.069 0c-.384.028-.752.049-1.11.049a.5.5 0 0 1-.285-.087c-.08-.064-.12-.032-.12.087 0 .053 0 .218.021.477s.11.4.309.4c.4 0 .588.133.547.4a2.575 2.575 0 0 0 .146 1.047c.107.232.194.432.265.61a1.744 1.744 0 0 1 .1.656c-.026 1.165-.047 1.839-.06 2.01a1 1 0 0 0 .185.609.462.462 0 0 1 .042.35 2.991 2.991 0 0 0-.042.564c0 .208-.049.311-.147.311s-.186.115-.266.347a1.6 1.6 0 0 0-.04.613 1.1 1.1 0 0 1-.039.529 6.974 6.974 0 0 1-.388.627 2.037 2.037 0 0 1-.306.327.868.868 0 0 0-.268.378c-.073.156-.145.307-.227.451-.058.15-.12.228-.189.242s-.125.081-.181.2a6.808 6.808 0 0 1-.494.663 6.145 6.145 0 0 1-.9.826l-.041.042-.041.048a7.4 7.4 0 0 0 .917.456c.316.133.51.469.592 1.026a3.651 3.651 0 0 0 .041.393c.025.174.085.258.168.258.106-.027.23.033.365.177a.844.844 0 0 0 .374.261.616.616 0 0 1 .588.221 3.06 3.06 0 0 0 .517.479 1.36 1.36 0 0 0 .55.175.579.579 0 0 1 .477.267 2.941 2.941 0 0 1 .547 1.348c.1.553.173 1.116.23 1.705a1.608 1.608 0 0 1-.435 1.352 2 2 0 0 0-.592 1.134 2.9 2.9 0 0 0-.062.354 2.065 2.065 0 0 1-.105.392c-.1.406-.241.606-.409.585s-.356.182-.576.594l-1.678.173a.907.907 0 0 0-.633-.2c-.232.02-.4.026-.512.026-.681.084-1.079.127-1.187.127a3.922 3.922 0 0 0-.656.087l-.453.26a1.494 1.494 0 0 1-.817-.1.771.771 0 0 0-.58-.067 1.653 1.653 0 0 0-.526.218 1.144 1.144 0 0 1-.614.175 3.1 3.1 0 0 1-.622.017c-.026-.006-.144-.072-.364-.191a1.7 1.7 0 0 0-1.434.108 1.876 1.876 0 0 1-1.387.2.4.4 0 0 1-.249-.15.424.424 0 0 0-.246-.154.625.625 0 0 0-.515.046.618.618 0 0 1-.554 0 2.407 2.407 0 0 1-.778-.441.748.748 0 0 0-.694-.213.959.959 0 0 1-.676-.2 1.969 1.969 0 0 1-.6-.943 2 2 0 0 1-.205-.175 1.242 1.242 0 0 1-.161-.221 4.011 4.011 0 0 1-.023-.651 3.292 3.292 0 0 0-.017-.617 6.12 6.12 0 0 1 .017-1.81 1.277 1.277 0 0 1 .764-1.023 1.522 1.522 0 0 1 .7-.266c.165 0 .253-.184.289-.566a2.8 2.8 0 0 0 .141-.592 1.659 1.659 0 0 1 .217-.671 8.071 8.071 0 0 1 .6-.767 5.111 5.111 0 0 0 .556-.718 1.848 1.848 0 0 0 .266-.5 2.124 2.124 0 0 1 .225-.458.128.128 0 0 0-.041-.088c-.025-.028-.025-.085 0-.175a1.355 1.355 0 0 1 .266-.476.786.786 0 0 1 .311-.263c.073-.119.174-.13.289-.042s.237.067.407-.046c.194-.143.247-.273.181-.368a.681.681 0 0 1-.1-.2 1.266 1.266 0 0 0 .188-.412.962.962 0 0 1 .224-.422 1.1 1.1 0 0 1 .514-.237c.149-.014.336-.036.548-.067a.593.593 0 0 1 .416.154.505.505 0 0 0 .453.112.948.948 0 0 1 .262-.046 1.157 1.157 0 0 0 .265-.045 1.052 1.052 0 0 1 .658.066 2.194 2.194 0 0 0 .531.284.9.9 0 0 0 .659.091 1.761 1.761 0 0 1 .694-.049.067.067 0 0 1 .055.025.1.1 0 0 0 .065.023c0-.175.01-.374.019-.6a2.39 2.39 0 0 1 .061-.459.8.8 0 0 0 .142-.174.77.77 0 0 0 .105-.217 1.974 1.974 0 0 0 .06-.719 3.947 3.947 0 0 1 .02-.724.91.91 0 0 0-.02-.432.728.728 0 0 1 .1-.571 3.215 3.215 0 0 1 .759-.984c.342-.3.364-.561.062-.764a1.532 1.532 0 0 1-.512-.458 1.9 1.9 0 0 1 .078-1.4 1.394 1.394 0 0 0 .19-.851 1.257 1.257 0 0 0-.328-.959 1.585 1.585 0 0 1-.452-.7.646.646 0 0 1 .019-.371.754.754 0 0 0 .022-.414 1.531 1.531 0 0 0-.162-.328.631.631 0 0 1-.124-.326 4.924 4.924 0 0 1-.022-.7c.016-.23.022-.42.022-.567a1.109 1.109 0 0 1 .222-.767 2.843 2.843 0 0 0 .4-.5.282.282 0 0 0 .062-.241.87.87 0 0 1 .019-.327l-.038-.917c0-.493.058-.78.176-.85a.35.35 0 0 0 .19-.326c0-.091-.034-.136-.106-.154a.416.416 0 0 1-.179-.1 1.069 1.069 0 0 1-.273-.463 2.043 2.043 0 0 1-.059-.5v-3.278a.659.659 0 0 1 .083-.458c.083-.13-.072-.27-.453-.413v-3.232h.9c.216 0 .415.006.6.017a.908.908 0 0 1 .429.155.136.136 0 0 0 .058.108q.063.07.1.07a.37.37 0 0 1 .211.063c.05.042.123.091.2.154h.574a.614.614 0 0 1 .555.3.821.821 0 0 0 .387.4.991.991 0 0 0 .677.042 2.246 2.246 0 0 1 .713-.042.375.375 0 0 1 .146.154 1.787 1.787 0 0 1 .1.192 1.012 1.012 0 0 1 .582.288.793.793 0 0 1 .241.591.627.627 0 0 1-.1.367 2.528 2.528 0 0 0-.184.375 4.7 4.7 0 0 0-.158.5.966.966 0 0 1-.29.458c-.031.031-.1.045-.227.045a.349.349 0 0 0-.266.084.229.229 0 0 0-.043.134v.172c0 .469.059.589.165.374s.164-.039.164.543c0 .325.022.876.062 1.664a2.512 2.512 0 0 1-.186 1.481.7.7 0 0 1-.205.133c-.106.056-.164.12-.164.179a3.445 3.445 0 0 1-.04.476c-.024.2.014.3.128.3.214 0 .339.032.385.088a2.242 2.242 0 0 0 .351.3.7.7 0 0 0 .247.066 1.413 1.413 0 0 0 .286.025 1.048 1.048 0 0 0 .673-.179 2.1 2.1 0 0 1 .641-.305h.649a.265.265 0 0 0 .125-.108.646.646 0 0 1 .082-.108 1.13 1.13 0 0 1 .447-.241 2.179 2.179 0 0 1 .7-.11 2.716 2.716 0 0 1 1.411.351 3.077 3.077 0 0 1 1.008.917M211.9 297.47a1.02 1.02 0 0 0 .474-.022.537.537 0 0 0 .387-.326.49.49 0 0 0 .019-.459 1.185 1.185 0 0 0-.306-.416.756.756 0 0 0-.942-.043c-.388.2-.527.455-.454.746a.542.542 0 0 0 .308.392 2.443 2.443 0 0 0 .514.127m13.605-4.06a1.44 1.44 0 0 1 .821.413 1.253 1.253 0 0 1 .415 1.16q-.047 1.045-1.421 1.621c-.909.372-1.422.329-1.532-.133a2.579 2.579 0 0 1-.613.133.7.7 0 0 0-.456.214 2.219 2.219 0 0 0-.162.35c-.981 0-1.332.007-1.043.022s-.257.066-1.62.153a1.342 1.342 0 0 1-.856-.153 1.1 1.1 0 0 0-.623-.2c-.356.585-.732.813-1.142.682s-.8.1-1.152.715a6.788 6.788 0 0 1-1.044.4 5.449 5.449 0 0 1-1.777.085 1.718 1.718 0 0 0-.785.017 3.55 3.55 0 0 1-.778.112 6.132 6.132 0 0 0-1.432.154c-.431.1-.862.2-1.273.28H207.5c-.541 0-.873-.143-1.012-.435a6.754 6.754 0 0 1-1.579-2.528c-.363-1.019.256-1.4 1.871-1.138a4.793 4.793 0 0 0 1.308.154 6.113 6.113 0 0 0 1.146-.154 1.93 1.93 0 0 1 .641-.172 5.638 5.638 0 0 1 1.038-.087 1.268 1.268 0 0 0 .416.021 2.011 2.011 0 0 0 .693-.2c.27-.112.5-.207.676-.258a1.2 1.2 0 0 1 .6-.047 3.688 3.688 0 0 1 .423.372c.235.22.407.093.516-.372h.651a.189.189 0 0 0 .21-.216q0-.829-.024-1.334c-.014-.333-.036-.7-.059-1.114a7.985 7.985 0 0 1-2.933-.437 2.57 2.57 0 0 1-1.211-1.832 2.751 2.751 0 0 1-.551-.589 1.407 1.407 0 0 1-.264-.854c0-.35 0-.686.02-1s.331-.714.965-1.18a4.44 4.44 0 0 1 .735-1.03c.27-.273.507-.5.7-.675.163-.23.345-.479.531-.742s.386-.507.574-.739a6 6 0 0 0-.8.147 2.688 2.688 0 0 1-.631.112c-.574 0-.871.116-.886.351s-.308.346-.879.346-1.13.007-1.664.022a17.388 17.388 0 0 1-1.863-.063c-1.064-1.338-1.129-2.36-.2-3.054a.475.475 0 0 1 .778.017c.246.28.655.227 1.229-.15a1.9 1.9 0 0 0 .411-.025 1.714 1.714 0 0 1 .369-.021 12.383 12.383 0 0 0 2.706-.434 15.6 15.6 0 0 1 2.783-.484 1.075 1.075 0 0 0 .366-.129 2.264 2.264 0 0 1 .335-.133h.1c.012 0 .025-.011.025-.043a3.245 3.245 0 0 0-.536-2.1 3.879 3.879 0 0 1-.821-1.831.965.965 0 0 1 .415-1.205 3.379 3.379 0 0 1 1.591-.325 1.149 1.149 0 0 0 1.066.239 7.848 7.848 0 0 1 1.069-.106c.332 0 .641.225.94.679a2.3 2.3 0 0 1 .45 1.285 4.259 4.259 0 0 0-.7 1.421 7.4 7.4 0 0 0-.2 1.85c0 .09.021.016.093-.214s.159-.319.27-.263a4.083 4.083 0 0 0 2.028-.2 3.591 3.591 0 0 1 1.7-.242 2.294 2.294 0 0 1 .759.918 2.936 2.936 0 0 1 .141.878 1.405 1.405 0 0 1-.858 1.418 7.28 7.28 0 0 1-2.829.326.981.981 0 0 0-.189.024 1.566 1.566 0 0 0-.224.063c.115.091.224.182.348.285a3.789 3.789 0 0 1 .349.324 4.566 4.566 0 0 1 1.456 1.728c.227.574.486 1.176.753 1.813.357.235.474.693.336 1.377s-.442 1.026-.9 1.026a1.9 1.9 0 0 0-.446.046 2.955 2.955 0 0 0-.7.306 2.461 2.461 0 0 1-.737-1.291 4.717 4.717 0 0 0-.409-1.246c-.246-.435-.45-.777-.621-1.023a.956.956 0 0 1-.2-.64 4.2 4.2 0 0 0-.138-.5 1.313 1.313 0 0 0-.187-.371c-.165-.144-.278-.19-.327-.13s-.22.028-.493-.087a1.465 1.465 0 0 0-.656.522 3.77 3.77 0 0 1-.947.833 2.518 2.518 0 0 0-1.225 1.022 8.263 8.263 0 0 1-.656.946c-.112.027-.189.181-.248.48s-.082.449-.082.476c0 .379.02.714.045 1.006a.736.736 0 0 0 .243.57 5.819 5.819 0 0 1 1.56-.179 11.771 11.771 0 0 0 1.966-.175 1.107 1.107 0 0 1 .389-.108c.234-.041.476-.081.713-.107a.923.923 0 0 1 .642-.113 3.686 3.686 0 0 0 .794.07 6.115 6.115 0 0 0 .882.8.8.8 0 0 1 .4.593c0 .672-.092 1.05-.249 1.138a3.558 3.558 0 0 1-1.23.126 1.828 1.828 0 0 1-.189.09c-.065.032-.143.056-.224.088a.567.567 0 0 1-.552.3 1.171 1.171 0 0 1-.551-.221c.053.207.1.4.139.571a.483.483 0 0 1-.139.477 1.344 1.344 0 0 0-.066.487.967.967 0 0 0 .066.3 1.374 1.374 0 0 0 .8.175.909.909 0 0 1 .8.343c.084.119.262.165.535.133a3.869 3.869 0 0 0 .815-.172c.5-.178.8-.178.905-.023a.64.64 0 0 0 .573.241 2.15 2.15 0 0 0 1.276-.417 1.792 1.792 0 0 1 .977-.413" class="cls-1" transform="translate(-204.81 -273.845)"/>
                <path id="패스_160" d="M367.443 280.484a1.374 1.374 0 0 0 .563.141h.92l-.04 2.363a3.369 3.369 0 0 0-.293.541 3.9 3.9 0 0 1-.246.505.394.394 0 0 0 .1.411.43.43 0 0 1 .021.513 1.567 1.567 0 0 1-.268.389c-.069.056-.1.26-.1.618a3.154 3.154 0 0 0 .042.453c.023.19.038.319.038.372a4.139 4.139 0 0 1-.163 1.3 4.282 4.282 0 0 1-.538.719 29.551 29.551 0 0 0-.122 5.432.985.985 0 0 0 .477.548.969.969 0 0 1 .389.9c0 .172-.005.355-.024.544a1.389 1.389 0 0 1-.1.463.553.553 0 0 0-.084.106 1.244 1.244 0 0 1-.081.108.636.636 0 0 0-.02.287 1.335 1.335 0 0 1 .02.239 9.7 9.7 0 0 0 .122 2.564 7.526 7.526 0 0 1 .207 1.682q0 .574.017 1.358a1.968 1.968 0 0 1-.223 1.145 4.434 4.434 0 0 1-1.086 1.222 3.046 3.046 0 0 0-.918 1.187c-.225.431-.443.611-.658.541a1.464 1.464 0 0 0-.983.2c-.249-.38-.445-.682-.6-.9a1.78 1.78 0 0 1-.222-.984c0-.5-.017-.955-.042-1.376s-.039-.87-.039-1.341c-.031-.284 0-.425.1-.387s.139-.011.139-.133a3.442 3.442 0 0 0-.038-.506 2.533 2.533 0 0 1 0-.635l.038-.66a8.872 8.872 0 0 0-.139-2.033c-.15-1.323-.225-2.271-.225-2.823 0-.583.068-.832.2-.765s.2-.1.2-.5v-2.014a5.358 5.358 0 0 1 .124-1.25 8.768 8.768 0 0 0 .2-1.248l-.445-.61a14.7 14.7 0 0 1-.1-1.581c-.015-.614-.023-1.021-.023-1.224a2.588 2.588 0 0 1-.143-.962c.014-.323.025-.579.025-.791 0-.438-.074-.642-.212-.61s-.2-.222-.2-.748V281.8a.2.2 0 0 0-.122-.16c-.082-.039-.126-.091-.126-.145a4.452 4.452 0 0 0-.059-.621 1.185 1.185 0 0 1 .023-.607.538.538 0 0 1 .407-.44 1.308 1.308 0 0 0 .49-.217 3.458 3.458 0 0 1 .409-.351.91.91 0 0 1 .455-.225c.407 0 .608.2.594.6s.161.594.512.594a1.3 1.3 0 0 0 .491-.088 1.007 1.007 0 0 1 .411-.091c.326 0 .511.039.551.109a1.47 1.47 0 0 0 .387.326m2.38 31.048a3.836 3.836 0 0 0 .531.544c.141.11.042.464-.282 1.079a2.22 2.22 0 0 0-.289.962 1.316 1.316 0 0 1-.282.782c-.308.5-.462.769-.482.814s-.086.068-.219.068c.031-.064-.207-.089-.695-.089s-1.011-.013-1.565-.041a8.263 8.263 0 0 0-.958-.116 2.45 2.45 0 0 0-.88.116c-.355.085-.608.041-.753-.131a1.218 1.218 0 0 0-.928-.267h-1.313c-.874 0-1.465.015-1.759.044s-.893.044-1.762.044h-1.314a1.083 1.083 0 0 0-.548.151c-.189.1-.382 0-.6-.326-.077-.119-.246-.038-.5.239a1 1 0 0 1-.731.417c-1.472.026-2.538.043-3.2.043a.657.657 0 0 0-.389.134 1.405 1.405 0 0 1-.307.175 2.816 2.816 0 0 1-.778-.021c-.3-.046-.557-.085-.779-.113-.1-.027-.177-.182-.2-.459a1.27 1.27 0 0 0-.166-.59 1.964 1.964 0 0 0-.285-.33.534.534 0 0 1-.21-.323c0-.267-.112-.392-.344-.378s-.2-.249.1-.8c.136-.21.177-.344.119-.419s-.04-.21.046-.411a1.8 1.8 0 0 0 .16-.6c.061-.338.1-.608.127-.811-.051-.495-.084-.85-.108-1.075s-.019-.547-.019-.979a1.131 1.131 0 0 0-.265-.814 1.246 1.246 0 0 1-.184-.983c.03-.264.486-.808 1.354-1.624a13.008 13.008 0 0 1 1.309.464 15.31 15.31 0 0 0 1.644.548 1.02 1.02 0 0 1 .512.454 1.217 1.217 0 0 1 .1.814 2.305 2.305 0 0 1-.125.5.932.932 0 0 0-.081.374 1.365 1.365 0 0 0-.059.852 7.749 7.749 0 0 1 .1 1.559c-.434.583-.569.966-.39 1.155a1.566 1.566 0 0 0 .3.289c0 .027.129.112.393.264a2.724 2.724 0 0 0 .883.3 1.286 1.286 0 0 0 1.04-.218c.235-.207.374-.213.425-.042h1.154a1.494 1.494 0 0 1 .945-.263h1.189a1.214 1.214 0 0 1 .648.133 1.629 1.629 0 0 0 .906.042 6.271 6.271 0 0 1 .846-.365 3.778 3.778 0 0 1 1.2-.249c.06-.028.164-.095.334-.193a1.274 1.274 0 0 1 .49-.2c.325-.059.5.024.5.263s.362.319 1.1.259a.91.91 0 0 0 .557-.238.859.859 0 0 1 .713-.158.933.933 0 0 0 .8-.063 1.373 1.373 0 0 1 .676-.242 5.775 5.775 0 0 0 1.418-.326.916.916 0 0 1 1.125.372m-13.316-13.752a2.035 2.035 0 0 0 .308.572c.176.267.289.453.349.568.3.467.1.913-.6 1.338a4.177 4.177 0 0 1-2.026.675 2.258 2.258 0 0 0-.411.305.6.6 0 0 1-.45.138 1.334 1.334 0 0 1-.821-.377 1.4 1.4 0 0 1-.531-.677 2.143 2.143 0 0 1-.068-.853 1.153 1.153 0 0 0-.138-.766 1.95 1.95 0 0 0-.661-.635 1.565 1.565 0 0 1-.615-.986 3.794 3.794 0 0 1-1.006-1.075c-.3-.481-.613-.966-.919-1.464-.023-.144-.263-.421-.716-.832s-.55-.713-.308-.92a3.126 3.126 0 0 1-.022-.59c.015-.217.2-.446.555-.678q.944-1.795 1.38-1.752c.284.029.616-.336 1-1.095a1.842 1.842 0 0 1 .506-.814 2.584 2.584 0 0 0 .6-.675.776.776 0 0 1 .341-.112c.157-.011.228-.084.228-.2 0-.028.007-.1.023-.221s-.08-.155-.265-.13c-.273.031-.421.06-.432.088s-.213 0-.595-.088c-.2.12-.4.246-.617.379a2.653 2.653 0 0 1-.653.28c-.114.061-.233.134-.368.217a1.246 1.246 0 0 1-.412.176c-.062.029-.117-.028-.184-.176s-.225-.185-.474-.128a2.883 2.883 0 0 0-1.005.744 1.744 1.744 0 0 1-1.372.524 3.786 3.786 0 0 0-.964.484 2.038 2.038 0 0 1-1.332.389c-.3.032-.412.123-.348.264s-.183.221-.757.221c-.081 0-.215-.144-.409-.435a4.712 4.712 0 0 1-.494-1.011 1.08 1.08 0 0 1-.386-.677 1.537 1.537 0 0 1 .1-.938 1.015 1.015 0 0 1 .444-.773 2.053 2.053 0 0 1 1.24-.235c.567-.031.837.011.8.112s.072.147.348.147c.08 0 .21-.08.394-.237a.744.744 0 0 1 .792-.067 1.488 1.488 0 0 0 .617-.26.969.969 0 0 1 .533-.222 3.6 3.6 0 0 0 1.617-.347 2.668 2.668 0 0 1 1.412-.309 2.52 2.52 0 0 1 1.478-.527c.571-.027 1.048-.052 1.429-.088a2.65 2.65 0 0 1 1.047-.415c.393-.073.73-.125 1.007-.15.542-.323.8-.333.776-.024s.208.491.7.548c.06.463.1.772.133.919a1.653 1.653 0 0 1 .671.716 5.319 5.319 0 0 1 .1 1.212c0 .608-.048.92-.142.92s-.145.08-.145.259c.085.731-.161 1.163-.736 1.292s-1.089.27-1.555.415c-.273.055-.514.308-.72.747a1.2 1.2 0 0 1-.954.74c-.988.467-1.429.871-1.318 1.2s.037.52-.207.548a3.052 3.052 0 0 1-.04.485 4.046 4.046 0 0 0-.039.481c0 .2.175.313.528.351a4.142 4.142 0 0 1 .943.172 3.91 3.91 0 0 0 .989.524 4.013 4.013 0 0 1 1.067.614 2.7 2.7 0 0 1 1.08.705 2.24 2.24 0 0 1 .68 1.482m-8.366-3.107a1.9 1.9 0 0 0 .125.653 2.053 2.053 0 0 1 .127.66c-.437.322-.562.547-.373.684s.182.264-.04.412a2.075 2.075 0 0 1-.884.677 5.76 5.76 0 0 0-1.039.594 4.517 4.517 0 0 1-.593.942 4.93 4.93 0 0 1-.721.589 7.444 7.444 0 0 0-1.273 1.127 2.535 2.535 0 0 1-1.33.816c-.522.115-.8.171-.842.171a3.7 3.7 0 0 0-.473.091 7.435 7.435 0 0 0-.756.2 4.87 4.87 0 0 1-.967.151c-.522-.5-.649-.812-.383-.941s.423-.562.5-1.3a2.1 2.1 0 0 1 .7-.719 2.745 2.745 0 0 1 .9-.418.539.539 0 0 0 .307-.239 1.355 1.355 0 0 1 .27-.288.594.594 0 0 1 .4-.1c.135.009.258-.1.37-.33.412-.471.694-.717.859-.745a1.894 1.894 0 0 0 .741-.48 3.254 3.254 0 0 0 .6-.793 7 7 0 0 1 .553-.875 1.214 1.214 0 0 1 .651-.284 1.517 1.517 0 0 0 .861-.678c.222-.319.79-.178 1.717.436" class="cls-1" transform="translate(-296.912 -277.572)"/>
                <path id="패스_161" d="M555.85 314.9a2.229 2.229 0 0 0 1.15.862c.324.052.418.354.289.9a.443.443 0 0 1-.213.345.679.679 0 0 0-.244.355 11.206 11.206 0 0 1-.633 1.186 1.842 1.842 0 0 1-.515.618 1.575 1.575 0 0 1-.634-.082 6.388 6.388 0 0 0-1.171-.2 6.925 6.925 0 0 0-1.268-.086h-1.02c-.2.027-.445-.108-.76-.411s-.539-.446-.671-.446a6.634 6.634 0 0 1-1.025-.045c0-.026-.075-.036-.208-.036-.526 0-.464 1.143-1.168.719-.272-.164-.316-.92-.414-1.2s-.44-.647-.457-.942c-.01-.273.142-.3.184-.526.127-.651.375-.492.73-1-.091-.115-.064-.262-.108-.359a12.728 12.728 0 0 1 1.964-.131c.28 0 .634-.016 1.072-.046.058-.053.117-.108.185-.162a.9.9 0 0 1 .222-.124 4.563 4.563 0 0 1 1.253 0 9.327 9.327 0 0 0 1.576.04 3.257 3.257 0 0 1 .373.35.911.911 0 0 0 .282.227 5.157 5.157 0 0 0 .636.063 1.132 1.132 0 0 1 .595.141" class="cls-1" transform="translate(-442.568 -301.829)"/>
                <path id="패스_162" d="M549.822 321.421a.4.4 0 0 0 .269 0 .531.531 0 0 0 .227-.079.775.775 0 0 0 .059-.263c.017-.124 0-.2-.059-.23s-.165.01-.329.106a.86.86 0 0 0-.288.22.117.117 0 0 0 0 .128.278.278 0 0 0 .121.118" class="cls-1" transform="translate(-444.575 -306.691)"/>
                <path id="패스_163" d="M489.5 320.483a3.57 3.57 0 0 0 .529.513c.138.094.045.431-.283 1a2.092 2.092 0 0 0-.29.9 1.218 1.218 0 0 1-.283.735 8.334 8.334 0 0 0-.471.763c-.016.036-.1.06-.225.06.025-.058-.21-.087-.7-.087s-1.014-.01-1.557-.04a7.829 7.829 0 0 0-.964-.1 2.723 2.723 0 0 0-.881.1.757.757 0 0 1-.759-.118 1.243 1.243 0 0 0-.923-.25h-1.307c-.881 0-1.463.013-1.767.043s-.891.04-1.762.04h-1.3a1.158 1.158 0 0 0-.563.148c-.173.093-.369-.01-.589-.312-.086-.112-.248-.036-.492.226a1.029 1.029 0 0 1-.741.389c-1.472.025-2.541.043-3.19.043a.688.688 0 0 0-.391.122 1.842 1.842 0 0 1-.3.168 3.086 3.086 0 0 1-.784-.026c-.292-.036-.56-.073-.777-.1-.1-.029-.176-.17-.2-.43a1.2 1.2 0 0 0-.165-.555 2.063 2.063 0 0 0-.293-.309c-.134-.119-.2-.223-.2-.305 0-.244-.117-.361-.349-.348s-.2-.242.1-.759c.14-.188.174-.322.129-.389s-.044-.2.035-.388a1.361 1.361 0 0 0 .162-.551c.056-.321.094-.567.12-.76-.056-.469-.085-.8-.1-1s-.024-.511-.024-.924a1.016 1.016 0 0 0-.263-.756 1.092 1.092 0 0 1-.186-.923q.046-.37 1.351-1.519.61.168 1.313.434a14.192 14.192 0 0 0 1.632.506 1.009 1.009 0 0 1 .519.437 1.041 1.041 0 0 1 .1.755 1.6 1.6 0 0 1-.124.47.909.909 0 0 0-.082.352 1.334 1.334 0 0 0-.06.8 6.633 6.633 0 0 1 .107 1.452c-.445.549-.573.911-.393 1.085a1.338 1.338 0 0 0 .3.27c0 .025.129.108.391.243a2.856 2.856 0 0 0 .883.292 1.373 1.373 0 0 0 1.043-.21c.234-.191.38-.2.432-.044h1.148a1.585 1.585 0 0 1 .943-.235h1.201a1.281 1.281 0 0 1 .651.121 1.833 1.833 0 0 0 .9.036c.219-.105.5-.223.844-.352a4.341 4.341 0 0 1 1.21-.216c.048-.03.164-.089.327-.191a1.54 1.54 0 0 1 .49-.185c.325-.053.491.03.491.247s.372.306 1.113.249a.876.876 0 0 0 .544-.23.938.938 0 0 1 .725-.141 1.019 1.019 0 0 0 .795-.058 1.433 1.433 0 0 1 .682-.231 5.606 5.606 0 0 0 1.406-.305.971.971 0 0 1 1.129.348m-24.727-21.642c.136 0 .277-.118.414-.364s.064-.476-.206-.7a1.426 1.426 0 0 0-.636-.036c-.317.023-.514.092-.592.2a.563.563 0 0 0-.04.207.312.312 0 0 0 .04.161 2.406 2.406 0 0 0 .51.309 1.992 1.992 0 0 0 .509.22m13.773-3.966c.465 0 .777.31.945.94a6.593 6.593 0 0 1 .24 1.515c0 .272-.259.5-.776.673a4.554 4.554 0 0 1-1.475.267c-.163 0-.439.01-.818.023a2.421 2.421 0 0 1-.778-.059c-.161-.057-.218-.122-.161-.211s.007-.119-.127-.119h-1.762q-.531 0-.531.119c0 .089-.071.153-.205.211a2.227 2.227 0 0 1-.6.036 9.741 9.741 0 0 0-1.164.078 1.378 1.378 0 0 0-.513.188.9.9 0 0 1-.266.145 1.194 1.194 0 0 1-.288-.06 1.768 1.768 0 0 1-.373-.145.2.2 0 0 1-.1-.1.183.183 0 0 0-.1-.105 1.168 1.168 0 0 1-.142.127.633.633 0 0 1-.226.119 1.3 1.3 0 0 1-.489.125 5.3 5.3 0 0 1-.577-.042c-.3-.053-.54-.086-.713-.1a.689.689 0 0 0-.479.142.21.21 0 0 0 .044.2c.055.089.055.154 0 .21a.9.9 0 0 1-.141.349.447.447 0 0 0-.1.267c0 .355.005.6.021.736a.83.83 0 0 1-.1.446c0 .034-.053.053-.168.066s-.16.047-.16.1a4.649 4.649 0 0 1-.037.489 1.741 1.741 0 0 0 0 .615c0 .03.037.05.118.066s.12.046.12.1a1.9 1.9 0 0 0 .021.267 1.141 1.141 0 0 1 .027.306c0 .029-.048.079-.122.145s-.127.131-.127.185a.422.422 0 0 0 .041.184.87.87 0 0 0 .087.183 3.984 3.984 0 0 0 .122.575 1.854 1.854 0 0 1 0 .74c-.031.138.029.167.184.1a.924.924 0 0 1 .345-.1 6.814 6.814 0 0 1 .8.02 2.779 2.779 0 0 0 .637-.063 7.021 7.021 0 0 0 .7-.2 2.454 2.454 0 0 1 .69-.164 9.431 9.431 0 0 1 1.91-.125h1.814c.139-.029.295-.053.471-.081a3.2 3.2 0 0 0 .511-.122.94.94 0 0 0 .23-.208.445.445 0 0 1 .221-.157 2.587 2.587 0 0 1 .595-.1c.2-.019.386-.029.553-.029.218 0 .455.01.7.029a1.787 1.787 0 0 1 .573.1 1.2 1.2 0 0 1 .675.423 2.558 2.558 0 0 1 .342.638 2.107 2.107 0 0 1 .045.513 4.463 4.463 0 0 0 .163.963 1.866 1.866 0 0 0-.7.263.786.786 0 0 1-.333.187 11.645 11.645 0 0 1-2.426.085 14.486 14.486 0 0 0-2.482.036.817.817 0 0 0-.249.1.734.734 0 0 1-.242.1 1.131 1.131 0 0 1-.636-.02.771.771 0 0 0-.594.02c-.108.03-.277.065-.49.125a1.99 1.99 0 0 0-.619.251c-.057.016-.114.082-.17.18a.472.472 0 0 1-.159.182.887.887 0 0 1-.472.1c-.127-.01-.266-.016-.429-.016-.057 0-.131-.053-.225-.148a1.463 1.463 0 0 0-.392-.263.663.663 0 0 0-.389-.084h-.972a2.151 2.151 0 0 0-.47.049.865.865 0 0 0-.288.138c-.115.069-.2.135-.288.18-.109.056-.232.122-.353.19a.785.785 0 0 1-.385.1.964.964 0 0 1-.416-.023 2.809 2.809 0 0 0-.651-.066h-.308a.87.87 0 0 1-.424-.075 2.385 2.385 0 0 1-.6-.7 1.688 1.688 0 0 1-.269-.618v-3.522c0-.77 0-1.479-.034-2.153s-.042-1.383-.042-2.152c0-.053-.041-.093-.122-.122a.372.372 0 0 1-.167-.086 1.517 1.517 0 0 1-.207-.8c-.022-.391-.06-.687-.076-.882-.063-.406 0-.641.163-.692a.421.421 0 0 0 .287-.369q1.759 0 3.671-.085c1.263-.052 2.2-.083 2.8-.083.188 0 .3-.055.326-.164s.194-.158.5-.158h1.223a3.147 3.147 0 0 0 .675-.085 3.257 3.257 0 0 1 .674-.083 7.553 7.553 0 0 0 .884-.038 7.988 7.988 0 0 1 .883-.043 1.475 1.475 0 0 0 .364-.1 1.918 1.918 0 0 1 .624-.1h.647a.578.578 0 0 0 .372-.21.786.786 0 0 1 .572-.2c.107 0 .347-.017.717-.044a2.871 2.871 0 0 1 .839.044c.22.026.341.1.368.22s.079.194.165.194" class="cls-1" transform="translate(-381.472 -286.224)"/>
                <path id="패스_164" d="M545.846 292.471a.385.385 0 0 0 .263 0 .512.512 0 0 0 .229-.079 1.006 1.006 0 0 0 .064-.263c.011-.124-.014-.2-.064-.23s-.17.01-.33.106a.882.882 0 0 0-.284.22c-.032.033-.032.072 0 .128a.255.255 0 0 0 .121.118m-1.557-.654c.188-.546.259-.834.2-.861-.087-.052-.132-.086-.163-.086s-.069.034-.125.086a5.056 5.056 0 0 1-.484.269c-.311.148-.388.362-.258.634s.3.336.477.185.29-.227.35-.227m.92-3.033a2.793 2.793 0 0 0-.142.411c-.121.792-.457 1.288-.224 2.154.145.589-.086.611-.105 1.151a8.457 8.457 0 0 1-.182 1.941c-.026.027.034.069.165.125s.2.1.2.161a14.393 14.393 0 0 0-.018 1.578 3.842 3.842 0 0 1-.315 1.587.533.533 0 0 1-.142.165.5.5 0 0 0-.143.161c-.056.25-.056-.644 0 .229s.189.645.137.835c-.054.142-.2.215-.26.349a1.951 1.951 0 0 0-.072.423c-.052.452.083.9.064 1.355a1.961 1.961 0 0 0-.036.572c.036.15.166.256.166.423v.372c0 .086-.174.411-.69.887s-.506.437-.531.516c-.324.848-.762 1.2-1.133 1.143a1.612 1.612 0 0 1-1.036-.778 2.165 2.165 0 0 1-.437-1.594c.041-.752.055-1.154.055-1.209V300.6a5.921 5.921 0 0 0-.03-.956 1.551 1.551 0 0 0-.257-.667.676.676 0 0 1-.052-.452c.009-.4.018-.8.018-1.2a5.273 5.273 0 0 1 .081-1.169 1.972 1.972 0 0 0 .185-.243c.068-.112.279-.1.637.039.134.026.325-.177.571-.615s.221-.654-.083-.654a.424.424 0 0 0-.28.1.4.4 0 0 1-.374.027.62.62 0 0 1-.224-.168c-.045-.055-.1-.121-.153-.2a1.041 1.041 0 0 1-.361-.413c-.053-.135-.037-.23.041-.289a6.514 6.514 0 0 0 .164-1.939 11.937 11.937 0 0 1-.039-1.787 2.177 2.177 0 0 0-.065-.512 2.514 2.514 0 0 1-.06-.512c0-.05-.072-.11-.2-.161s-.2-.109-.2-.165c.025-.766.051-1.4.081-1.9a10.761 10.761 0 0 0-.043-1.545c-.023-.02-.1-.068-.2-.141s-.165-.128-.165-.178v-.413c0-.026.067-.029.2-.02s.21 0 .21-.023c0-.273 0-.555.022-.861a4.845 4.845 0 0 0-.022-.732c0-.059-.064-.1-.186-.125s-.185-.066-.185-.124v-.739c0-.05.069-.109.208-.162s.2-.1.2-.117a1.118 1.118 0 0 1 .106-.453 1.011 1.011 0 0 0 .018-.617c.71.194 1.1.236 1.146.147s.258-.069.617.1a4.013 4.013 0 0 0 .984.227 2.66 2.66 0 0 1 .9.227 7.352 7.352 0 0 0 1.742.187c.023.6.04 1.022.04 1.251s.012.667.04 1.288c0 .06-.062.109-.186.145s-.182.091-.182.141c0 .033.008.123.021.29s.021.289.021.372c.022.082.08.107.164.082a.114.114 0 0 1 .162.085 3.43 3.43 0 0 1 .125.466c.027.151.047.322.079.513a2.741 2.741 0 0 1-.22.571 3.007 3.007 0 0 0-.23.575c.027.057-.04.073-.206.063s-.232.007-.205.06a1.819 1.819 0 0 1 .04.84c-.053.125.263.4.263.648" class="cls-1" transform="translate(-437.278 -278.627)"/>
            </g>
        </g>
    </g>
</svg>
