<svg xmlns="http://www.w3.org/2000/svg" width="234.141" height="92" viewBox="0 0 234.141 92">
    <defs>
        <style>
            .cls-1{fill:#fff}
        </style>
    </defs>
    <g id="logo_13" transform="translate(-727.585 -362.036)">
        <g id="그룹_471" transform="translate(727.585 386.036)">
            <path id="패스_185" d="M773.835 407.557v.2a6.541 6.541 0 0 0 1.344 3.878c3.873-5.9 7.654-13.757 10.983-24.229h-12.953c-.973 2.739-1.964 5.224-2.963 7.48a24.265 24.265 0 0 1 3.589 12.669m-.391 6.609c-.125-.143-.25-.261-.37-.393a9.606 9.606 0 0 1-2.2-6.024v-.066a25.381 25.381 0 0 0-.182-2.971 21.686 21.686 0 1 0-8.093 20 24.944 24.944 0 0 1-6.1-10.934 9.544 9.544 0 1 1 2.213-6.1v.066a21.653 21.653 0 0 0 21.648 21.595l2.422-.023v-12.141l-2.422-.015a9.412 9.412 0 0 1-6.911-2.992" class="cls-1" transform="translate(-727.585 -386.036)"/>
            <path id="패스_186" d="M776.86 395.2v-6.236h-4.123V404.4h4.123v-6.313h3.7v-2.9zm-6.491 1.38a7.676 7.676 0 1 0-7.677 7.47 7.581 7.581 0 0 0 7.677-7.47m-11.591 0a3.949 3.949 0 1 1 3.914 4.368 4.163 4.163 0 0 1-3.914-4.368m5.733 16.968h12.349v-6.2a1.757 1.757 0 0 0-1.684-1.765h-14.857v2.9h12.418v2.159h-12.418v6.254a1.643 1.643 0 0 0 1.533 1.732h15.4v-2.894h-12.741z" class="cls-1" transform="translate(-684.927 -381.492)"/>
            <path id="패스_187" d="M794.244 392.692h3.916v-2.879h-20.6v2.879h3.6V403.2h-3.6v2.889h20.6V403.2h-3.916zm-4.116 10.51h-4.862v-10.51h4.862z" class="cls-1" transform="translate(-649.886 -380.164)"/>
            <path id="사각형_217" d="M0 0H27.301V2.889H0z" class="cls-1" transform="translate(124.331 30.444)"/>
            <path id="패스_188" d="M815.172 410.658v2.889H787.9v-2.889h11.79v-4.481h-6.067c-1.1 0-1.551-.669-1.551-1.735v-7.7H806.9v-4.062h-14.828v-2.9h17.336c1.172 0 1.581.6 1.581 1.763v8.083h-14.732v3.653h15.571v2.9H803.8v4.481z" class="cls-1" transform="translate(-633.817 -380.214)"/>
            <path id="패스_189" d="M808.718 413.594h26.87v-2.9h-26.87zm5.275-7.815h17.771v-2.894h-15.121v-3.694h14.891v-2.9h-14.891v-3.625h14.912l-.02-2.894h-17.629a1.708 1.708 0 0 0-1.472 1.5v12.779a1.663 1.663 0 0 0 1.559 1.735" class="cls-1" transform="translate(-601.448 -380.232)"/>
            <path id="패스_190" d="M791.721 400.593v2.887h-3.71v15.147H783.9l.061-9.005a24.281 24.281 0 0 1-7.314.864h-10.836v-2.9h3.206V394h-2.639v-2.89h15.9V394h-2.718v12.273c-1.093.084-2.312.133-3.666.133h-.429v-12.333h-2.333v13.479s1.725-.015 2.762-.015a26.479 26.479 0 0 0 8-.892v-17.686h4.11v11.634z" class="cls-1" transform="translate(-668.155 -381.492)"/>
            <path id="패스_191" d="M810.622 406.339h3.265v-17.38h-3.265v7.516h-2.585v2.9h2.585zm8.011-17.38h-3.607v17.38h3.607zm.217 20.243a1.748 1.748 0 0 0-1.543-1.763h-16.835v2.912h14.368v8.275h4.011V409.2" class="cls-1" transform="translate(-614.268 -381.492)"/>
            <path id="패스_192" d="M807.274 399.6a26.721 26.721 0 0 1-6.154-4.956l2.233-2.046a26.054 26.054 0 0 0 5.492 4.422z" class="cls-1" transform="translate(-613.26 -375.839)"/>
            <path id="패스_193" d="M809.37 389.609h-9.652v3.05h8.208c-1.477 5.048-7.087 9.335-9.531 10.6l1.482 2.67c3.206-1.653 10.3-7.258 11.345-14.038a1.8 1.8 0 0 0-1.852-2.284" class="cls-1" transform="translate(-617.497 -380.481)"/>
        </g>
    </g>
</svg>
