<svg xmlns="http://www.w3.org/2000/svg" width="106" height="92" viewBox="0 0 106 92">
    <defs>
        <style>
            .cls-1{fill:#fff}
        </style>
    </defs>
    <g id="logo_9" transform="translate(-5734.769 -2892.003)">
        <g id="그룹_467" transform="translate(5751.889 2892.003)">
            <path id="패스_177" d="M1330.454 401.461h4.674v-8.221l30.864-9.8 30.865 9.8v8.221h4.673v-11.642l-35.538-11.278-35.538 11.278z" class="cls-1" transform="translate(-1330.454 -378.541)"/>
            <path id="패스_178" d="M1399.378 466.306a5.735 5.735 0 0 1-2.521-.525v3.231c0 3.072-1.412 6.4-4.2 9.881-4.995 6.25-13.964 12.526-26.667 18.663-12.7-6.138-21.671-12.413-26.667-18.663-2.786-3.485-4.2-6.809-4.2-9.881v-5.744a11.247 11.247 0 0 1-1.7 1.778 11.875 11.875 0 0 1-2.971 1.86v2.107c0 7.679 5.992 19.68 34.535 33.246l1 .477 1-.477c28.543-13.566 34.534-25.567 34.534-33.246v-2.706z" class="cls-1" transform="translate(-1330.454 -410.952)"/>
        </g>
        <g id="그룹_468" transform="translate(5734.769 2914.007)">
            <path id="패스_179" d="M1376.948 446.383l4.4-1.235v-24.72h-4.4z" class="cls-1" transform="translate(-1331.12 -416.569)"/>
            <path id="패스_180" d="M1354 421.094a8.105 8.105 0 0 0-6.484 2.773 8.973 8.973 0 0 0-2.144 6.09 8.883 8.883 0 0 0 2.144 6.028 9 9 0 0 0 12.941 0 9.532 9.532 0 0 0 0-12.118 8.146 8.146 0 0 0-6.457-2.773zm3.094 12.192A3.7 3.7 0 0 1 1354 434.8a3.642 3.642 0 0 1-3.092-1.51 5.431 5.431 0 0 1-1.013-3.33 5.621 5.621 0 0 1 1.013-3.394 3.882 3.882 0 0 1 6.186 0 5.517 5.517 0 0 1 1.042 3.394 5.331 5.331 0 0 1-1.045 3.326z" class="cls-1" transform="translate(-1319.039 -416.824)"/>
            <path id="패스_181" d="M1456.307 430.265v-9.836h-19.4v3.9h15v5.933h-16.8v3.9h10.07v5.278h4.374v-5.278h8.714l1.107-3.9z" class="cls-1" transform="translate(-1353.366 -416.569)"/>
            <path id="패스_182" d="M1443.043 446.286h-4.405v8.236a2.687 2.687 0 0 0 .532 1.873 2.282 2.282 0 0 0 1.593.47h17.254l1.076-3.9h-16.05z" class="cls-1" transform="translate(-1354.719 -426.461)"/>
            <path id="패스_183" d="M1412.537 420.429h-4.406v12.948a8.609 8.609 0 0 0-2.493-.816v-3.67a7.171 7.171 0 0 1-5.432-4.654h5.055v-3.809h-15.017v3.809h5.054a7.172 7.172 0 0 1-5.432 4.654v4.148a11.264 11.264 0 0 0 7.885-4.733 11.285 11.285 0 0 0 5.514 4.174 7.967 7.967 0 1 0 9.269 7.884c0-.037-.005-.073-.006-.112h.006v-10.6h3.13l1.1-3.9h-4.228zm-8.364 23.9a3.966 3.966 0 1 1 4.02-3.966 3.992 3.992 0 0 1-4.02 3.967z" class="cls-1" transform="translate(-1336.062 -416.569)"/>
            <path id="패스_184" d="M1317.32 429.142a8.749 8.749 0 0 0 3.026-1.3 4.856 4.856 0 0 0 2.468-4.131 4.348 4.348 0 0 0-.548-2.136h2.566l1.064-3.539h-8.586v-2.583l-4.551-1.276v3.86h-8.492v3.539h3.523a4.432 4.432 0 0 0-.535 2.136 4.879 4.879 0 0 0 2.411 4.131 8.586 8.586 0 0 0 3.082 1.315v1.107h-10.019v3.706h5.014a7.208 7.208 0 0 0-1.333 4.285 7.287 7.287 0 0 0 2.672 5.756 9.2 9.2 0 0 0 11.842 0 7.22 7.22 0 0 0 2.734-5.756 7.1 7.1 0 0 0-1.363-4.285h4.033l1.106-3.706h-10.114zm.551 11.848a4.2 4.2 0 0 1-5.646 0 3.593 3.593 0 0 1 0-5.466 4.2 4.2 0 0 1 5.646 0 3.593 3.593 0 0 1 0 5.466zm-6.247-17.277a2.178 2.178 0 0 1 1.056-1.82 4.216 4.216 0 0 1 4.733 0 2.1 2.1 0 0 1 0 3.642 4.222 4.222 0 0 1-4.733 0 2.181 2.181 0 0 1-1.057-1.822z" class="cls-1" transform="translate(-1302.727 -414.178)"/>
        </g>
        <text id="Hong_Yi_Jang_Gun" fill="#fff" font-family="GothamMedium, Gotham Medium" font-size="3px" transform="translate(5783.714 2954.077)">
            <tspan x="-13.604" y="0">Hong Yi Jang Gun</tspan>
        </text>
        <text id="紅儿将军" fill="#fff" font-family="FZLTZHK--GBK1-0, Lantinghei SC" font-size="4px" transform="translate(5785.649 2961.669)">
            <tspan x="-8" y="0">紅儿将军</tspan>
        </text>
    </g>
</svg>
