<svg xmlns="http://www.w3.org/2000/svg" width="94" height="92" viewBox="0 0 94 92">
    <defs>
        <style>
            .cls-1{fill:#fff}
        </style>
    </defs>
    <g id="logo_10" transform="translate(-5421 -2790.999)">
        <g id="그룹_6714">
            <g id="그룹_5604" transform="translate(5439.279 2837.818)">
                <path id="패스_14170" d="M289.3 281.641s-5.5 11.935-2.085 32.553l8.44-2.109s-2.874-15.994 2.84-26.9z" class="cls-1" transform="translate(-262.302 -281.641)"/>
                <path id="패스_14171" d="M267.527 294.495c-2.448-11.5-17.772-12.077-21.664-11.26l.03 9.915s7.742-1.375 10.943 2.664l-8.991 1.105.287 8.5 8.169-1.354c-1.215 3.6-6.021 6.048-6.021 6.048l6.545 6.073s13.191-9.986 10.702-21.691z" class="cls-1" transform="translate(-245.863 -282.19)"/>
            </g>
            <g id="그룹_5605" transform="translate(5478.332 2837.743)">
                <path id="패스_14172" d="M331.572 293.079c-2.225-11.391-19.028-11.662-19.56-11.553l-.116 9.779s7.01-.2 8.543 3.376l-6.86-.178-.129 7.887 6.057-.2a15.108 15.108 0 0 1-5.621 4.787l6.1 6.432s13.998-7.994 11.586-20.33z" class="cls-1" transform="translate(-311.897 -281.513)"/>
                <path id="패스_14173" d="M362.911 286.881l-8.962-3.292a41.339 41.339 0 0 0-2.373 10.509c-1.058.165-2.427.328-4.082.482-.149 2.749-.379 6.415-.484 8.407 1.272-.164 3.426-.439 4.251-.517a75.643 75.643 0 0 0 1.223 11.716l8.2-2.124s-2.931-14.762 2.227-25.181z" class="cls-1" transform="translate(-326.244 -282.361)"/>
            </g>
            <g id="그룹_5603" transform="translate(5421 2801.999)">
                <g id="그룹_5596" transform="translate(32.707)">
                    <path id="패스_14174" d="M280.324 233.537a28.41 28.41 0 0 1 2.468-9.43l-9.233-3.032A47.178 47.178 0 0 0 270.325 236a67.921 67.921 0 0 0 1.787 18.177l8.957-1.637a59.566 59.566 0 0 1-1.252-10.528c1.392 0 5.155.507 5.155.507l.654-8.289s-4.142-.588-5.302-.693z" class="cls-1" transform="translate(-270.26 -221.075)"/>
                </g>
                <path id="패스_14175" d="M230.492 221.891c-8.58 0-15.534 7.33-15.534 16.37s6.955 16.369 15.534 16.369 15.535-7.33 15.535-16.369-6.954-16.37-15.535-16.37zm-4.106 17.695a5.211 5.211 0 1 1 4.937-5.2 5.076 5.076 0 0 1-4.937 5.2z" class="cls-1" transform="translate(-214.958 -221.408)"/>
            </g>
            <g id="그룹_5602" transform="translate(5471.725 2805.99)">
                <g id="그룹_5598" transform="translate(26.235 1.03)">
                    <path id="패스_14176" d="M356.884 231.713l-8.67-2.149s-5.076 8.7-2.306 26.386l8.422-1.425s-3.221-11.803 2.554-22.812z" class="cls-1" transform="translate(-345.082 -229.564)"/>
                </g>
                <path id="패스_14177" d="M312.843 227.823c-6.694 0-12.12 5.758-12.12 12.862s5.426 12.86 12.12 12.86 12.121-5.757 12.121-12.86-5.427-12.862-12.121-12.862zm-3.351 13.59a3.939 3.939 0 1 1 3.706-3.932 3.823 3.823 0 0 1-3.706 3.932z" class="cls-1" transform="translate(-300.723 -227.823)"/>
            </g>
        </g>
    </g>
</svg>
