<svg xmlns="http://www.w3.org/2000/svg" width="106" height="92" viewBox="0 0 106 92">
    <defs>
        <style>
            .cls-1{fill:#fff}
        </style>
    </defs>
    <g id="logo_12" transform="translate(-164.537 -247.104)">
        <g id="그룹_459" transform="translate(164.537 257.104)">
            <g id="그룹_457">
                <path id="패스_165" d="M185.861 293.408a18.424 18.424 0 0 0 11.677-4.144c.039 3.278.6 6.146 2.454 6.3 2.1.173 2.78-5.334 2.981-6.848s.637-5.646.891-6.834 1.01-2.493-2.2-4.362c-1.166-.676-2.948-.114-3.309 2.26-.1.7-.352 2.324-.547 4.273a16.4 16.4 0 0 1-12.078 4.479c-4.8-.272-12.668-4.842-11.218-14.263 1.3-8.511 10.825-11.931 18.507-11 6.93.83 8.29 3.98 6.955 5.982-1.721 2.582-7.505 3.806-11.812 2.86-2.02-.444-2.946-1.269-3.331-.565-.51.934-.387 2.834 4.284 4.04 8.126 2.1 16.177-2.747 16.829-6.987s-5.185-13.194-19.276-11.207c-13.818 1.942-18.686 14.319-17.259 22.2a16.559 16.559 0 0 0 16.452 13.816z" class="cls-1" transform="translate(-165.057 -257.104)"/>
                <path id="패스_166" d="M248.461 294.182a5.9 5.9 0 0 0 5.712-3.193c.51 1.631 1.386 2.666 2.933 2.689 3.585.055 6.684-5.836 7.443-8.739.447-1.711-.541-1.849-.977-1.9s-1.01.083-1.412 1.4-2.721 6.557-3.755 5.548-.82-5.425-.6-9.132 1.123-13.16 1.308-14.17.811-2.636-1.523-3.2c-1.114-.264-2.95-.412-3.153 2.411-.149 2.108-.709 6.947-.94 11.686-.289-.48-1.152-1.5-3.356-1.542-2.88-.057-6.359 2.126-7.225 7.9s2.284 10.131 5.545 10.242zm-1.087-9.632c.6-3.083 1.9-5.6 3.589-5.5 1.035.072 2.388 2.075 1.9 5.775s-2.01 6.778-3.7 6.665-2.386-3.861-1.788-6.94z" class="cls-1" transform="translate(-173.415 -257.805)"/>
                <path id="패스_167" d="M215.754 297.027c1.9-.045 6.747-.679 7.32-8.446s-4.287-9.846-7.056-9.572c-2.292.222-5.759 1.747-6.393 9.165-.61 7.126 4.118 8.897 6.129 8.853zm-1.368-8.9c.178-3.43.4-6.139 1.983-6.365 1.139-.163 2.561 2.573 2.516 6.227s-.7 5.783-1.985 5.783-2.692-2.211-2.514-5.644z" class="cls-1" transform="translate(-169.634 -259.6)"/>
                <path id="패스_168" d="M232.207 296.7c1.845.163 7.465-.741 7.4-8.973s-5.177-9.034-7.344-8.741c-.533.076-4.933.544-5.843 8.257-.961 8.157 4.515 9.344 5.787 9.457zm.889-15.069c.927-.112 2.19 1.919 2.31 5.2s-.5 6.613-1.909 6.682-2.571-2.16-2.519-5.832.772-5.881 2.122-6.052z" class="cls-1" transform="translate(-171.528 -259.594)"/>
                <path id="패스_169" d="M281.644 310.125s-6.379-9.292-16.64-7.692c-.623.2-.455 1.007-.455 1.007s1.927 7.894 12.481 7.4c1.719-.045 2.408-.237 3.4-.209 1.018.038 1.831.356 1.214-.506z" class="cls-1" transform="translate(-175.858 -262.235)"/>
                <path id="패스_170" d="M269.988 293.133a13.752 13.752 0 0 0 9.03-12.021c.081-.83-.521-.152-1.183.157-.21.1-2.784 1.3-2.784 1.3-7.766 4.229-5.821 9.956-5.821 9.956s.182.716.758.608z" class="cls-1" transform="translate(-176.362 -259.791)"/>
                <path id="패스_171" d="M261.4 296.433c-.369-1.109-2.477.02-9.679 1.608a156.081 156.081 0 0 1-38.529 4.5c-20.592 0-36.944-3.105-46.016-7.128a1.893 1.893 0 0 0-2.473 1.126c-.645 1.807.772 2.673 1.854 3.107 16.319 6.327 31.639 7.035 46.688 7.035s32.753-3.107 43.619-7.286c-.005-.041 4.901-1.85 4.536-2.962z" class="cls-1" transform="translate(-164.536 -261.455)"/>
            </g>
            <g id="그룹_458" transform="translate(12.971 49.332)">
                <path id="패스_172" d="M192.8 323.223a4.957 4.957 0 0 0 2.707-4.581v-.062c0-3.335-2.588-5.49-6.8-5.49h-9.561v18.382c0 1.587.623 2.85 3.026 2.85h6.771c4.648 0 7.711-1.944 7.711-5.824v-.062c.003-2.847-1.471-4.275-3.854-5.213zm-9.241-6.041h4.474c1.913 0 2.97.791 2.97 2.185v.059c0 1.578-1.264 2.245-3.265 2.245h-4.179zm8.593 10.739c0 1.575-1.207 2.306-3.208 2.306h-5.385v-4.672h5.241c2.325 0 3.355.877 3.355 2.307z" class="cls-1" transform="translate(-179.148 -312.785)"/>
                <path id="패스_173" d="M233.14 321.573c-3.562-.94-4.445-1.4-4.445-2.792v-.059c0-1.032.911-1.851 2.649-1.851a7.563 7.563 0 0 1 3.309.856h.006a.113.113 0 0 0 .034.02 2.23 2.23 0 0 0 3.3-.713l1.061-1.588a11.7 11.7 0 0 0-7.647-2.7c-4.208 0-7.211 2.554-7.211 6.4v.059c0 4.22 2.678 5.4 6.828 6.494 3.444.908 4.151 1.516 4.151 2.7v.062c0 1.239-1.119 2-2.971 2a9.311 9.311 0 0 1-6.154-2.577l-2.677 3.3a12.882 12.882 0 0 0 8.739 3.4c4.444 0 7.562-2.37 7.562-6.581v-.065c-.003-3.696-2.357-5.238-6.534-6.365z" class="cls-1" transform="translate(-184.114 -312.746)"/>
                <path id="패스_174" d="M257.056 317.244a2.813 2.813 0 0 0 2.669-2.624v-1.53h-15.54v18.382c0 1.587.628 2.85 3.03 2.85h12.51v-4.155h-11.037v-4.462h9.712v-4.154h-9.713v-4.307z" class="cls-1" transform="translate(-186.452 -312.785)"/>
                <path id="패스_175" d="M212.877 314.776a3.131 3.131 0 0 0-3.107-1.854h-1.838L199.1 334.3h2.637a2.725 2.725 0 0 0 2.657-1.712l1.207-3.053h8.714l1.885 4.765h4.738zm-5.652 10.636l2.737-6.885 2.737 6.885z" class="cls-1" transform="translate(-181.389 -312.766)"/>
            </g>
        </g>
    </g>
</svg>
