
<svg viewBox="0 0 128.10094 69.060143" version="1.1" id="svg12" width="128.10094" height="69.060143" xmlns="http://www.w3.org/2000/svg">
  <defs id="defs16"></defs>
  
  <path fill="#ffffff" d="M 117.44063,1.1924393e-4 H 10.680629 A 10.76,10.76 0 0 0 3.1106293,3.0801192 10.64,10.64 0 0 0 6.2929216e-4,10.700119 v 47.64 a 10.56,10.56 0 0 0 3.10000000784,7.59 10.69,10.69 0 0 0 7.5799997,3.13 H 117.44063 a 10.71,10.71 0 0 0 10.66,-10.72 v -47.65 a 10.61,10.61 0 0 0 -10.66,-10.68999975607 z" id="path2"></path>
  <path fill="#bf0d3e" d="m 124.35063,10.690119 a 6.86,6.86 0 0 0 -6.91,-6.9399998 H 87.600629 l 17.120001,28.6099998 1.58,0.2 1,1.31 v 1.22 l 1.08,0.22 1,1.36 v 1.18 l 1.12,0.2 1.13,1.23 v 2.72 a 18.54,18.54 0 0 0 4.5,3 c 1.51,0.58 1.68,3 2.59,4.29 1.14,1.88 2.7,2.63 2.37,3.68 -0.76,2.81 -3.64,7.55 -6.32,7.77 h -10.6 v 4.54 h 13.28 a 6.94,6.94 0 0 0 6.91,-7 v -47.59" id="path4"></path>
  <path fill="#041e42" d="m 51.350629,60.810119 h -5.13 c 0,-12.82 4.33,-19.91 9.52,-21.32 0.71,-0.13 0.37,-3.63 -0.53,-4.7 h -3 c -0.48,0 -0.2,-0.9 -0.2,-0.9 l 2.43,-5.19 -0.33,-1.42 h -8.98 l 7.38,-5.16 c 0.34,-13.6099998 14.3,-14.6699998 22.71,-9 5,3.31 5.38,9.87 5,14.4 -0.06,0.29 -1.3,0.1 -1.3,0.1 0,0 -0.85,5 1.37,5 h 9.81 c 4,-0.16 7.86,2.55 7.86,2.55 l 0.94,-3.43 -21.49,-27.9899998 h -66.73 a 7,7 0 0 0 -4.9399997,2 6.93,6.93 0 0 0 -2,4.9399998 v 47.65 a 6.84,6.84 0 0 0 2,4.92 7,7 0 0 0 4.9399997,2.05 h 43.32 c -1.06,-1.82 -2.27,-3.89 -2.64,-4.5" id="path6"></path>
  <path fill="#ffffff" d="m 13.360629,50.700119 c 1.51e-4,-4.232799 5.125722,-6.342435 8.105683,-3.337112 2.979962,3.005323 0.826966,8.112832 -3.405683,8.077112 -2.613781,0.0057 -4.727872,-2.126361 -4.7,-4.74" id="path8"></path>
</svg>
