<svg xmlns="http://www.w3.org/2000/svg" viewBox="0 0 108.42438 108.87616"><g id="a"></g><g id="b"><g id="c"><g><path d="M106.79686,17.02067c.15332-.16309,.29053-.31836,.41309-.46582,.3999-.48145,.67627-.92725,.84424-1.36084,.17334-.4458,.26123-.90674,.26123-1.37061,0-.72607-.18604-1.38281-.55078-1.94873-.36084-.56348-.86963-1.00488-1.51221-1.31152-1.19727-.5708-2.92676-.58789-4.14648,.03125-.51709,.26416-.9458,.62354-1.2793,1.0708-.34863-.46436-.80762-.83447-1.36768-1.10156-1.19678-.57178-2.92871-.58838-4.14648,.03076-.62158,.31689-1.11572,.77148-1.46826,1.3501-.30615-.44824-.67969-.8208-1.11621-1.11328-.69678-.46484-1.51904-.70068-2.44434-.70068-.92725,0-1.74902,.23633-2.44336,.70312-.4541,.30566-.84033,.69971-1.15381,1.17773-.02734-.04639-.05518-.09229-.08447-.1377-.36133-.56299-.87012-1.00391-1.51172-1.31006-1.19678-.57178-2.92871-.58838-4.14697,.03076-.63965,.32666-1.14502,.79932-1.50146,1.40576-.34814,.59326-.5249,1.28857-.5249,2.06592v1.1499h2.96729l-2.84961,2.62793v3.11572h8.21582v-1.00391c.17725,.17822,.36914,.33838,.57471,.47998,.69775,.48438,1.5249,.72949,2.4585,.72949,.93457,0,1.76123-.24316,2.45801-.72266,.23926-.16504,.45996-.35498,.66064-.56836v1.08545h15.01123v-3.93896h-1.6167Z" style="fill:#fff"></path><g><g><polygon points="65.46773 21.60912 43.85914 0 0 43.85914 65.01702 108.87616 108.42438 65.46933 108.42438 21.60912 65.46773 21.60912" style="fill:#fff"></polygon><path d="M102.56407,92.39375c-.01598-.06287-.03356-.12466-.05274-.18593,.05328-.54394,.06073-1.59933-.44592-2.73357-.67713-1.51676-1.92272-2.708-3.36702-3.23543-.23228-.20191-.49919-.36387-.78475-.47469-.2488-.09696-1.15182-.41342-2.32548-.41342-.49546,0-.97761,.05807-1.43844,.17208l.38891-.51304h-13.82023l.39957,.675h-23.11256l-.13479,1.07777c-1.41713-1.05805-3.18748-1.19764-4.47941-1.19764-1.91046,0-3.44427,.39051-4.65203,1.18911-.80819-.65369-1.90407-.98453-3.26739-.98453l-19.8425-.00107,2.70747,4.26258-1.47201,10.28166,17.32629-.00107c1.32603,0,2.47146-.34789,3.37181-1.0165,1.41979,1.0783,3.17416,1.22054,4.45118,1.22054,2.63608,0,4.63658-.82364,5.97166-2.45281,.76184,.77623,1.80764,1.21788,2.90246,1.21788l2.61743-.01012-.19339,1.56417h7.54383l.12307-.99785h10.94334l.21257-1.71015,1.18432-.00053-.50825,2.88221h7.65251l.38785-2.20241c.59935,.57484,1.55032,1.27489,2.8577,1.61425,.55247,.14384,1.13051,.2163,1.71761,.2163,1.43098,0,2.765-.42993,3.79003-1.21681,.31592-.08897,.61427-.23654,.87692-.43473,.24294-.18274,1.48745-1.17206,2.16352-2.70906,.54501-1.24399,.64836-2.5503,.30687-3.88219Z" style="fill:#fff"></path></g><g><rect x="24.51619" y="9.55507" width="59.84389" height="89.76616" transform="translate(-22.54903 54.43814) rotate(-45)" style="fill:#00aeef"></rect><polygon points="65.0167 22.70073 107.33334 65.01721 107.33334 22.70073 65.0167 22.70073" style="fill:#ed1b23"></polygon><g><path d="M76.32145,49.86679c0-.72155,.25079-2.32561,.25079-2.32561,0,0,1.34704,2.20171,2.33487,2.39677-.15793-.36534-.94757-1.89818-1.13647-4.09373-.1827-2.0593,.41182-5.18685,2.61666-7.75713,1.67835-1.95392,3.53324-2.76833,5.45322-3.20503-5.5399,10.84135-.71849,18.88341,.73081,21.03248,.49233,.72768,1.69073,2.38751,3.2019,3.5395-2.7963,1.12099-5.81547,.6131-5.87433,.61001,.32821,.11141,.66888,.20741,1.02809,.29418,1.09934,.26005,2.33487,.39321,3.73142,.35295,1.3874-.04026,3.25154-.76177,4.36627-1.57306,.23844-.17341,.4646-.35921,.67827-.55427v-.00313c3.4806-3.18338,3.53324-9.06075-.63488-12.39897-1.16437-.93206-3.35057-1.65048-4.81525-1.41826,.71839-1.20766,1.61958-1.48642,2.56715-1.64738,2.44315-.39644,5.02579,1.03425,6.75681,3.00065-.61004,.17954-1.55761,.47998-1.9973,.74316,2.19545,.85467,3.34431,1.24798,4.00396,3.25767,.92893,3.06564,.88567,6.11591-.72768,8.81611-2.49903,4.18673-8.14421,5.82795-12.99359,4.44678-10.36753-2.94488-9.54073-13.51369-9.54073-13.51369Z" style="fill:none"></path><path d="M100.62295,40.23493c-1.09312,.45521-.69365,1.91992-.42421,2.88298,.13013,.48924,.26015,.85158,.64723,1.50807,.39021,.65652,1.38417,1.44304,3.1369,2.18623-.36231,.20128-1.21388,.44898-1.80538,.60385,.67504,1.01573,1.45546,1.94779,2.338,2.71882,1.78986,1.56384,2.45564,1.61022,2.45564,1.61022,0,0,.22606-1.05596,.13003-2.10881-.04026-.46759-.25079-.83293-.49859-1.04044-.81745-.67504-1.41507-1.3842-1.99108-2.26987-1.15195-1.76502-2.54238-4.73161-.11151-5.08469,1.18628,.9545,2.14031,2.2433,2.83356,3.61528v-3.31557c-1.5671-.69545-2.95483-1.1379-4.17131-1.34631-.75868-.127-1.85179-.2478-2.53928,.04026Z" style="fill:#002461"></path><path d="M102.63274,61.27357c-9.28381,6.79707-18.30433,3.18332-18.30433,3.18332,0,0,3.01613,4.32914,8.55606,5.76595,2.99209,.77679,6.4578,.73937,9.49814-.25452l4.95094-4.95094v-9.56271c-1.16863,2.49566-2.96246,4.54634-4.70081,5.81889Z" style="fill:#002461"></path><path d="M100.71499,32.53697c.0309-.69052,2.77146-1.92924,2.77146-1.92924,0,0-7.02319-2.73747-12.57547,1.04983-2.0902,1.42442-5.12495,4.31363-5.90224,10.57497,.00313-.00926,.00936-.01855,.01249-.0279-.00313,.00936-.00936,.01865-.01249,.0279-.1888,1.58242-.28795,3.61385,.31905,6.28619,.17028-1.48636,.78342-3.2607,1.70925-4.68825,2.10269-3.2298,5.93011-5.48416,9.68637-5.96414,4.03193-.51428,7.18974,.14471,10.61014,1.59001v-6.66428c-.97278-.3973-1.98109-.63911-2.99855-.6793-1.34401-.04961-2.89846,.27557-3.62001,.42421Z" style="fill:#002461"></path><path d="M98.85577,58.9337c1.61335-2.70021,1.6566-5.75047,.72768-8.81611-.65965-2.00969-1.80851-2.403-4.00396-3.25767,.43969-.26318,1.38726-.56362,1.9973-.74316-1.73102-1.9664-4.31366-3.39709-6.75681-3.00065-.94757,.16096-1.84876,.43972-2.56715,1.64738,1.46468-.23222,3.65088,.48621,4.81525,1.41826,4.16812,3.33822,4.11547,9.21558,.63488,12.39897v.00313c-.21367,.19506-.43982,.38085-.67827,.55427-1.11473,.81129-2.97887,1.53281-4.36627,1.57306-1.39655,.04026-2.63208-.0929-3.73142-.35295-.35921-.08677-.69987-.18277-1.02809-.29418,.05887,.0031,3.07803,.51098,5.87433-.61001-1.51116-1.15199-2.70956-2.81182-3.2019-3.5395-1.4493-2.14907-6.27071-10.19112-.73081-21.03248-1.91999,.43669-3.77488,1.25111-5.45322,3.20503-2.20484,2.57028-2.79937,5.69783-2.61666,7.75713,.1889,2.19555,.97854,3.72839,1.13647,4.09373-.98783-.19506-2.33487-2.39677-2.33487-2.39677,0,0-.25079,1.60406-.25079,2.32561,0,0-.8268,10.56881,9.54073,13.51369,4.84938,1.38117,10.49456-.26005,12.99359-4.44678Z" style="fill:#002461"></path></g><polygon points="22.70106 65.01722 65.01731 107.33324 107.33333 65.01722 65.01731 22.70097 22.70106 22.70097 22.70106 65.01722" style="fill:#002461"></polygon><path d="M80.18446,19.80973v-1.46214l2.91487-2.68728c.21859-.20848,.40473-.3991,.55801-.57311,.15416-.17442,.27088-.34953,.35156-.52621s.12125-.36873,.12125-.5774c0-.23211-.04823-.43201-.14516-.59766-.096-.16565-.22897-.29368-.39753-.38406-.16948-.09056-.36282-.13565-.58187-.13565-.2209,0-.4147,.04754-.581,.14174-.16681,.09443-.29613,.23124-.38853,.40926-.09286,.17783-.13883,.39375-.13883,.64908h-1.83041c0-.57241,.12213-1.0671,.36689-1.4836,.2443-.41622,.58866-.73737,1.03262-.96367,.4435-.22556,.95961-.33868,1.54734-.33868,.60624,0,1.13315,.10703,1.58117,.32068,.44715,.21365,.79373,.51089,1.03941,.89356,.2461,.38221,.36869,.8253,.36869,1.32875,0,.32092-.06041,.63892-.183,.95375-.12259,.31464-.34118,.6626-.65715,1.04301-.31644,.38133-.76446,.83725-1.34454,1.36799l-.95688,.92873v.05386h3.23938v1.63905h-5.91627Z" style="fill:#002461"></path><path d="M90.28352,20.01531c-.69726,0-1.29811-.17447-1.8029-.52423-.50484-.34842-.89384-.85165-1.1674-1.50793-.27273-.65535-.40791-1.44502-.40566-2.36858,.00222-.92222,.14017-1.70695,.41152-2.35215,.27268-.64432,.66029-1.13629,1.16334-1.47456,.50346-.3385,1.10384-.50733,1.8011-.50733,.69773,0,1.29903,.16883,1.80563,.50733,.50572,.33827,.89564,.8307,1.16873,1.47682,.27314,.64677,.40884,1.42993,.4057,2.34988,0,.92624-.13616,1.71775-.4093,2.37513-.27356,.65762-.66168,1.15881-1.16513,1.50543s-1.10518,.52017-1.80563,.52017m0-1.66388c.4165,0,.75362-.22427,1.01098-.67206,.25782-.44756,.38539-1.13582,.38267-2.06478,0-.60759-.05857-1.1097-.17576-1.50567-.11719-.39555-.27947-.69052-.48772-.88479-.2082-.19473-.45116-.29207-.73017-.29207-.41378,0-.74776,.21951-1.00285,.65942-.25514,.4399-.38406,1.11418-.38632,2.02311-.00268,.61658,.05409,1.12752,.16994,1.53271,.11539,.40566,.27901,.70765,.48952,.90597,.21047,.19856,.4543,.29816,.72971,.29816" style="fill:#002461"></path><path d="M94.55239,19.80973v-1.46214l2.91625-2.68728c.21817-.20848,.40432-.3991,.55755-.57311,.1537-.17442,.27042-.34953,.3511-.52621,.08072-.17668,.12125-.36873,.12125-.5774,0-.23211-.04823-.43201-.14423-.59766-.09688-.16565-.22897-.29368-.39841-.38406-.16907-.09056-.36287-.13565-.58192-.13565-.22039,0-.41512,.04754-.581,.14174-.1663,.09443-.29655,.23124-.38807,.40926-.0924,.17783-.13925,.39375-.13925,.64908h-1.83046c0-.57241,.12263-1.0671,.36735-1.4836,.24384-.41622,.5882-.73737,1.03221-.96367,.4435-.22556,.95961-.33868,1.54734-.33868,.60624,0,1.13361,.10703,1.58118,.32068,.44756,.21365,.79418,.51089,1.04028,.89356,.24517,.38221,.36869,.8253,.36869,1.32875,0,.32092-.06129,.63892-.18342,.95375-.12217,.31464-.34168,.6626-.65808,1.04301-.31598,.38133-.76446,.83725-1.34454,1.36799l-.95647,.92873v.05386h3.23984v1.63905h-5.9172Z" style="fill:#002461"></path><path d="M101.34672,19.80973v-1.46214l2.91533-2.68728c.21817-.20848,.40478-.3991,.55801-.57311,.15416-.17442,.27088-.34953,.35115-.52621,.08068-.17668,.12125-.36873,.12125-.5774,0-.23211-.04777-.43201-.1447-.59766-.096-.16565-.22897-.29368-.39799-.38406-.16948-.09056-.36282-.13565-.58146-.13565-.22131,0-.41512,.04754-.581,.14174-.16676,.09443-.29654,.23124-.38895,.40926-.0924,.17783-.13883,.39375-.13883,.64908h-1.83041c0-.57241,.12213-1.0671,.36689-1.4836,.24476-.41622,.58908-.73737,1.03309-.96367,.4435-.22556,.95961-.33868,1.54688-.33868,.60671,0,1.13315,.10703,1.58117,.32068,.44756,.21365,.79419,.51089,1.03941,.89356,.2461,.38221,.36915,.8253,.36915,1.32875,0,.32092-.06088,.63892-.18346,.95375-.12213,.31464-.34123,.6626-.65716,1.04301-.31644,.38133-.76446,.83725-1.34454,1.36799l-.95693,.92873v.05386h3.23989v1.63905h-5.91678Z" style="fill:#002461"></path><path d="M84.92074,39.2115v23.88378h11.12403v4.33515h-17.01376v-24.57906c0-1.22689-.20419-1.84033-.89919-2.6174-.45029-.53184-.16362-1.02247,.36823-1.02247h6.4207Z" style="fill:#fff"></path><path d="M35.06148,68.253c2.16734,1.75878,5.60261,2.82205,7.97501,2.82205,2.94418,0,4.70314-1.26792,4.70314-3.68067,0-1.88137-.73603-3.06769-3.14901-4.29458-2.74022-1.39005-4.98981-2.24913-7.07559-4.04848-1.88137-1.63615-3.23084-3.68113-3.23084-6.66629,0-4.21256,3.47648-7.1572,9.28351-7.1572,3.19027,0,5.84847,.53166,8.34347,1.59516v4.45773c0,.65448-.61386,.85862-1.10449,.44983-2.04452-1.71775-4.13031-2.49481-6.54329-2.49481-2.5358,0-4.00814,1.18632-4.00814,3.14929,0,1.39051,.53166,2.37218,1.47234,3.14924,1.79953,1.47253,4.04866,2.5358,6.01205,3.47606,3.76273,1.7993,5.97111,3.88527,5.97111,8.30202,0,5.521-4.66261,7.77106-10.59246,7.77106-4.3759,0-9.89713-2.08602-9.2019-3.8862l1.1451-2.94422Z" style="fill:#fff"></path><path d="M65.28958,49.78656c-8.24391,0-14.92733,6.68346-14.92733,14.92733,0,8.24433,6.68342,14.92733,14.92733,14.92733s14.92774-6.683,14.92774-14.92733c0-8.24387-6.68342-14.92733-14.92774-14.92733m0,24.81593c-5.46151,0-9.8886-4.42709-9.8886-9.8886s4.42709-9.8886,9.8886-9.8886,9.88906,4.42709,9.88906,9.8886-4.42755,9.8886-9.88906,9.8886" style="fill:#fff"></path><path d="M36.20723,32.46135c0-.30042-.018-.46474-.19067-.65582-.10976-.13657-.03692-.26391,.09106-.26391h1.57619v1.21157c0,1.19352,1.16583,1.89466,2.22282,2.25005l-.39149,.73806c-.11853,.21863-.56544,.13657-1.34902-.34616-.44604-.27338-.87468-.63754-1.15729-1.02067-.33647,.48296-.75542,.88387-1.23815,1.20298-.55575,.36398-1.26654,.71014-1.38511,.48273l-.41918-.79257c1.21157-.47396,2.24082-1.26635,2.24082-2.42359v-.38267Zm5.99497,6.36813v1.02972h-5.20258c-1.10158,0-1.5388-.28261-1.5388-1.20234v-1.32155c0-.18231-.06397-.31842-.19154-.47392-.10929-.13611-.03628-.26391,.09148-.26391h1.54803v1.86784c0,.28191,.09083,.36416,.37436,.36416h4.91905Zm-1.58524-1.76732v-4.73739c0-.31888-.05451-.48273-.22759-.67432-.10999-.13657-.03655-.25463,.10002-.25463h1.55773v5.66635h-1.43016Z" style="fill:#fff"></path><path d="M45.21828,32.06963c0-.31888-.01828-.46469-.19182-.67428-.1183-.13657-.04528-.2551,.09176-.2551h1.55773v1.0209h2.06769v1.00152h-.95619c.28238,.31935,.455,.71079,.455,1.17506,0,1.14847-.84694,2.02311-2.35889,2.02311-1.50345,0-2.36004-.87464-2.36004-2.02311,0-.4735,.16385-.8654,.43718-1.17506h-.95642v-1.00152h2.214v-.09153Zm5.80315,6.75985v1.02972h-5.11083c-1.1025,0-1.54019-.28238-1.54019-1.2028v-.95665c0-.1819-.06309-.31847-.19108-.4735-.10888-.1368-.03586-.26456,.09102-.26456h1.54942v1.50317c0,.28261,.09083,.36462,.37298,.36462h4.82868Zm-5.13787-3.47131c.62808,0,.99228-.48273,.99228-1.06553,0-.61949-.36421-1.09346-.99228-1.09346-.63805,0-.99344,.47396-.99344,1.09346,0,.5828,.35539,1.06553,.99344,1.06553m3.59819,1.83157v-4.86473c0-.31893-.04579-.46473-.21841-.67432-.11853-.13657-.04574-.25533,.0906-.25533h1.55819v2.15045h1.03849v1.02925h-1.03849v2.61468h-1.43039Z" style="fill:#fff"></path><path d="M60.88774,36.51569h-8.68225v-.99275h8.68225v.99275Zm-7.58874,1.28435c0-.18213-.06379-.31888-.19113-.4735-.10976-.13704-.03697-.26438,.09106-.26438h1.54845v1.50322c0,.17308,.10006,.2641,.28284,.2641h4.98307v1.02972h-5.62084c-.70155,0-1.09345-.41918-1.09345-1.03849v-1.02067Zm6.58677-4.60063c0,1.075-1.01144,1.89512-3.33451,1.89512s-3.33455-.82012-3.33455-1.89512,1.01144-1.89512,3.33455-1.89512,3.33451,.82013,3.33451,1.89512m-1.40316,0c0-.55529-.54629-.92037-1.93135-.92037-1.38488,0-1.9314,.36509-1.9314,.92037,0,.55575,.54652,.91996,1.9314,.91996,1.38506,0,1.93135-.36421,1.93135-.91996" style="fill:#fff"></path><path d="M63.12967,32.06063c0-.32812-.01851-.48273-.18254-.67428-.11857-.1458-.03651-.27315,.10048-.27315h1.5023v.9747h1.62221v1.00244h-.61031c.20959,.28214,.33762,.61907,.33762,1.01121,0,1.17529-.7658,1.9584-2.12299,1.9584-1.3576,0-2.12294-.78311-2.12294-1.9584,0-.39213,.12711-.72906,.32816-1.01121h-.71983v-1.00244h1.86784v-.02728Zm.64677,3.01539c.59231,0,.83794-.48274,.83794-.9657,0-.51001-.24564-.99275-.83794-.99275-.59226,0-.8379,.48273-.8379,.99275,0,.48296,.24564,.9657,.8379,.9657m5.95781,3.14361c0,1.1931-1.11155,1.89466-3.289,1.89466-2.17703,0-3.28854-.70155-3.28854-1.89466,0-1.19398,1.1115-1.89508,3.28854-1.89508,2.17745,0,3.289,.70109,3.289,1.89508m-1.46671,0c0-.53817-.43764-.90233-1.82229-.90233s-1.82233,.36416-1.82233,.90233c0,.53729,.43769,.90127,1.82233,.90127s1.82229-.36398,1.82229-.90127m1.46671-6.82405v4.74666h-1.30263v-1.9404h-.61031v1.6943h-1.30305v-3.59865c0-.32812-.07302-.43764-.18213-.59226-.10953-.15462-.03651-.2551,.08206-.2551h1.40311v1.67626h.61031v-1.73081h1.30263Z" style="fill:#fff"></path></g><g><path d="M101.50716,92.66502c-.0305-.11887-.06866-.23431-.11115-.34762l.0022-.00882c.0345-.19872,.1808-1.24798-.32904-2.38971-.59795-1.33842-1.72014-2.34952-2.95227-2.72425-.16156-.17937-.36507-.32278-.59942-.41408-.14531-.05661-.92114-.3389-1.92938-.3389-.95656,0-1.84773,.26292-2.57721,.76028-.23568,.16079-.44818,.34353-.6463,.53955-.01305,.00263-.02617,.00147-.03922,.00443-.85501,.19452-1.54,.59725-2.09806,1.21791h-.05587l.2458-.32418,1.92491-2.53902h-9.71008l.3997,.67547h-24.06299l-.17308,1.38673-.18307,1.46664c-.16422-.50921-.41435-.99715-.78908-1.42955-1.1991-1.3837-3.10384-1.54373-4.4322-1.54373-2.09992,0-3.66363,.51155-4.77023,1.58778-.06839-.10698-.14191-.2128-.23002-.31443-.92646-1.06898-2.42624-1.06898-2.9191-1.06898l-17.85718-.00093,1.85945,2.9269-1.3514,9.43484,16.06839-.0006c1.47527,0,2.61963-.49749,3.37681-1.43105,.01998,.02414,.03583,.05134,.05634,.07509,1.21122,1.39818,3.08519,1.55988,4.38938,1.55988,3.00874,0,4.96502-1.13067,6.00682-3.51373,.10216,.46846,.32072,.91278,.6471,1.28414,.56685,.63525,1.37158,.99432,2.21593,.99432l3.85702-.01448-.19432,1.5689h5.34494l.12313-.99782h10.94434l.17261-1.3873,.04016-.32238,3.44833-.0019-.50818,2.88304h5.43584l.50832-2.88407h.74593c.02078,.01418,.04136,.02837,.06253,.04229,.04189,.09227,.0897,.1823,.14871,.26698,.10888,.15626,1.11732,1.54076,2.97005,2.02144,.4639,.12044,.9497,.18154,1.4437,.18154,1.30805,0,2.46286-.41472,3.30209-1.13417,.25199-.03829,.49586-.13778,.70857-.29778,.12533-.0943,1.24132-.95923,1.82016-2.2757,.44545-1.01607,.52923-2.08311,.2496-3.17296Z" style="fill:#002461"></path><g><path d="M61.7374,94.92312c-.00979-.01256-.01676-.0391-.01071-.07774l.19972-1.61966h3.47768l.54051-4.36223c.01955-.15549-.01071-.28026-.08566-.36871-.08195-.09032-.20531-.13594-.37012-.13594h-5.12247l-.20531,1.64479h3.4977l-.19413,1.58241-4.10152,.00141s.24441,.59172,.32915,.72718c.13361,.19321,.16387,.32869,.13035,.59964l-.27514,2.23604c-.0475,.36593,.06285,.71975,.30913,1.00001,.25699,.28772,.63128,.45625,1.02701,.45625h3.28866c.63967,0,1.29004-.03864,1.70579-.31798l.11313-.0731,.15782-1.2677h-4.31241c-.05773,0-.08938-.01397-.09915-.02468" style="fill:#fff"></path><path d="M66.89167,87.92028l.12616,.21649c.02141,.0419,.23184,.40781,.31191,.51396,.12383,.17552,.15131,.26817,.11267,.58846l-1.10522,8.92185h2.15457l1.2635-10.24077h-2.8636Z" style="fill:#fff"></path><path d="M78.24134,95.45367l.92505-5.19696c.1243-.75419,.07308-1.18204-.17413-1.47952-.26349-.31285-.71649-.43717-1.56983-.43717h-5.91485l.02374,.16342s.03445,.23977,.09172,.58566c.06192,.36732,.3864,.87477,.3999,.89665l.04051,.06239h4.95394l-.92225,5.40553h-6.57454l-.21182,1.70952h10.25193l.21276-1.70952h-1.53213Z" style="fill:#fff"></path><path d="M39.16857,88.44245h-2.52982c-1.79191,2.37432-3.29797,3.93067-3.85664,4.34175,.45811,.20763,1.53446,1.80727,2.75839,4.85432h2.56101c-1.2123-3.04705-2.29842-4.67182-2.65178-4.97257,.46228-.38501,1.84917-1.84918,3.71884-4.2235" style="fill:#fff"></path><path d="M30.41124,88.44245c.25279,.42087,.77188,.50467,.68529,1.18065l-1.14805,8.01543h2.12153l1.3217-9.19607h-2.98046Z" style="fill:#fff"></path><path d="M45.1006,91.12352c-.09079,.63175-.30913,.86919-.72022,.86919h-2.50652l.25046-1.74302h2.50932c.40457,0,.5554,.24069,.46696,.87383m-.38642,3.69324c-.09823,.7123-.36779,1.01351-.81891,1.01351h-2.57218l.30354-2.10942h2.5205c.47394,0,.67645,.34217,.56704,1.09591m2.73839-4.17136c.20624-1.43576-.14526-2.20206-1.98047-2.20206h-6.0708c.25791,.42272,.77887,.50465,.68995,1.18065l-1.15225,8.01402h5.25237c1.49209,0,2.5191-.63175,2.78493-2.48093,.20438-1.43623-.12849-2.35709-.98278-2.35709,.79096,0,1.27422-.87244,1.45904-2.15459" style="fill:#fff"></path><path d="M54.91551,92.98671c.3608-2.50607,.05679-2.7989-1.80169-2.7989-1.86176,0-2.24444,.29283-2.60617,2.7989-.36499,2.5475-.07541,2.91623,1.78121,2.91623,1.86546,0,2.25933-.36873,2.62665-2.91623m2.27004-.02515c-.54284,3.78541-2.22722,4.88039-5.17183,4.88039-2.95673,0-4.31707-1.09498-3.77192-4.88039,.53585-3.73606,2.19649-4.72256,5.14948-4.72256,2.94602,0,4.33104,.9865,3.79427,4.72256" style="fill:#fff"></path><g><path d="M89.98946,93.44293h-.90802l.51048-2.89635h-1.66374c-.32253,0-.59847,.23149-.6544,.54906l-.41373,2.34729h-2.07071l4.36663-5.75955h-3.73116c.19475,.32529,.66694,.45441,.49308,.95381l-5.16801,6.81657,5.7563-.00317-.50834,2.88407h2.22144l.50831-2.88407h2.08327c-.53328-.63754-.76112-1.39694-.82141-2.00766Z" style="fill:#fff"></path><path d="M99.9741,93.05844c.20444,.79669,.11383,1.50532-.16537,2.14244-.42886,.97565-1.32295,1.64789-1.32295,1.64789,0,0,.09302-.59564-.02959-.81623-.48535,1.70919-2.53958,2.19837-4.07577,1.79952-1.33952-.34759-2.06853-1.39417-2.06853-1.39417,0,0,2.18081,.87456,4.42505-.76908,.71825-.5257,1.47799-1.5982,1.44854-2.82346-.01529-.6435-.37746-1.52132-.9983-2.01969-.58814,.08509-.2506,.80292,.02775,1.22979,.13946,.21393,.28373,.38468,.48138,.54864,.06031,.04998,.11058,.13861,.12063,.25089,.02322,.2557-.03101,.50984-.03101,.50984,0,0-.16183-.01062-.59422-.38879-.21252-.1859-.40196-.41173-.56464-.65723,.14272-.03724,.34829-.09727,.43594-.14625-.4239-.17995-.66431-.36968-.75804-.52853-.09345-.15829-.12502-.24565-.15744-.36415-.06442-.23262-.16098-.587,.10307-.69687,.16636-.06952,.43055-.04035,.61362-.00949,.32791,.0555,.70254,.18009,1.13791,.381,.56209,.25938,1.72264,1.13224,1.97198,2.10393" style="fill:#fff"></path><path d="M92.55272,92.58585c.04191-.35976,.19-.78848,.41427-1.13323,.50758-.78154,1.4331-1.32664,2.3408-1.44245,1.19114-.15192,2.40961,.13181,3.38328,.83548,.66615,.48139,1.14782,1.19227,1.14782,1.19227,0,0,.12375-.71471-.21506-1.47374-.46355-1.03781-1.45222-1.90416-2.47587-1.94394-.32423-.01274-.70042,.06584-.87541,.10208,.00751-.16707,.67054-.46694,.67054-.46694,0,0-1.69758-.66148-3.04036,.25428-.49327,.3364-1.17585,.98896-1.41088,2.45435-.13408,.83605,.06088,1.62184,.06088,1.62184" style="fill:#fff"></path><path d="M95.82394,95.10332c-.63798,1.04064-1.96886,1.40833-3.14174,1.07504-2.50589-.71216-2.30541-3.26746-2.30541-3.26746,0-.17372,.05961-.56195,.05961-.56195,0,0,.32649,.5332,.56506,.58035-.03837-.08948-.22908-.4593-.27538-.99038-.04347-.49781,.1001-1.25386,.63302-1.87527,.40578-.47289,.85375-.66898,1.31743-.77432-1.33867,2.61972-.17245,4.56437,.1774,5.08398,.11907,.17599,.40861,.57908,.77418,.85757-.75266,.23404-1.45902,.11893-1.51764,.10888,.34433,.13153,.75507,.20671,1.24834,.19269,.33513-.00934,.78551-.1842,1.05508-.38001,1.00057-.72731,1.07972-2.27567,.0109-3.13168-.28147-.2254-.8107-.39927-1.16438-.3432,.17344-.29237,.39134-.3599,.6207-.39771,.59026-.09656,1.21478,.24947,1.63373,.72491-.14796,.04276-.37732,.11624-.48294,.17995,.5308,.20643,.80363,.30257,.96744,.78678,.33824,.99958,.01699,1.81779-.17542,2.13182" style="fill:#fff"></path></g></g></g></g></g></g></g></svg>