
<svg viewBox="0 0 780.83478 996.23258" version="1.1" id="svg22" width="780.83478" height="996.2326" xmlns="http://www.w3.org/2000/svg">
  <defs id="defs26"></defs>
  <g id="레이어_2" transform="scale(4.8549112)">
    <g id="레이어_1-2">
      <path d="m 28.146,182.683 h -8.014 c 0,0 -6.4,7.189 -7.6,8.532 v -8.532 h -8.7 c -0.271,0 -0.2,0.231 0,0.413 a 4.132,4.132 0 0 1 1.6,2.808 v 16.706 a 1.79,1.79 0 0 0 1.839,1.89 h 5.265 v -8.525 c 1.192,1.343 7.6,8.525 7.6,8.525 h 8.014 c 0,0 -8.989,-10.372 -9.459,-10.913 0.47,-0.533 9.459,-10.9 9.459,-10.9" style="fill:#001947" id="path2"></path>
      <path d="m 93.582,193.6 c 0,7.582 5.214,11.546 10.375,11.546 a 15.655,15.655 0 0 0 8.684,-2.607 l 0.177,-0.121 v -9.855 H 106 v 4.024 h 2.57 v 2.721 a 7.291,7.291 0 0 1 -4.073,1.205 c -3.116,0 -6.262,-2.352 -6.262,-6.854 0,-4.21 2.336,-7.048 5.833,-7.048 a 11.94,11.94 0 0 1 6.584,2.273 l 0.334,0.252 1.875,-4.434 -0.322,-0.2 a 18.927,18.927 0 0 0 -8.206,-2.4 c -5.335,0 -10.749,3.948 -10.749,11.495" style="fill:#001947" id="path4"></path>
      <path d="m 42.039,200.133 v -17.447 h -6.381 c -0.267,0 -0.2,0.228 0,0.41 a 4.151,4.151 0 0 1 1.6,2.808 v 17.123 a 1.314,1.314 0 0 0 1.432,1.473 h 13.319 v -4.368 z" style="fill:#001947" id="path6"></path>
      <path d="m 59.335,200.133 v -4.281 H 67.4 v -4.764 h -8.06 v -4.034 h 9.06 v -4.368 H 52.954 c -0.265,0 -0.192,0.228 0,0.41 a 4.152,4.152 0 0 1 1.593,2.808 v 17.123 c 0,1.044 0.405,1.474 1.443,1.474 H 69 v -4.368 z" style="fill:#001947" id="path8"></path>
      <path d="m 130.293,182.683 v 12.29 c 0,3.373 -0.6,5.488 -4.112,5.488 -3.454,0 -4.566,-1.764 -4.566,-5.374 v -12.4 h -6.332 c -0.273,0 -0.207,0.231 0,0.413 a 4.162,4.162 0 0 1 1.59,2.808 v 9.907 c 0,6.238 2.7,9.386 9.273,9.386 6.561,0 8.883,-2.91 8.883,-9.386 v -13.132 z" style="fill:#001947" id="path10"></path>
      <path d="m 80.057,195.456 c 0.294,-0.955 2.32,-7.475 2.467,-7.954 h 0.689 c 0.154,0.479 2.182,7 2.487,7.954 z m 6.125,-12.773 h -8.228 c -0.265,0 -0.188,0.231 0,0.413 a 2.905,2.905 0 0 1 0.448,2.98 L 72.159,204.5 h 5.075 c 0,0 1.248,-3.992 1.4,-4.484 H 87.1 c 0.154,0.492 1.4,4.484 1.4,4.484 h 5.088 z" style="fill:#001947" id="path12"></path>
      <path d="m 143.168,200.133 v -4.281 h 8.065 v -4.764 h -8.065 v -4.034 h 9.066 v -4.368 h -15.445 c -0.268,0 -0.2,0.228 0,0.41 a 4.133,4.133 0 0 1 1.593,2.808 v 17.123 c 0,1.044 0.405,1.474 1.438,1.474 h 13.01 v -4.368 z" style="fill:#001947" id="path14"></path>
      <path d="m 0,85.11 25,17.39 c 0,0 20.5,-46.89 54.166,-70.14 V 0 A 210.116,210.116 0 0 0 41,56.36 C 23.833,64.777 0,85.11 0,85.11 Z" style="fill:#e72410" id="path16"></path>
      <path d="m 22.666,159.443 c -8.166,-58 46.834,-139.667 138.168,-136 0,0 -51.334,30.667 -71.167,61.167 15.833,45.167 55.054,83 55.054,83 0,0 -47.325,-7.5 -91.94,-46 -12.947,10.5 -30.115,37.833 -30.115,37.833 z" style="fill:#1f1f45" id="path18"></path>
    </g>
  </g>
</svg>
