
<svg xmlns="http://www.w3.org/2000/svg" width="1596.902" height="1133.858" viewBox="0 0 422.51364 299.99995" version="1.1">
  <g id="layer1">
    <g id="g3400">
      <path d="M -4.3489101e-6,299.40105 6.0076293,273.71931 h 5.9284927 l -2.4174437,10.26334 h 0.097121 l 6.7414997,-10.26334 h 6.022025 l -8.004184,11.31018 2.320315,14.37156 h -6.230672 l -1.1475662,-8.92152 -1.903018,2.59013 -1.489317,6.33139 z" style="fill:#001658" id="path452"></path>
      <path d="m 39.520158,280.79572 c 1.158358,-4.96439 -0.989282,-7.69122 -6.176712,-7.69122 -5.147858,0 -8.68049,2.72683 -9.842446,7.69122 l -2.417444,10.38564 c -1.356215,5.81338 0,8.81721 5.978855,8.81721 5.971661,0 8.6697,-3.00383 10.029511,-8.81721 z m -8.475441,10.92886 c -0.327361,1.45333 -0.964099,3.65854 -2.931869,3.65854 -1.892225,0 -1.618823,-2.20521 -1.291462,-3.65854 l 2.482197,-10.54034 c 0.359738,-1.56127 1.032449,-3.43551 2.917479,-3.43551 1.964173,0 1.66559,1.87424 1.295059,3.43551 z" style="fill:#001658" id="path456"></path>
      <path d="m 46.781837,289.28341 h 1.949784 c 1.370603,0.0971 1.608031,1.15117 1.374201,2.69803 -0.161878,1.55048 -0.813009,3.68013 -1.233904,5.92489 -0.08274,0.54681 -0.08274,1.00728 -0.02877,1.49652 h 6.442917 l 0.08274,-0.34176 c -0.190661,-0.23742 -0.302179,-0.53241 -0.374128,-0.88495 0.07196,-1.65838 1.079216,-6.058 1.374202,-8.1085 0.312973,-1.76992 -0.582776,-2.95706 -2.136847,-3.33838 l 0.02159,-0.0503 c 2.734012,-1.17995 3.859995,-3.10815 4.47155,-5.86733 1.223112,-5.09391 -0.726672,-7.09046 -5.572349,-7.09046 H 44.50829 l -5.975258,25.68174 h 5.84935 z m 2.550547,-10.94326 c 2.924675,-0.0647 4.136993,0.0791 3.421114,3.13333 -0.38492,1.57206 -1.140372,3.1801 -2.87791,3.1801 h -2.00734 z" style="fill:#001658" id="path460"></path>
      <path d="m 57.998842,299.40105 6.000439,-25.68174 h 13.515378 l -1.201527,5.11909 h -7.633653 l -1.079216,4.77733 h 7.367446 l -1.212318,5.12268 h -7.363849 l -1.302254,5.52557 h 8.00778 l -1.194331,5.13707 z" style="fill:#001658" id="path464"></path>
      <path d="m 80.14183,299.40105 1.859848,-4.98957 h 4.626238 l -0.341751,4.98957 h 5.993244 l 0.543206,-25.68174 h -7.137213 l -11.464869,25.68174 z m 6.986123,-9.50069 h -3.442698 l 4.399602,-11.56201 h 0.08633 z" style="fill:#001658" id="path468"></path>
      <path d="m 103.10503,284.98668 -0.0935,0.0647 -2.82755,14.34997 h -5.547167 l 5.993247,-25.68174 h 6.04001 l 1.21591,14.36436 h 0.0791 l 2.78797,-14.36436 h 5.59754 l -5.98605,25.68174 h -6.02922 z" style="fill:#001658" id="path472"></path>
      <path d="m 131.33623,299.40105 c 4.77013,0 8.15527,-2.23038 9.39277,-7.47177 0.75546,-3.15131 0.46407,-4.51471 -1.82027,-6.10117 l 0.007,-0.0756 c 2.32751,-1.10079 3.60098,-3.12613 4.11901,-5.40327 1.2339,-5.16944 -1.90302,-6.62999 -6.34939,-6.62999 h -7.67682 l -5.96806,25.68174 z m 2.50738,-21.0627 c 2.09727,0 3.80603,-0.10787 3.20167,2.45702 -0.70149,3.04339 -1.87424,2.86352 -4.48234,3.04339 z m -2.35989,10.10866 c 2.50738,0.12227 4.15498,0.0359 3.45709,3.01101 -0.79142,3.42472 -1.97496,3.24484 -4.92842,3.29161 z" style="fill:#001658" id="path476"></path>
      <path d="m 147.10285,299.40105 1.87424,-4.98957 h 4.62623 l -0.31657,4.98957 h 5.93209 l 0.59717,-25.68174 h -7.13721 l -11.50085,25.68174 z m 6.97533,-9.50069 h -3.39593 l 4.3924,-11.56201 h 0.0612 z" style="fill:#001658" id="path480"></path>
      <path d="m 168.16015,290.77991 -0.38132,1.82387 c -0.36694,1.47133 -0.19426,2.78078 1.68717,2.78078 1.33462,0 2.24476,-1.28785 2.55414,-2.57213 0.50723,-2.17642 -1.02885,-2.97504 -2.32031,-3.94274 -1.61523,-1.05762 -2.89231,-2.03611 -3.7269,-3.35635 -0.76264,-1.29146 -1.00726,-2.87792 -0.51443,-5.14067 1.15837,-4.79892 4.59027,-7.27032 9.13018,-7.27032 5.12987,0 6.92856,3.47509 5.53277,8.32077 H 174.693 c 0.277,-1.49652 0.86697,-3.55063 -1.07922,-3.67294 -1.18353,-0.11515 -2.0505,0.56119 -2.43182,1.69076 -0.53961,1.51451 0.0359,2.31313 1.04323,3.13333 1.83827,1.45335 3.56861,2.35269 4.62264,3.61178 1.09361,1.32743 1.48572,3.04698 0.81301,6.15153 -1.19432,4.92842 -4.52911,7.66243 -9.44674,7.66243 -5.3673,0 -6.91777,-3.12613 -6.11915,-6.48249 l 0.63314,-2.73761 z" style="fill:#001658" id="path484"></path>
      <path d="m 179.07534,299.40105 6.01122,-25.68174 h 5.9357 l -2.41385,10.26334 h 0.072 l 6.73789,-10.26334 h 6.08679 l -8.07253,11.31018 2.33829,14.37156 h -6.22708 l -1.14036,-8.92152 -1.9282,2.59013 -1.52169,6.33139 z" style="fill:#001658" id="path488"></path>
      <path d="m 198.42855,299.40105 6.0652,-25.68174 h 13.46501 l -1.22671,5.11909 h -7.55811 l -1.13678,4.77733 h 7.40343 l -1.26988,5.12268 h -7.27391 l -1.33823,5.52557 h 8.01858 l -1.18355,5.13707 z" style="fill:#001658" id="path492"></path>
      <path d="m 221.0705,273.72039 h 15.29608 l -1.2267,5.11548 h -4.71259 l -4.82409,20.56626 h -5.94648 l 4.8241,-20.56626 h -4.55789 z" style="fill:#001658" id="path496"></path>
      <path d="m 241.55869,299.40105 c 4.80252,0 8.16968,-2.23038 9.364,-7.47177 0.79503,-3.15131 0.52522,-4.51471 -1.78431,-6.10117 l 0.0251,-0.0756 c 2.30953,-1.10079 3.5722,-3.12613 4.11181,-5.40327 1.23391,-5.16944 -1.95337,-6.62999 -6.36736,-6.62999 h -7.61926 l -5.97167,25.68174 z m 2.53616,-21.0627 c 2.06131,0 3.77366,-0.10787 3.19089,2.45702 -0.70509,3.04339 -1.87784,2.86352 -4.47515,3.04339 z m -2.37428,10.10866 c 2.4786,0.12227 4.14419,0.0359 3.44271,3.01101 -0.80221,3.42472 -2.02893,3.24484 -4.9608,3.29161 z" style="fill:#001658" id="path500"></path>
      <path d="m 257.38862,299.40105 1.82028,-4.98957 h 4.59386 l -0.33096,4.98957 h 6.01123 l 0.52162,-25.68174 h -7.09044 l -11.49005,25.68174 z m 6.89979,-9.50069 h -3.41752 l 4.44277,-11.56201 h 0.072 z" style="fill:#001658" id="path504"></path>
      <path d="m 271.60261,299.40105 6.02562,-25.68174 h 5.88892 l -4.79892,20.54467 h 7.20197 l -1.2231,5.13707 z" style="fill:#001658" id="path508"></path>
      <path d="m 287.16886,299.40105 5.99685,-25.68174 h 5.87452 l -4.79531,20.54467 h 7.21996 l -1.20873,5.13707 z" style="fill:#001658" id="path512"></path>
      <path d="m 311.73937,299.40105 6.00763,-25.68174 h 5.93929 l -4.80612,20.54467 h 7.18758 l -1.22311,5.13707 z" style="fill:#001658" id="path516"></path>
      <path d="m 327.64987,299.40105 5.99325,-25.68174 h 13.50459 l -1.19434,5.11909 h -7.59768 l -1.10799,4.77733 h 7.34946 l -1.17275,5.12268 h -7.38903 l -1.26988,5.52557 h 7.98261 l -1.19793,5.13707 z" style="fill:#001658" id="path520"></path>
      <path d="m 349.78927,299.40105 1.90302,-4.98957 h 4.58308 l -0.31298,4.98957 h 5.96087 l 0.55039,-25.68174 h -7.10123 l -11.50445,25.68174 z m 6.97534,-9.50069 h -3.40313 l 4.40319,-11.56201 h 0.0503 z" style="fill:#001658" id="path524"></path>
      <path d="m 376.01458,299.40105 0.2698,-2.29154 h -0.0827 c -1.76271,2.2088 -3.22685,2.88871 -5.79539,2.88871 -4.99677,0 -5.74142,-3.51465 -4.6658,-8.19485 l 2.43183,-10.51875 c 1.30585,-5.56515 4.43917,-8.18046 9.83885,-8.18046 5.03635,0 7.49696,2.18002 6.25946,7.42861 l -0.43888,1.9282 h -5.89971 l 0.35613,-1.42098 c 0.50364,-2.17641 0.50364,-3.27361 -1.07562,-3.29161 -1.85625,-0.0683 -2.54335,0.99649 -2.92107,2.62251 l -2.97864,12.71675 c -0.33096,1.42457 0.10787,2.29513 1.66199,2.29513 2.01453,0 2.4822,-1.64401 2.84554,-3.30599 l 0.46406,-1.96058 h -2.11527 l 1.07202,-4.64423 h 8.01138 l -3.24484,13.92908 z" style="fill:#001658" id="path528"></path>
      <path d="m 389.55405,273.72039 h 5.88531 l -4.55428,19.34674 c -0.25902,1.23389 -0.12227,2.31671 1.55406,2.31671 1.55767,0 2.33471,-1.3742 2.59372,-2.50377 l 4.50033,-19.15968 h 5.90691 l -4.35644,18.58049 c -1.00726,4.34924 -3.7161,7.69841 -9.77769,7.69841 -4.98957,0 -7.37104,-2.47141 -6.12275,-7.69841 z" style="fill:#001658" id="path532"></path>
      <path d="m 403.01584,299.40105 6.00404,-25.68174 h 13.49379 l -1.18714,5.11909 h -7.63007 l -1.10078,4.77733 h 7.38542 l -1.19793,5.12268 h -7.38183 l -1.29146,5.52557 h 8.02937 l -1.21232,5.13707 z" style="fill:#001658" id="path536"></path>
      <path d="M 84.169463,252.16234 73.460047,166.75681 h 0.230232 -0.46766 L 52.544846,252.16234 H 2.2066292 L 47.231508,66.051591 H 97.591309 L 78.406452,145.26243 h -0.259011 0.259011 l -0.597167,0.52882 0.107925,-0.52882 h 0.741062 L 125.48903,66.051591 h 53.03626 l -61.93978,89.812329 21.63108,96.29842 z" style="fill:#001658" id="path540"></path>
      <path d="m 321.55124,252.07817 44.9961,-186.028005 h 50.30585 L 382.50174,208.04977 h 37.80494 l -10.67345,44.0284 z" style="fill:#001658" id="path544"></path>
      <path d="M 194.22357,85.391494 154.03358,251.57991 C 228.40233,205.59814 272.7581,130.6538 194.22357,85.391494" style="fill:#001658" id="path548"></path>
      <path d="m 261.98717,65.995837 h -29.74678 c 71.42608,57.781203 40.88429,140.855643 -71.94052,186.081973 h 56.60127 c 63.47946,0 88.84103,-17.85024 95.53217,-52.94993 6.36377,-33.1535 -9.82087,-40.91667 -29.10285,-44.48168 l 0.43529,-1.81307 c 26.89765,0.16181 40.88427,-18.5949 45.17236,-40.74759 6.63718,-34.275889 -12.16637,-46.089703 -66.95094,-46.089703" style="fill:#001658" id="path552"></path>
      <path d="m 190.45746,73.793171 c 20.41516,0 36.92356,-16.529988 36.92356,-36.883995 C 227.38102,16.508403 210.87262,-1.7684322e-7 190.45746,-1.7684322e-7 170.06027,-1.7684322e-7 153.62023,16.508403 153.62023,36.909176 c 0,20.354007 16.44004,36.883995 36.83723,36.883995" style="fill:#e64800" id="path576"></path>
    </g>
  </g>
</svg>